<?xml version="1.0" encoding="UTF-8" standalone="no"?>
<!-- Created with Inkscape (http://www.inkscape.org/) -->

<svg
   xmlns:dc="http://purl.org/dc/elements/1.1/"
   xmlns:cc="http://creativecommons.org/ns#"
   xmlns:rdf="http://www.w3.org/1999/02/22-rdf-syntax-ns#"
   xmlns:svg="http://www.w3.org/2000/svg"
   xmlns="http://www.w3.org/2000/svg"
   xmlns:sodipodi="http://sodipodi.sourceforge.net/DTD/sodipodi-0.dtd"
   xmlns:inkscape="http://www.inkscape.org/namespaces/inkscape"
   width="30cm"
   height="8cm"
   viewBox="0 0 1062.9922 283.46458"
   id="svg3382"
   version="1.1"
   inkscape:version="0.91 r13725"
   sodipodi:docname="logo.svg"
   inkscape:export-filename="C:\xampp\htdocs\project-nevada\public_html\logo.png"
   inkscape:export-xdpi="120"
   inkscape:export-ydpi="120">
  <defs
     id="defs3384">
    <filter
       style="color-interpolation-filters:sRGB;"
       inkscape:label="Drop Shadow"
       id="filter4313">
      <feFlood
         flood-opacity="0.498039"
         flood-color="rgb(0,0,0)"
         result="flood"
         id="feFlood4315" />
      <feComposite
         in="flood"
         in2="SourceGraphic"
         operator="in"
         result="composite1"
         id="feComposite4317" />
      <feGaussianBlur
         in="composite1"
         stdDeviation="2"
         result="blur"
         id="feGaussianBlur4319" />
      <feOffset
         dx="1"
         dy="1"
         result="offset"
         id="feOffset4321" />
      <feComposite
         in="SourceGraphic"
         in2="offset"
         operator="over"
         result="fbSourceGraphic"
         id="feComposite4323" />
      <feColorMatrix
         result="fbSourceGraphicAlpha"
         in="fbSourceGraphic"
         values="0 0 0 -1 0 0 0 0 -1 0 0 0 0 -1 0 0 0 0 1 0"
         id="feColorMatrix4325" />
      <feFlood
         id="feFlood4327"
         flood-opacity="0.498039"
         flood-color="rgb(0,0,0)"
         result="flood"
         in="fbSourceGraphic" />
      <feComposite
         id="feComposite4329"
         in2="fbSourceGraphic"
         in="flood"
         operator="in"
         result="composite1" />
      <feGaussianBlur
         id="feGaussianBlur4331"
         in="composite1"
         stdDeviation="2"
         result="blur" />
      <feOffset
         id="feOffset4333"
         dx="1"
         dy="1"
         result="offset" />
      <feComposite
         id="feComposite4335"
         in2="offset"
         in="fbSourceGraphic"
         operator="over"
         result="composite2" />
    </filter>
    <filter
       style="color-interpolation-filters:sRGB;"
       inkscape:label="Drop Shadow"
       id="filter4479">
      <feFlood
         flood-opacity="0.498039"
         flood-color="rgb(0,0,0)"
         result="flood"
         id="feFlood4481" />
      <feComposite
         in="flood"
         in2="SourceGraphic"
         operator="in"
         result="composite1"
         id="feComposite4483" />
      <feGaussianBlur
         in="composite1"
         stdDeviation="2"
         result="blur"
         id="feGaussianBlur4485" />
      <feOffset
         dx="1"
         dy="1"
         result="offset"
         id="feOffset4487" />
      <feComposite
         in="SourceGraphic"
         in2="offset"
         operator="over"
         result="composite2"
         id="feComposite4489" />
    </filter>
    <filter
       style="color-interpolation-filters:sRGB;"
       inkscape:label="Drop Shadow"
       id="filter4491">
      <feFlood
         flood-opacity="0.498039"
         flood-color="rgb(0,0,0)"
         result="flood"
         id="feFlood4493" />
      <feComposite
         in="flood"
         in2="SourceGraphic"
         operator="in"
         result="composite1"
         id="feComposite4495" />
      <feGaussianBlur
         in="composite1"
         stdDeviation="2"
         result="blur"
         id="feGaussianBlur4497" />
      <feOffset
         dx="1"
         dy="1"
         result="offset"
         id="feOffset4499" />
      <feComposite
         in="SourceGraphic"
         in2="offset"
         operator="over"
         result="composite2"
         id="feComposite4501" />
    </filter>
    <filter
       style="color-interpolation-filters:sRGB"
       inkscape:label="Drop Shadow"
       id="filter4491-5">
      <feFlood
         flood-opacity="0.498039"
         flood-color="rgb(0,0,0)"
         result="flood"
         id="feFlood4493-4" />
      <feComposite
         in="flood"
         in2="SourceGraphic"
         operator="in"
         result="composite1"
         id="feComposite4495-0" />
      <feGaussianBlur
         in="composite1"
         stdDeviation="2"
         result="blur"
         id="feGaussianBlur4497-8" />
      <feOffset
         dx="1"
         dy="1"
         result="offset"
         id="feOffset4499-7" />
      <feComposite
         in="SourceGraphic"
         in2="offset"
         operator="over"
         result="composite2"
         id="feComposite4501-4" />
    </filter>
    <filter
       style="color-interpolation-filters:sRGB;"
       inkscape:label="Drop Shadow"
       id="filter4919">
      <feFlood
         flood-opacity="0.498039"
         flood-color="rgb(0,0,0)"
         result="flood"
         id="feFlood4921" />
      <feComposite
         in="flood"
         in2="SourceGraphic"
         operator="in"
         result="composite1"
         id="feComposite4923" />
      <feGaussianBlur
         in="composite1"
         stdDeviation="2"
         result="blur"
         id="feGaussianBlur4925" />
      <feOffset
         dx="1"
         dy="1"
         result="offset"
         id="feOffset4927" />
      <feComposite
         in="SourceGraphic"
         in2="offset"
         operator="over"
         result="composite2"
         id="feComposite4929" />
    </filter>
    <filter
       style="color-interpolation-filters:sRGB;"
       inkscape:label="Drop Shadow"
       id="filter4943">
      <feFlood
         flood-opacity="0.498039"
         flood-color="rgb(0,0,0)"
         result="flood"
         id="feFlood4945" />
      <feComposite
         in="flood"
         in2="SourceGraphic"
         operator="in"
         result="composite1"
         id="feComposite4947" />
      <feGaussianBlur
         in="composite1"
         stdDeviation="2"
         result="blur"
         id="feGaussianBlur4949" />
      <feOffset
         dx="1"
         dy="1"
         result="offset"
         id="feOffset4951" />
      <feComposite
         in="SourceGraphic"
         in2="offset"
         operator="over"
         result="fbSourceGraphic"
         id="feComposite4953" />
      <feColorMatrix
         result="fbSourceGraphicAlpha"
         in="fbSourceGraphic"
         values="0 0 0 -1 0 0 0 0 -1 0 0 0 0 -1 0 0 0 0 1 0"
         id="feColorMatrix5037" />
      <feFlood
         id="feFlood5039"
         flood-opacity="0.498039"
         flood-color="rgb(0,0,0)"
         result="flood"
         in="fbSourceGraphic" />
      <feComposite
         id="feComposite5041"
         in2="fbSourceGraphic"
         in="flood"
         operator="in"
         result="composite1" />
      <feGaussianBlur
         id="feGaussianBlur5043"
         in="composite1"
         stdDeviation="1.6"
         result="blur" />
      <feOffset
         id="feOffset5045"
         dx="1.4"
         dy="2"
         result="offset" />
      <feComposite
         id="feComposite5047"
         in2="offset"
         in="fbSourceGraphic"
         operator="over"
         result="composite2" />
    </filter>
  </defs>
  <sodipodi:namedview
     id="base"
     pagecolor="#ffffff"
     bordercolor="#666666"
     borderopacity="1.0"
     inkscape:pageopacity="0.0"
     inkscape:pageshadow="2"
     inkscape:zoom="0.88053333"
     inkscape:cx="534.75317"
     inkscape:cy="68.603964"
     inkscape:document-units="cm"
     inkscape:current-layer="layer1"
     showgrid="true"
     units="cm"
     inkscape:window-width="1280"
     inkscape:window-height="962"
     inkscape:window-x="-8"
     inkscape:window-y="-8"
     inkscape:window-maximized="1"
     inkscape:snap-grids="true"
     inkscape:snap-bbox="true"
     inkscape:snap-page="true"
     inkscape:snap-to-guides="true"
     inkscape:snap-bbox-midpoints="false"
     inkscape:snap-bbox-edge-midpoints="false"
     inkscape:bbox-nodes="false"
     inkscape:bbox-paths="false"
     objecttolerance="10000"
     fit-margin-top="0"
     fit-margin-left="0"
     fit-margin-right="0"
     fit-margin-bottom="0"
     inkscape:snap-nodes="true">
    <inkscape:grid
       type="xygrid"
       id="grid3400"
       originx="-278.75001"
       originy="-538.75001" />
  </sodipodi:namedview>
  <metadata
     id="metadata3387">
    <rdf:RDF>
      <cc:Work
         rdf:about="">
        <dc:format>image/svg+xml</dc:format>
        <dc:type
           rdf:resource="http://purl.org/dc/dcmitype/StillImage" />
        <dc:title></dc:title>
      </cc:Work>
    </rdf:RDF>
  </metadata>
  <g
     inkscape:label="Layer 1"
     inkscape:groupmode="layer"
     id="layer1"
     transform="translate(-240.00002,-548.89737)">
    <path
       style="opacity:1;fill:#111111;fill-opacity:1;fill-rule:nonzero;stroke:#000000;stroke-width:3.38067222;stroke-linecap:butt;stroke-linejoin:bevel;stroke-miterlimit:4;stroke-dasharray:none;stroke-opacity:1;filter:url(#filter4943)"
       d="M 166.91797 10.560547 L 166.91797 11.849609 A 129.99996 129.99996 0 0 1 293.63867 140.56641 L 293.64453 141.73242 A 129.99996 129.99996 0 0 1 166.91797 271.57617 L 166.91797 272.9043 L 1012.0332 141.73242 L 166.91797 10.560547 z M 166.91797 271.57617 L 166.91797 240.47461 L 149.34375 240.37109 L 149.48438 216.33398 A 75.983578 75.983578 0 0 1 118.93164 203.07422 L 102.58398 219.11719 L 83.300781 199.73633 L 100.07227 183.28125 A 75.983578 75.983578 0 0 1 88.837891 154.91016 L 64.148438 154.76367 L 64.308594 127.52539 L 89.023438 127.67188 A 75.983578 75.983578 0 0 1 101.24414 98.410156 L 84.001953 81.083984 L 103.51367 61.933594 L 120.66797 79.171875 A 75.983578 75.983578 0 0 1 150.36914 66.939453 L 150.50977 42.931641 L 166.91797 43.029297 L 166.91797 11.849609 A 129.99996 129.99996 0 0 0 162.76953 11.734375 A 129.99996 129.99996 0 0 0 33.646484 142.31641 A 129.99996 129.99996 0 0 0 163.93555 271.73242 A 129.99996 129.99996 0 0 0 166.91797 271.57617 z M 166.91797 43.029297 L 166.91797 104.20508 A 37.698709 37.698709 0 0 1 201.34375 141.61719 L 201.3418 141.95508 A 37.698709 37.698709 0 0 1 166.91797 179.27148 L 166.91797 240.47461 L 176.7793 240.5332 L 176.91992 216.50781 A 75.983578 75.983578 0 0 0 206.61914 204.28711 L 223.77539 221.52734 L 243.2832 202.38086 L 226.05664 185.06641 A 75.983578 75.983578 0 0 0 238.25586 155.79297 L 262.98047 155.93945 L 263.14062 128.70117 L 238.46875 128.55469 A 75.983578 75.983578 0 0 0 225.80859 98.195312 L 244.00586 80.332031 L 224.72461 60.955078 L 206.4082 78.929688 A 75.983578 75.983578 0 0 0 177.80469 67.117188 L 177.94531 43.09375 L 166.91797 43.029297 z M 166.91797 179.27148 L 166.91797 104.20508 A 37.698709 37.698709 0 0 0 163.61328 104.0332 A 37.698709 37.698709 0 0 0 125.94727 141.67773 A 37.698709 37.698709 0 0 0 163.50586 179.42969 A 37.698709 37.698709 0 0 0 166.91797 179.27148 z "
       transform="translate(240.00002,548.89735)"
       id="path4825" />
    <g
       style="font-style:normal;font-variant:normal;font-weight:normal;font-stretch:normal;font-size:81.02469635px;line-height:125%;font-family:'BN Jinx';-inkscape-font-specification:'BN Jinx, Normal';text-align:start;letter-spacing:0px;word-spacing:0px;writing-mode:lr-tb;text-anchor:start;fill:#0083d7;fill-opacity:1;stroke:none;stroke-width:1px;stroke-linecap:butt;stroke-linejoin:miter;stroke-opacity:1;filter:url(#filter4313)"
       id="text3443"
       transform="matrix(4.0073597,0,0,4.0073597,-2257.7828,-2076.9718)">
      <path
         d="m 788.5151,669.19863 -11.18141,30.70836 q -1.21537,3.32201 -4.45635,5.75275 -3.24099,2.34972 -6.563,2.34972 l -51.53171,0 q -2.59279,0 -4.13226,-1.45844 -1.53947,-1.53947 -1.53947,-3.88919 0,-1.29639 0.48615,-2.75484 l 11.18141,-30.70836 q 0.64819,-1.70152 2.26869,-2.83586 1.62049,-1.21537 3.32201,-1.21537 l 6.96812,0 q 2.59279,0 4.13226,1.53947 1.53947,1.45844 1.53947,3.80816 0,1.29639 -0.56717,2.75484 l -10.29014,28.27761 5.18558,0 10.29014,-28.27761 q 1.21537,-3.32202 4.45636,-5.67173 3.24099,-2.43074 6.64402,-2.43074 l 2.91689,0 q 2.59279,0 4.13226,1.53947 1.53947,1.45844 1.53947,3.80816 0,1.29639 -0.56717,2.75484 l -10.29014,28.27761 5.18558,0 10.29014,-28.27761 q 1.21537,-3.32202 4.45636,-5.67173 3.24099,-2.43074 6.64402,-2.43074 l 6.96813,0 q 2.83586,0 2.83586,2.67381 0,0.6482 -0.3241,1.37742 z"
         style="fill:#0083d7;stroke:#404040;stroke-width:2.12598443;stroke-miterlimit:4;stroke-dasharray:none"
         id="path3450"
         inkscape:connector-curvature="0" />
      <path
         d="m 833.39519,673.24987 -9.72297,26.65712 q -1.21537,3.32201 -4.45635,5.75275 -3.24099,2.34972 -6.64403,2.34972 l -16.20494,0 -1.45844,4.05124 q -0.56718,1.70151 -2.18767,2.83586 -1.62049,1.21537 -3.32201,1.21537 l -11.01936,0 q -2.83586,0 -2.83586,-2.67381 0,-0.6482 0.24307,-1.37742 l 14.17932,-38.81083 q 1.21537,-3.32202 4.45636,-5.67173 3.24099,-2.43074 6.563,-2.43074 l 27.2243,0 q 2.59279,0 4.13226,1.53947 1.53947,1.45844 1.53947,3.80816 0,1.29639 -0.48615,2.75484 z m -18.55466,-1.6205 -5.18558,0 -10.85731,29.89811 5.18558,0 10.85731,-29.89811 z"
         style="fill:#0083d7;stroke:#404040;stroke-width:2.12598443;stroke-miterlimit:4;stroke-dasharray:none"
         id="path3452"
         inkscape:connector-curvature="0" />
    </g>
  </g>
</svg>
