<?xml version="1.0" encoding="UTF-8" standalone="no"?>
<!-- Created with Inkscape (http://www.inkscape.org/) -->

<svg
   xmlns:osb="http://www.openswatchbook.org/uri/2009/osb"
   xmlns:dc="http://purl.org/dc/elements/1.1/"
   xmlns:cc="http://creativecommons.org/ns#"
   xmlns:rdf="http://www.w3.org/1999/02/22-rdf-syntax-ns#"
   xmlns:svg="http://www.w3.org/2000/svg"
   xmlns="http://www.w3.org/2000/svg"
   xmlns:xlink="http://www.w3.org/1999/xlink"
   xmlns:sodipodi="http://sodipodi.sourceforge.net/DTD/sodipodi-0.dtd"
   xmlns:inkscape="http://www.inkscape.org/namespaces/inkscape"
   width="210mm"
   height="297mm"
   viewBox="0 0 210 297"
   version="1.1"
   id="svg8"
   inkscape:version="0.92.2 (5c3e80d, 2017-08-06)"
   sodipodi:docname="infcore.svg">
  <defs
     id="defs2">
    <linearGradient
       id="999"
       xlink:href="#995"
       osb:paint="solid">
      <stop
         style="stop-color:#7f8c8d;stop-opacity:1;"
         offset="0"
         id="stop937" />
    </linearGradient>
    <linearGradient
       id="995"
       osb:paint="solid">
      <stop
         style="stop-color:#bdc3c7;stop-opacity:1;"
         offset="0"
         id="stop931" />
    </linearGradient>
    <linearGradient
       id="991"
       gradientTransform="matrix(8.4500689e-6,0,0,1.6143046e-5,168.61678,-127.03946)"
       osb:paint="solid">
      <stop
         style="stop-color:#c0392b;stop-opacity:1;"
         offset="0"
         id="stop925" />
    </linearGradient>
    <linearGradient
       id="987"
       osb:paint="solid"
       gradientTransform="matrix(0.01066738,0,0,0.01066738,138.60187,-79.43027)">
      <stop
         style="stop-color:#d35400;stop-opacity:1;"
         offset="0"
         id="stop919" />
    </linearGradient>
    <linearGradient
       id="983"
       osb:paint="solid"
       gradientTransform="matrix(0.00282241,0,0,0.00282241,-132.88309,-62.036263)">
      <stop
         style="stop-color:#f39c12;stop-opacity:1;"
         offset="0"
         id="stop913" />
    </linearGradient>
    <linearGradient
       id="998"
       osb:paint="solid"
       gradientTransform="matrix(-3.0424726e-7,0,0,-4.184143e-7,-2.4323476,15.226179)">
      <stop
         style="stop-color:#95a5a6;stop-opacity:1;"
         offset="0"
         id="stop907" />
    </linearGradient>
    <linearGradient
       id="994"
       osb:paint="solid">
      <stop
         style="stop-color:#ecf0f1;stop-opacity:1;"
         offset="0"
         id="stop901" />
    </linearGradient>
    <linearGradient
       id="990"
       gradientTransform="matrix(0.00129662,0,0,0.00129662,60.02619,156.59961)"
       osb:paint="solid">
      <stop
         style="stop-color:#e74c3c;stop-opacity:1;"
         offset="0"
         id="stop895" />
    </linearGradient>
    <linearGradient
       id="linearGradient891">
      <stop
         style="stop-color:#e67e22;stop-opacity:1;"
         offset="0"
         id="stop889" />
    </linearGradient>
    <linearGradient
       id="986"
       gradientTransform="matrix(0.04031764,0,0,0.04031764,-199.3387,23.710039)"
       osb:paint="solid">
      <stop
         style="stop-color:#e67e22;stop-opacity:1;"
         offset="0"
         id="stop883" />
    </linearGradient>
    <linearGradient
       id="982"
       osb:paint="solid">
      <stop
         style="stop-color:#f1c40f;stop-opacity:1;"
         offset="0"
         id="stop877" />
    </linearGradient>
    <linearGradient
       id="997"
       osb:paint="solid"
       gradientTransform="matrix(1.0090909,0,0,1,-0.00567688,0)">
      <stop
         style="stop-color:#2c3e50;stop-opacity:1;"
         offset="0"
         id="stop871" />
    </linearGradient>
    <linearGradient
       id="993"
       osb:paint="solid">
      <stop
         style="stop-color:#8e44ad;stop-opacity:1;"
         offset="0"
         id="stop865" />
    </linearGradient>
    <linearGradient
       id="989"
       gradientTransform="matrix(0.17022648,0,0,0.16328167,-40.149525,-33.992357)"
       osb:paint="solid">
      <stop
         style="stop-color:#2980b9;stop-opacity:1;"
         offset="0"
         id="stop859" />
    </linearGradient>
    <linearGradient
       id="985"
       osb:paint="solid"
       gradientTransform="matrix(0.07000434,0,0,0.07000434,1.1098728,0.75938662)">
      <stop
         style="stop-color:#27ae60;stop-opacity:1;"
         offset="0"
         id="stop853" />
    </linearGradient>
    <linearGradient
       id="981"
       osb:paint="solid">
      <stop
         style="stop-color:#16a085;stop-opacity:1;"
         offset="0"
         id="stop847" />
    </linearGradient>
    <linearGradient
       id="996"
       osb:paint="solid">
      <stop
         style="stop-color:#34495e;stop-opacity:1;"
         offset="0"
         id="stop841" />
    </linearGradient>
    <linearGradient
       id="992"
       gradientTransform="matrix(0,0,0,0,126.51896,87.411048)"
       osb:paint="solid">
      <stop
         style="stop-color:#9b59b6;stop-opacity:1;"
         offset="0"
         id="stop835" />
    </linearGradient>
    <linearGradient
       id="988"
       osb:paint="solid"
       gradientTransform="matrix(0.06994567,0,0,0.07000432,138.23209,-111.77396)">
      <stop
         style="stop-color:#3498db;stop-opacity:1;"
         offset="0"
         id="stop829" />
    </linearGradient>
    <linearGradient
       id="984"
       osb:paint="solid">
      <stop
         style="stop-color:#2ecc71;stop-opacity:1;"
         offset="0"
         id="stop823" />
    </linearGradient>
    <linearGradient
       id="980"
       gradientTransform="matrix(0,0,0,0,50.000042,870.0003)"
       osb:paint="solid"
       xlink:href="#984">
      <stop
         style="stop-color:#1abc9c;stop-opacity:1;"
         offset="0"
         id="stop817" />
    </linearGradient>
  </defs>
  <sodipodi:namedview
     id="base"
     pagecolor="#ffffff"
     bordercolor="#666666"
     borderopacity="1.0"
     inkscape:pageopacity="0.0"
     inkscape:pageshadow="2"
     inkscape:zoom="0.84740375"
     inkscape:cx="374.17033"
     inkscape:cy="756.09288"
     inkscape:document-units="mm"
     inkscape:current-layer="layer1"
     showgrid="false"
     inkscape:window-width="1600"
     inkscape:window-height="838"
     inkscape:window-x="-8"
     inkscape:window-y="-8"
     inkscape:window-maximized="1"
     inkscape:measure-start="211,1035.5"
     inkscape:measure-end="319,996" />
  <metadata
     id="metadata5">
    <rdf:RDF>
      <cc:Work
         rdf:about="">
        <dc:format>image/svg+xml</dc:format>
        <dc:type
           rdf:resource="http://purl.org/dc/dcmitype/StillImage" />
        <dc:title />
      </cc:Work>
    </rdf:RDF>
  </metadata>
  <g
     inkscape:label="Layer 1"
     inkscape:groupmode="layer"
     id="layer1">
    <g
       aria-label="INFCORE"
       style="font-style:normal;font-variant:normal;font-weight:normal;font-stretch:normal;font-size:24.68510246px;line-height:1.25;font-family:'MV Boli';-inkscape-font-specification:'MV Boli, Normal';font-variant-ligatures:normal;font-variant-caps:normal;font-variant-numeric:normal;font-feature-settings:normal;text-align:start;letter-spacing:0px;word-spacing:0px;writing-mode:lr-tb;text-anchor:start;fill:url(#989);fill-opacity:1;stroke:url(#989);stroke-width:1.35105388;stroke-miterlimit:4;stroke-dasharray:none"
       id="text964"
       transform="matrix(1.1102444,0,0,1.1102444,-9.5203269,0.43072406)">
      <path
         d="m 51.831935,101.90408 q 0.108479,-0.47007 0.253119,-1.03658 0.156692,-0.57855 0.325438,-1.193272 0.180799,-0.614717 0.361598,-1.241487 0.180799,-0.62677 0.349545,-1.205327 0.180799,-0.578557 0.325438,-1.072741 0.14464,-0.506238 0.253119,-0.855783 0.229012,-0.783462 0.433918,-1.566925 0.204906,-0.795516 0.397758,-1.663352 0.241065,-0.470077 0.650877,-0.66293 0.409811,-0.204905 0.891942,-0.204905 0.385705,0.204905 0.602664,0.566504 0.229012,0.349544 0.229012,0.795515 0,0.313386 -0.10848,0.723197 -0.09643,0.397758 -0.253118,0.867835 -0.156693,0.458025 -0.349545,0.976316 -0.192853,0.506237 -0.373652,1.048634 -0.337491,0.988369 -0.674983,1.976737 -0.337492,0.988368 -0.66293,2.085214 -0.08437,0.28928 -0.180799,0.57856 -0.09643,0.28928 -0.204906,0.62677 -0.09643,0.33749 -0.216959,0.75936 -0.120532,0.40981 -0.241065,0.9522 -0.144639,0.63883 -0.253119,1.2897 -0.108479,0.63883 -0.204906,1.2897 -0.09643,0.65088 -0.216958,1.31381 -0.120533,0.66293 -0.289279,1.33791 -0.06027,0.24107 -0.216959,0.43392 -0.144639,0.1808 -0.337492,0.31339 -0.192852,0.13258 -0.409811,0.2049 -0.216959,0.0723 -0.409811,0.0723 -0.192852,0 -0.373652,-0.0362 -0.168745,-0.0241 -0.265172,-0.13258 -0.144639,-0.1567 -0.229012,-0.34955 -0.08437,-0.19285 -0.08437,-0.40981 0,-0.0603 0,-0.10848 0.01205,-0.0603 0.02411,-0.12053 z"
         style="font-style:normal;font-variant:normal;font-weight:normal;font-stretch:normal;font-size:24.68510246px;font-family:'MV Boli';-inkscape-font-specification:'MV Boli, Normal';font-variant-ligatures:normal;font-variant-caps:normal;font-variant-numeric:normal;font-feature-settings:normal;text-align:start;writing-mode:lr-tb;text-anchor:start;fill:url(#989);stroke-width:1.35105388;stroke:url(#989);stroke-miterlimit:4;stroke-dasharray:none"
         id="path966"
         inkscape:connector-curvature="0" />
      <path
         d="m 61.245541,94.238202 q 0.07232,-0.313385 0.180799,-0.66293 0.108479,-0.361598 0.289279,-0.650876 0.180799,-0.301332 0.470077,-0.494185 0.289279,-0.204905 0.73525,-0.204905 0.421864,0 0.747303,0.241065 0.337491,0.229012 0.602663,0.470078 0.313385,0.204906 0.602664,0.831676 0.289278,0.62677 0.59061,1.542819 0.313385,0.916048 0.66293,2.073163 0.361598,1.157114 0.783463,2.422707 0.433918,1.265596 0.964262,2.591456 0.530344,1.3138 1.205327,2.56735 0.10848,0.19285 0.253119,0.45802 0.144639,0.25312 0.289278,0.48213 0.156693,0.22901 0.277226,0.38571 0.132586,0.15669 0.192852,0.15669 0.03616,0 0.08437,-0.1808 0.04821,-0.1808 0.108479,-0.43392 0.06027,-0.25312 0.120533,-0.51829 0.07232,-0.26517 0.132586,-0.43392 0.229012,-0.55445 0.494184,-1.26559 0.277226,-0.7232 0.602664,-1.73567 0.337492,-1.02453 0.73525,-2.422711 0.397758,-1.398179 0.879888,-3.31465 0.120533,-0.470077 0.253119,-1.060688 0.144639,-0.602663 0.265172,-1.21738 0.132586,-0.62677 0.229012,-1.217381 0.09643,-0.59061 0.132586,-1.024528 0,-0.07232 0.01205,-0.253118 0.01205,-0.1808 0.03616,-0.409812 0.03616,-0.229012 0.08437,-0.470077 0.04821,-0.253119 0.120533,-0.458025 0.08437,-0.204905 0.204906,-0.337491 0.120532,-0.132586 0.289278,-0.132586 0.168746,0 0.409812,0.04821 0.253118,0.04821 0.458024,0.144639 0.229012,0.313385 0.409811,0.759356 0.192853,0.433918 0.192853,1.181221 0,0.470078 -0.09643,1.133007 -0.09643,0.650877 -0.253118,1.410233 -0.14464,0.747303 -0.337492,1.542819 -0.180799,0.795516 -0.373651,1.530766 -0.192853,0.723196 -0.373652,1.337913 -0.168746,0.602664 -0.289278,1.000422 -0.216959,0.699091 -0.458025,1.446391 -0.229012,0.73525 -0.518291,1.55488 -0.277225,0.80757 -0.614716,1.72361 -0.325439,0.904 -0.73525,1.94058 -0.180799,0.47008 -0.421865,0.94016 -0.229012,0.47007 -0.530344,0.85578 -0.301331,0.37365 -0.687036,0.61472 -0.373652,0.22901 -0.843729,0.22901 -0.277226,0 -0.578557,-0.0844 -0.289279,-0.0723 -0.494185,-0.31339 -0.988368,-1.14506 -1.759777,-2.59145 -0.77141,-1.45845 -1.386127,-3.03743 -0.602663,-1.59103 -1.072741,-3.206172 -0.470078,-1.627191 -0.855782,-3.109744 l -0.07232,-0.277225 q -0.04821,-0.168746 -0.09643,-0.337492 -0.03616,-0.180799 -0.08437,-0.325438 -0.03616,-0.144639 -0.09643,-0.229012 -0.04821,-0.09643 -0.120533,-0.09643 -0.07232,0 -0.180799,0.265172 -0.108479,0.265172 -0.216959,0.602664 -0.108479,0.325438 -0.204906,0.638824 -0.08437,0.313385 -0.108479,0.397758 -0.08437,0.313385 -0.253119,0.903995 -0.168746,0.578557 -0.385704,1.313807 -0.204906,0.735243 -0.458025,1.554863 -0.241065,0.81963 -0.470077,1.59104 -0.229013,0.75935 -0.433918,1.41023 -0.204906,0.65088 -0.337492,1.04863 -0.108479,0.31339 -0.265172,0.80757 -0.156692,0.49419 -0.313385,1.00043 -0.156693,0.49418 -0.289279,0.90399 -0.132586,0.40981 -0.168745,0.5424 -0.14464,0.45802 -0.433918,0.68703 -0.277225,0.24107 -0.566504,0.24107 -0.180799,0 -0.361598,-0.13259 -0.180799,-0.12053 -0.325439,-0.30133 -0.132586,-0.1808 -0.229012,-0.3857 -0.08437,-0.21696 -0.08437,-0.38571 0,-0.0964 0.06027,-0.30133 0.06027,-0.21696 0.192852,-0.7232 l 0.313385,-1.24148 z m 3.953473,-3.061531 z"
         style="font-style:normal;font-variant:normal;font-weight:normal;font-stretch:normal;font-size:24.68510246px;font-family:'MV Boli';-inkscape-font-specification:'MV Boli, Normal';font-variant-ligatures:normal;font-variant-caps:normal;font-variant-numeric:normal;font-feature-settings:normal;text-align:start;writing-mode:lr-tb;text-anchor:start;fill:url(#989);stroke-width:1.35105388;stroke:url(#989);stroke-miterlimit:4;stroke-dasharray:none"
         id="path968"
         inkscape:connector-curvature="0" />
      <path
         d="m 82.664207,95.805128 q -0.09643,0.144639 -0.253119,0.506237 -0.144639,0.349545 -0.313385,0.819623 -0.156693,0.458024 -0.325439,0.976315 -0.156692,0.518291 -0.301331,0.976315 -0.132586,0.445971 -0.229013,0.795516 -0.09643,0.337496 -0.120532,0.445976 -0.02411,0.13258 -0.09643,0.39775 -0.06027,0.26518 -0.10848,0.45803 1.349967,-0.45803 2.663773,-0.75936 1.32586,-0.30133 2.65172,-0.30133 0.204906,0 0.542398,0.0121 0.337491,0.0121 0.66293,0.0964 0.325438,0.0723 0.55445,0.24106 0.241066,0.16875 0.241066,0.48214 0,0.0121 -0.01205,0.15669 -0.01205,0.13258 -0.07232,0.31338 -0.06027,0.1808 -0.192853,0.3616 -0.120532,0.1808 -0.337491,0.26517 -0.132586,-0.0121 -0.265172,-0.0121 -0.120533,0 -0.253119,0 -0.855782,0 -1.723618,0.15669 -0.855782,0.14464 -1.735671,0.40981 -0.867836,0.25312 -1.735672,0.61472 -0.867835,0.34955 -1.735671,0.7473 l -1.21738,5.26728 q -0.02411,0.20491 -0.204906,0.3616 -0.168746,0.16875 -0.337492,0.16875 h -0.289278 q -0.458025,0 -0.638824,-0.37365 -0.168745,-0.37366 -0.168745,-0.96427 0,-0.49418 0.08437,-1.07274 0.08437,-0.59061 0.192853,-1.14506 0.108479,-0.55445 0.192852,-1.01247 0.08437,-0.45803 0.08437,-0.69909 -0.144639,-0.20491 -0.289278,-0.43392 -0.14464,-0.22901 -0.14464,-0.5665 0,-0.53035 0.277226,-0.84373 0.277225,-0.31339 0.735249,-0.61472 0.04821,-0.0362 0.09643,-0.13259 0.06027,-0.0964 0.09643,-0.21696 0.04821,-0.12053 0.07232,-0.24106 0.03616,-0.12053 0.06027,-0.20491 l 0.494184,-1.783881 q 0.289278,-1.048634 0.51829,-1.832097 0.229013,-0.795516 0.421865,-1.422286 0.192852,-0.62677 0.349545,-1.120955 0.168746,-0.506237 0.325438,-0.976315 0.04821,-0.156692 0.156693,-0.445971 0.120533,-0.289278 0.277225,-0.566504 0.168746,-0.277225 0.373652,-0.48213 0.204905,-0.204906 0.445971,-0.204906 0.542397,0 0.735249,0.09643 0.204906,0.08437 0.265172,0.229012 l 0.10848,0.265172 q 0.192852,-0.02411 0.542397,-0.08437 0.361598,-0.07232 0.73525,-0.156692 0.385704,-0.08437 0.711143,-0.156693 0.325438,-0.08437 0.470077,-0.132586 0.80757,-0.216959 1.482553,-0.373651 0.674983,-0.156693 1.277647,-0.253119 0.602663,-0.108479 1.157114,-0.156692 0.554451,-0.04821 1.120954,-0.04821 0.265172,0 0.494185,0.02411 0.229012,0.02411 0.385704,0.09643 0.168746,0.06027 0.265172,0.192853 0.09643,0.120532 0.09643,0.325438 0,0.108479 -0.04821,0.277225 -0.04821,0.156693 -0.156692,0.325439 -0.10848,0.156692 -0.301332,0.301331 -0.180799,0.14464 -0.458024,0.216959 -0.08437,0.02411 -0.301332,0.07232 -0.216959,0.03616 -0.506238,0.08437 -0.277225,0.04821 -0.602663,0.108479 -0.313385,0.04821 -0.602664,0.09643 -0.458024,0.10848 -1.036581,0.241066 -0.566504,0.120533 -1.193274,0.277225 -0.614717,0.156693 -1.241487,0.337492 -0.626771,0.180799 -1.181221,0.373651 -0.554451,0.192853 -1.000422,0.397758 -0.433918,0.204906 -0.687036,0.421865 z"
         style="font-style:normal;font-variant:normal;font-weight:normal;font-stretch:normal;font-size:24.68510246px;font-family:'MV Boli';-inkscape-font-specification:'MV Boli, Normal';font-variant-ligatures:normal;font-variant-caps:normal;font-variant-numeric:normal;font-feature-settings:normal;text-align:start;writing-mode:lr-tb;text-anchor:start;fill:url(#989);stroke-width:1.35105388;stroke:url(#989);stroke-miterlimit:4;stroke-dasharray:none"
         id="path970"
         inkscape:connector-curvature="0" />
      <path
         d="m 90.89659,103.68797 q 0,-0.69909 0.168745,-1.57898 0.168746,-0.89194 0.590611,-1.72362 0.578557,-1.157113 1.2897,-2.229854 0.711143,-1.084795 1.458446,-1.98879 0.747303,-0.916049 1.494606,-1.615139 0.747303,-0.711143 1.422286,-1.108901 l -0.01205,0.01205 q 0.421864,-0.265172 0.891942,-0.554451 0.470077,-0.289278 0.964262,-0.530344 0.494184,-0.241065 1.000422,-0.397758 0.50623,-0.156692 1.00042,-0.156692 0.50624,0 0.96426,0.204905 0.45802,0.204906 0.79552,0.566504 0.34954,0.349545 0.54239,0.819623 0.20491,0.470077 0.20491,1.000421 0,0.373652 -0.0482,0.590611 -0.0362,0.204905 -0.13259,0.313385 -0.0844,0.108479 -0.22901,0.132586 -0.13259,0.02411 -0.31339,0.02411 -0.26517,0 -0.42186,-0.108479 -0.14464,-0.120533 -0.24107,-0.277226 -0.0844,-0.168745 -0.13258,-0.361598 -0.0482,-0.204905 -0.12054,-0.361598 -0.0603,-0.168746 -0.16874,-0.277225 -0.0964,-0.120533 -0.27723,-0.120533 -0.48213,0 -1.04863,0.216959 -0.55445,0.216959 -1.14506,0.578557 -0.578557,0.361598 -1.169168,0.831676 -0.578557,0.458024 -1.108901,0.940155 -0.530344,0.482131 -0.988368,0.952209 -0.445971,0.470077 -0.77141,0.843729 -0.48213,0.614717 -0.879888,1.25354 -0.397758,0.626768 -0.687037,1.289698 -0.289279,0.65088 -0.445971,1.34997 -0.156693,0.68704 -0.156693,1.43434 0,0.57856 0.156693,1.01247 0.168746,0.43392 0.361598,0.74731 0.229012,0.36159 0.566504,0.50623 0.337492,0.13259 0.807569,0.13259 1.024528,0 1.892364,-0.19285 0.867836,-0.19286 1.663352,-0.51829 0.795516,-0.32544 1.554866,-0.77141 0.75936,-0.44597 1.56693,-0.95221 h 0.31338 q 0.1567,0 0.31339,0.0844 0.16874,0.0844 0.28928,0.21696 0.13258,0.13259 0.2049,0.30133 0.0844,0.16875 0.0844,0.34955 0,0.39776 -0.31339,0.79551 -0.31338,0.38571 -0.80757,0.74731 -0.48213,0.34954 -1.09685,0.66293 -0.61471,0.31338 -1.217374,0.55445 -0.590611,0.24106 -1.108901,0.40981 -0.518291,0.16874 -0.831676,0.22901 -0.265172,0.0603 -0.518291,0.12053 -0.241065,0.0482 -0.578557,0.10848 -0.337492,0.0482 -0.807569,0.0844 -0.470078,0.0241 -1.181221,0.0241 -0.433918,0 -0.795516,-0.13258 -0.361598,-0.14464 -0.650877,-0.32544 -0.277225,-0.19286 -0.482131,-0.39776 -0.192852,-0.20491 -0.313385,-0.34955 -0.711143,-0.83167 -1.036581,-1.63924 -0.325438,-0.80757 -0.325438,-1.77183 z"
         style="font-style:normal;font-variant:normal;font-weight:normal;font-stretch:normal;font-size:24.68510246px;font-family:'MV Boli';-inkscape-font-specification:'MV Boli, Normal';font-variant-ligatures:normal;font-variant-caps:normal;font-variant-numeric:normal;font-feature-settings:normal;text-align:start;writing-mode:lr-tb;text-anchor:start;fill:url(#990);stroke-width:1.35105388;stroke:url(#990);stroke-miterlimit:4;stroke-dasharray:none"
         id="path972"
         inkscape:connector-curvature="0" />
      <path
         d="m 105.51721,102.68755 q 0.21696,-0.904 0.62677,-1.84415 0.40981,-0.952213 0.96426,-1.904421 0.55445,-0.952209 1.22944,-1.868258 0.68703,-0.928102 1.44639,-1.783884 0.77141,-0.867836 1.57898,-1.627192 0.81962,-0.771409 1.63924,-1.410233 0.38571,-0.265172 0.71115,-0.349544 0.32543,-0.08437 0.68703,-0.08437 0.38571,0 0.68704,0.120532 0.30133,0.10848 0.60266,0.409812 0.0964,0.108479 0.20491,0.192852 0.10848,0.08437 0.2049,0.08437 0.0241,0 0.0603,-0.04821 0.0362,-0.06027 0.0723,-0.132586 0.0482,-0.07232 0.10848,-0.14464 0.0603,-0.08437 0.14464,-0.120532 0.2049,-0.09643 0.48213,-0.120533 0.28928,-0.03616 0.57856,-0.03616 0.54239,0 1.04863,0.204906 0.50624,0.192852 0.89194,0.55445 0.91605,0.855783 1.38613,2.049057 0.48213,1.193274 0.48213,2.567347 0,1.229434 -0.3616,2.651717 -0.31338,1.25354 -0.90399,2.43476 -0.57856,1.18122 -1.37408,2.2178 -0.78346,1.03658 -1.75977,1.89237 -0.96427,0.85578 -2.06111,1.4705 -1.09685,0.61471 -2.29012,0.9522 -1.19328,0.34955 -2.42271,0.34955 -1.14506,0 -2.06111,-0.34955 -0.904,-0.34954 -1.54282,-0.98836 -0.62677,-0.63883 -0.96426,-1.51872 -0.32544,-0.87988 -0.32544,-1.95263 0,-0.45802 0.0482,-0.91604 0.0603,-0.47008 0.1808,-0.95221 z m 2.037,0.80757 q -0.13258,0.60266 -0.13258,1.08479 0,0.67498 0.22901,1.19327 0.24107,0.50624 0.66293,0.85579 0.43392,0.33749 1.02453,0.51829 0.60266,0.16874 1.31381,0.16874 0.84372,0 1.71156,-0.26517 0.87989,-0.26517 1.71156,-0.77141 0.83168,-0.50624 1.60309,-1.21738 0.77141,-0.71114 1.42229,-1.61514 0.66293,-0.90399 1.16916,-1.96468 0.51829,-1.06069 0.83168,-2.253963 0.12053,-0.433918 0.16874,-0.903995 0.0603,-0.470078 0.0603,-0.903996 0,-0.699089 -0.15669,-1.337913 -0.15669,-0.638823 -0.51829,-1.133008 -0.3616,-0.494184 -0.95221,-0.783462 -0.59061,-0.301332 -1.44639,-0.301332 -0.12054,0 -0.19286,0.108479 -0.0603,0.09643 -0.13258,0.253119 -0.0603,0.132586 -0.14464,0.277225 -0.0723,0.14464 -0.20491,0.265172 -0.12053,0.10848 -0.31338,0.180799 -0.1808,0.07232 -0.45803,0.07232 -0.2049,0 -0.36159,-0.08437 -0.1567,-0.09643 -0.31339,-0.253119 -0.0723,-0.07232 -0.12053,-0.108479 -0.0482,-0.04821 -0.10848,-0.04821 -0.10848,0 -0.28928,0.09643 -0.16875,0.09643 -0.3616,0.229012 -0.1808,0.132586 -0.3616,0.277226 -0.16874,0.144639 -0.26517,0.253118 -0.81962,0.843729 -1.63924,1.844151 -0.80757,0.988368 -1.49461,2.049056 -0.68704,1.06069 -1.20533,2.14548 -0.50623,1.07274 -0.73525,2.07317 z M 116.329,91.176671 Z"
         style="font-style:normal;font-variant:normal;font-weight:normal;font-stretch:normal;font-size:24.68510246px;font-family:'MV Boli';-inkscape-font-specification:'MV Boli, Normal';font-variant-ligatures:normal;font-variant-caps:normal;font-variant-numeric:normal;font-feature-settings:normal;text-align:start;writing-mode:lr-tb;text-anchor:start;fill:url(#983);stroke-width:1.35105388;stroke:url(#983);stroke-miterlimit:4;stroke-dasharray:none"
         id="path974"
         inkscape:connector-curvature="0" />
      <path
         d="m 123.22347,107.30395 q 0.68704,-2.7602 1.42228,-5.44808 0.73525,-2.699932 1.42229,-5.460132 0.0844,-0.361598 0.16875,-0.687036 0.0844,-0.325439 0.15669,-0.650877 0.0723,-0.325438 0.10848,-0.650877 0.0482,-0.337491 0.0482,-0.69909 0,-0.277225 -0.0362,-0.506237 -0.0362,-0.229012 -0.0362,-0.518291 0,-0.277225 0.0723,-0.59061 0.1808,-0.73525 0.50624,-1.096848 0.33749,-0.361598 1.01247,-0.361598 0.27723,0 0.53035,0.06027 0.26517,0.04821 0.51829,0.120533 0.27722,0.08437 0.5665,0.144639 0.30133,0.06027 0.60267,0.06027 0.24106,0 0.47007,-0.02411 0.22902,-0.02411 0.51829,-0.04821 0.30134,-0.02411 0.69909,-0.04821 0.40982,-0.02411 1.02453,-0.02411 0.33749,0 0.79552,0.02411 0.45802,0.02411 0.95221,0.108479 0.49418,0.08437 1.00042,0.253119 0.50624,0.156693 0.94015,0.433918 0.44598,0.277225 0.78347,0.687036 0.33749,0.397758 0.50623,0.964262 0.0844,0.277225 0.10848,0.506238 0.0362,0.229012 0.0362,0.445971 0,0.735249 -0.37365,1.446392 -0.42186,0.80757 -1.14506,1.518713 -0.71114,0.69909 -1.66335,1.32586 -0.37365,0.253119 -0.86784,0.530344 -0.49418,0.265172 -0.97631,0.518291 -0.47008,0.241065 -0.85578,0.445971 -0.37365,0.20491 -0.51829,0.31338 0.42186,0.20491 0.84372,0.43392 0.42187,0.21696 0.85579,0.53035 0.44597,0.31338 0.89194,0.75935 0.45802,0.44597 0.94015,1.09685 0.49419,0.63882 1.01248,1.51871 0.53034,0.87989 1.09685,2.07317 0.14464,0.28927 0.14464,0.61471 0,0.25312 -0.10848,0.50624 -0.0964,0.25312 -0.27723,0.45802 -0.16874,0.20491 -0.40981,0.3375 -0.24106,0.12053 -0.51829,0.12053 -0.42186,0 -0.69909,-0.31339 -0.27723,-0.31338 -0.53034,-0.81962 -0.25312,-0.50624 -0.53035,-1.14506 -0.26517,-0.63882 -0.66293,-1.2897 -0.43392,-0.69909 -0.96426,-1.32586 -0.51829,-0.62677 -1.1089,-1.08479 -0.59061,-0.45803 -1.21738,-0.7232 -0.62677,-0.27723 -1.25354,-0.27723 h -0.1808 q -0.37365,0 -0.67498,0.0723 -0.28928,0.0603 -0.56651,0.10848 -0.37365,-0.13258 -0.5424,-0.43391 -0.16874,-0.30134 -0.16874,-0.67499 v -0.16874 l -0.96426,3.79678 q -0.0482,0.1808 -0.13259,0.49418 -0.0844,0.31339 -0.19285,0.68704 -0.10848,0.37365 -0.22901,0.78346 -0.10848,0.40981 -0.21696,0.77141 -0.0964,0.3616 -0.1808,0.65088 -0.0723,0.28928 -0.10848,0.43391 -0.16875,0.30134 -0.43392,0.47008 -0.25312,0.1808 -0.55445,0.1808 -0.53034,0 -0.73525,-0.31338 -0.2049,-0.32544 -0.2049,-0.74731 0,-0.16874 0.0241,-0.33749 0.0241,-0.1808 0.0603,-0.33749 z m 5.91816,-13.596092 q -0.0723,0.241066 -0.21696,0.69909 -0.13259,0.458025 -0.30134,1.036582 -0.16874,0.578557 -0.36159,1.241487 -0.19286,0.66293 -0.38571,1.337913 -0.19285,0.66293 -0.37365,1.2897 -0.1808,0.62677 -0.32544,1.12095 0.24107,-0.31338 0.7232,-0.554446 0.48213,-0.253119 1.08479,-0.470078 0.47008,-0.168745 1.15712,-0.470077 0.68703,-0.313385 1.43434,-0.711143 0.75935,-0.397758 1.50666,-0.855783 0.75935,-0.470077 1.34996,-0.952208 0.60267,-0.494184 0.97632,-0.976315 0.37365,-0.494185 0.37365,-0.952209 0,-0.445971 -0.31339,-0.69909 -0.31338,-0.265172 -0.78346,-0.397758 -0.47008,-0.132586 -1.03658,-0.168746 -0.55445,-0.04821 -1.03658,-0.04821 -0.86784,0 -1.73567,0.10848 -0.86784,0.108479 -1.73567,0.421864 z"
         style="font-style:normal;font-variant:normal;font-weight:normal;font-stretch:normal;font-size:24.68510246px;font-family:'MV Boli';-inkscape-font-specification:'MV Boli, Normal';font-variant-ligatures:normal;font-variant-caps:normal;font-variant-numeric:normal;font-feature-settings:normal;text-align:start;writing-mode:lr-tb;text-anchor:start;fill:url(#990);stroke-width:1.35105388;stroke:url(#990);stroke-miterlimit:4;stroke-dasharray:none"
         id="path976"
         inkscape:connector-curvature="0" />
      <path
         d="m 140.14626,107.93072 q 0,-0.42186 0.12054,-0.89194 0.40981,-1.63925 0.95221,-3.20617 0.55445,-1.57898 1.00042,-3.13385 0.44597,-1.554876 0.73525,-2.615564 0.30133,-1.072741 0.53034,-1.832097 0.22901,-0.77141 0.42187,-1.32586 0.19285,-0.554451 0.42186,-1.096848 0.14464,-0.325438 0.31339,-0.674983 0.18079,-0.349545 0.3857,-0.638824 0.20491,-0.301331 0.42186,-0.48213 0.22902,-0.192853 0.47008,-0.192853 0.49419,0 0.7473,0.168746 0.26518,0.156693 0.32544,0.289278 l 0.10848,0.494185 q 0.1808,-0.01205 0.47008,-0.06027 0.28928,-0.06027 0.57856,-0.120532 0.30133,-0.06027 0.55445,-0.120533 0.25312,-0.06027 0.3857,-0.10848 0.79552,-0.216958 1.4705,-0.373651 0.67499,-0.156693 1.27765,-0.253119 0.61472,-0.108479 1.16917,-0.156692 0.55445,-0.04821 1.12095,-0.04821 0.55445,0 0.904,0.06027 0.34954,0.06027 0.55445,0.168746 0.2049,0.09643 0.27722,0.241065 0.0844,0.132586 0.0844,0.289279 0,0.144639 -0.0844,0.313385 -0.0723,0.156692 -0.25312,0.301332 -0.1808,0.144639 -0.47007,0.253118 -0.28928,0.10848 -0.7232,0.14464 -0.10848,0.02411 -0.50624,0.09643 -0.3857,0.06027 -0.84373,0.144639 -0.45802,0.07232 -0.86783,0.144639 -0.40981,0.07232 -0.56651,0.10848 h 0.0121 q -0.0723,0.01205 -0.34955,0.09643 -0.26517,0.07232 -0.65088,0.180799 -0.3857,0.09643 -0.84372,0.229012 -0.44598,0.132586 -0.89195,0.265172 -0.43391,0.120533 -0.80757,0.241066 -0.37365,0.108479 -0.60266,0.180799 -0.73525,0.289278 -1.15711,0.771409 -0.40981,0.470078 -0.65088,1.060688 -0.0482,0.10848 -0.14464,0.373652 -0.0964,0.253118 -0.21696,0.59061 -0.10848,0.325438 -0.24106,0.69909 -0.13259,0.373651 -0.25312,0.711143 -0.12054,0.337492 -0.21696,0.614717 -0.0844,0.277227 -0.12053,0.409807 -0.0362,0.12053 -0.0482,0.21696 -0.012,0.0964 -0.012,0.14464 0,0.0723 0.0362,0.0723 0.1808,0 0.7473,-0.15669 0.57856,-0.16875 1.33792,-0.40981 0.7714,-0.241067 1.63924,-0.518293 0.87989,-0.277225 1.67541,-0.51829 0.80756,-0.241066 1.43433,-0.397758 0.62678,-0.168746 0.904,-0.168746 0.42186,0 0.5665,0.144639 0.14464,0.132586 0.14464,0.301332 0,0.433918 -0.31338,0.759356 -0.30133,0.32544 -0.75936,0.5665 -0.14464,0.0723 -0.5424,0.21696 -0.3857,0.13259 -0.84372,0.27723 -0.44598,0.14464 -0.85579,0.27722 -0.40981,0.13259 -0.59061,0.19285 -1.18122,0.45803 -1.92852,0.75936 -0.73525,0.28928 -1.19327,0.48213 -0.45803,0.1808 -0.71115,0.27723 -0.24106,0.0964 -0.45802,0.16874 -0.20491,0.0603 -0.45803,0.12053 -0.25312,0.0603 -0.69909,0.16875 -0.10848,0.25312 -0.25311,0.77141 -0.14464,0.50624 -0.27723,1.06069 -0.13259,0.5424 -0.22901,1.01247 -0.0844,0.47008 -0.0844,0.65088 0,0.21696 0.0603,0.32544 0.0603,0.0964 0.14464,0.13258 0.0844,0.0362 0.16875,0.0362 0.0844,0 0.13258,0 0.57856,0 1.38613,-0.16874 0.81962,-0.16875 1.61514,-0.44597 0.75935,-0.26518 1.32586,-0.57856 0.5665,-0.31339 1.06069,-0.57856 0.50623,-0.27722 0.97631,-0.45802 0.48213,-0.19285 1.04863,-0.20491 0.12054,0 0.27723,0.0241 0.16875,0.0241 0.31339,0.0964 0.14463,0.0603 0.22901,0.16874 0.0964,0.10848 0.0723,0.27723 -0.0482,0.34954 -0.34955,0.68703 -0.30133,0.33749 -0.75935,0.65088 -0.45803,0.31338 -1.02453,0.60266 -0.56651,0.28928 -1.15712,0.55445 -0.59061,0.25312 -1.15711,0.47008 -0.5665,0.20491 -1.01248,0.3616 -1.1089,0.3857 -2.15753,0.5665 -1.04864,0.1808 -1.88031,0.1808 -0.91605,0 -1.41023,-0.34954 -0.48214,-0.33749 -0.48214,-1.13301 z"
         style="font-style:normal;font-variant:normal;font-weight:normal;font-stretch:normal;font-size:24.68510246px;font-family:'MV Boli';-inkscape-font-specification:'MV Boli, Normal';font-variant-ligatures:normal;font-variant-caps:normal;font-variant-numeric:normal;font-feature-settings:normal;text-align:start;writing-mode:lr-tb;text-anchor:start;fill:url(#990);stroke-width:1.35105388;stroke:url(#990);stroke-miterlimit:4;stroke-dasharray:none"
         id="path978"
         inkscape:connector-curvature="0" />
    </g>
    <path
       style="fill:url(#988);fill-opacity:1;stroke:none;stroke-width:1.21040356;stroke-miterlimit:4;stroke-dasharray:none;stroke-opacity:1"
       d="m 273.44096,110.55786 v 130.00033 h 5.00021 29.99972 v -5.00021 H 278.44117 V 115.55807 h 29.99972 v -5.00021 h -29.99972 z"
       id="rect1170"
       inkscape:connector-curvature="0" />
    <path
       inkscape:connector-curvature="0"
       style="fill:url(#990);fill-opacity:1;stroke:none;stroke-width:1.21040356;stroke-miterlimit:4;stroke-dasharray:none;stroke-opacity:1"
       d="M 410.14089,240.55819 V 110.55785 h -5.00021 -29.99972 v 5.00021 h 29.99972 v 119.99992 h -29.99972 v 5.00021 h 29.99972 z"
       id="rect1170-7" />
    <ellipse
       style="fill:none;fill-opacity:1;stroke:url(#990);stroke-width:2;stroke-miterlimit:4;stroke-dasharray:none;stroke-opacity:1"
       id="path5079"
       cx="104.84592"
       cy="56.219898"
       rx="12.587523"
       ry="37.762569" />
    <ellipse
       style="fill:none;fill-opacity:1;stroke:url(#987);stroke-width:2;stroke-miterlimit:4;stroke-dasharray:none;stroke-opacity:1"
       id="path5079-3"
       cx="56.219898"
       cy="-104.84592"
       rx="12.587523"
       ry="37.762569"
       transform="rotate(90)" />
    <ellipse
       style="fill:none;fill-opacity:1;stroke:url(#988);stroke-width:2;stroke-miterlimit:4;stroke-dasharray:none;stroke-opacity:1"
       id="path5079-3-4"
       cx="-34.383789"
       cy="-113.89074"
       rx="12.587523"
       ry="37.762569"
       transform="rotate(135)" />
    <ellipse
       style="fill:none;fill-opacity:1;stroke:url(#983);stroke-width:2;stroke-miterlimit:4;stroke-dasharray:none;stroke-opacity:1;stroke-linecap:round"
       id="path5079-3-4-3"
       cx="-113.89074"
       cy="34.383789"
       rx="12.587523"
       ry="37.762569"
       transform="rotate(-135)" />
    <rect
       style="fill:url(#997);fill-opacity:1;stroke:none;stroke-width:2.0090704;stroke-linecap:square;stroke-miterlimit:4;stroke-dasharray:none;stroke-opacity:1"
       id="rect5140"
       width="207.94395"
       height="169.85213"
       x="0.62445629"
       y="125.27448" />
    <g
       aria-label="INFCORE"
       style="font-style:normal;font-variant:normal;font-weight:normal;font-stretch:normal;font-size:24.68510246px;line-height:1.25;font-family:'MV Boli';-inkscape-font-specification:'MV Boli, Normal';font-variant-ligatures:normal;font-variant-caps:normal;font-variant-numeric:normal;font-feature-settings:normal;text-align:start;letter-spacing:0px;word-spacing:0px;writing-mode:lr-tb;text-anchor:start;fill:url(#994);fill-opacity:1;stroke:url(#994);stroke-width:1.35105383;stroke-miterlimit:4;stroke-dasharray:none"
       id="text964-6"
       transform="matrix(1.1102444,0,0,1.1102444,-12.109485,132.26257)">
      <path
         d="m 51.831935,101.90408 q 0.108479,-0.47007 0.253119,-1.03658 0.156692,-0.57855 0.325438,-1.193272 0.180799,-0.614717 0.361598,-1.241487 0.180799,-0.62677 0.349545,-1.205327 0.180799,-0.578557 0.325438,-1.072741 0.14464,-0.506238 0.253119,-0.855783 0.229012,-0.783462 0.433918,-1.566925 0.204906,-0.795516 0.397758,-1.663352 0.241065,-0.470077 0.650877,-0.66293 0.409811,-0.204905 0.891942,-0.204905 0.385705,0.204905 0.602664,0.566504 0.229012,0.349544 0.229012,0.795515 0,0.313386 -0.10848,0.723197 -0.09643,0.397758 -0.253118,0.867835 -0.156693,0.458025 -0.349545,0.976316 -0.192853,0.506237 -0.373652,1.048634 -0.337491,0.988369 -0.674983,1.976737 -0.337492,0.988368 -0.66293,2.085214 -0.08437,0.28928 -0.180799,0.57856 -0.09643,0.28928 -0.204906,0.62677 -0.09643,0.33749 -0.216959,0.75936 -0.120532,0.40981 -0.241065,0.9522 -0.144639,0.63883 -0.253119,1.2897 -0.108479,0.63883 -0.204906,1.2897 -0.09643,0.65088 -0.216958,1.31381 -0.120533,0.66293 -0.289279,1.33791 -0.06027,0.24107 -0.216959,0.43392 -0.144639,0.1808 -0.337492,0.31339 -0.192852,0.13258 -0.409811,0.2049 -0.216959,0.0723 -0.409811,0.0723 -0.192852,0 -0.373652,-0.0362 -0.168745,-0.0241 -0.265172,-0.13258 -0.144639,-0.1567 -0.229012,-0.34955 -0.08437,-0.19285 -0.08437,-0.40981 0,-0.0603 0,-0.10848 0.01205,-0.0603 0.02411,-0.12053 z"
         style="font-style:normal;font-variant:normal;font-weight:normal;font-stretch:normal;font-size:24.68510246px;font-family:'MV Boli';-inkscape-font-specification:'MV Boli, Normal';font-variant-ligatures:normal;font-variant-caps:normal;font-variant-numeric:normal;font-feature-settings:normal;text-align:start;writing-mode:lr-tb;text-anchor:start;fill:url(#994);stroke:url(#994);stroke-width:1.35105383;stroke-miterlimit:4;stroke-dasharray:none"
         id="path966-3"
         inkscape:connector-curvature="0" />
      <path
         d="m 61.245541,94.238202 q 0.07232,-0.313385 0.180799,-0.66293 0.108479,-0.361598 0.289279,-0.650876 0.180799,-0.301332 0.470077,-0.494185 0.289279,-0.204905 0.73525,-0.204905 0.421864,0 0.747303,0.241065 0.337491,0.229012 0.602663,0.470078 0.313385,0.204906 0.602664,0.831676 0.289278,0.62677 0.59061,1.542819 0.313385,0.916048 0.66293,2.073163 0.361598,1.157114 0.783463,2.422707 0.433918,1.265596 0.964262,2.591456 0.530344,1.3138 1.205327,2.56735 0.10848,0.19285 0.253119,0.45802 0.144639,0.25312 0.289278,0.48213 0.156693,0.22901 0.277226,0.38571 0.132586,0.15669 0.192852,0.15669 0.03616,0 0.08437,-0.1808 0.04821,-0.1808 0.108479,-0.43392 0.06027,-0.25312 0.120533,-0.51829 0.07232,-0.26517 0.132586,-0.43392 0.229012,-0.55445 0.494184,-1.26559 0.277226,-0.7232 0.602664,-1.73567 0.337492,-1.02453 0.73525,-2.422711 0.397758,-1.398179 0.879888,-3.31465 0.120533,-0.470077 0.253119,-1.060688 0.144639,-0.602663 0.265172,-1.21738 0.132586,-0.62677 0.229012,-1.217381 0.09643,-0.59061 0.132586,-1.024528 0,-0.07232 0.01205,-0.253118 0.01205,-0.1808 0.03616,-0.409812 0.03616,-0.229012 0.08437,-0.470077 0.04821,-0.253119 0.120533,-0.458025 0.08437,-0.204905 0.204906,-0.337491 0.120532,-0.132586 0.289278,-0.132586 0.168746,0 0.409812,0.04821 0.253118,0.04821 0.458024,0.144639 0.229012,0.313385 0.409811,0.759356 0.192853,0.433918 0.192853,1.181221 0,0.470078 -0.09643,1.133007 -0.09643,0.650877 -0.253118,1.410233 -0.14464,0.747303 -0.337492,1.542819 -0.180799,0.795516 -0.373651,1.530766 -0.192853,0.723196 -0.373652,1.337913 -0.168746,0.602664 -0.289278,1.000422 -0.216959,0.699091 -0.458025,1.446391 -0.229012,0.73525 -0.518291,1.55488 -0.277225,0.80757 -0.614716,1.72361 -0.325439,0.904 -0.73525,1.94058 -0.180799,0.47008 -0.421865,0.94016 -0.229012,0.47007 -0.530344,0.85578 -0.301331,0.37365 -0.687036,0.61472 -0.373652,0.22901 -0.843729,0.22901 -0.277226,0 -0.578557,-0.0844 -0.289279,-0.0723 -0.494185,-0.31339 -0.988368,-1.14506 -1.759777,-2.59145 -0.77141,-1.45845 -1.386127,-3.03743 -0.602663,-1.59103 -1.072741,-3.206172 -0.470078,-1.627191 -0.855782,-3.109744 l -0.07232,-0.277225 q -0.04821,-0.168746 -0.09643,-0.337492 -0.03616,-0.180799 -0.08437,-0.325438 -0.03616,-0.144639 -0.09643,-0.229012 -0.04821,-0.09643 -0.120533,-0.09643 -0.07232,0 -0.180799,0.265172 -0.108479,0.265172 -0.216959,0.602664 -0.108479,0.325438 -0.204906,0.638824 -0.08437,0.313385 -0.108479,0.397758 -0.08437,0.313385 -0.253119,0.903995 -0.168746,0.578557 -0.385704,1.313807 -0.204906,0.735243 -0.458025,1.554863 -0.241065,0.81963 -0.470077,1.59104 -0.229013,0.75935 -0.433918,1.41023 -0.204906,0.65088 -0.337492,1.04863 -0.108479,0.31339 -0.265172,0.80757 -0.156692,0.49419 -0.313385,1.00043 -0.156693,0.49418 -0.289279,0.90399 -0.132586,0.40981 -0.168745,0.5424 -0.14464,0.45802 -0.433918,0.68703 -0.277225,0.24107 -0.566504,0.24107 -0.180799,0 -0.361598,-0.13259 -0.180799,-0.12053 -0.325439,-0.30133 -0.132586,-0.1808 -0.229012,-0.3857 -0.08437,-0.21696 -0.08437,-0.38571 0,-0.0964 0.06027,-0.30133 0.06027,-0.21696 0.192852,-0.7232 l 0.313385,-1.24148 z m 3.953473,-3.061531 z"
         style="font-style:normal;font-variant:normal;font-weight:normal;font-stretch:normal;font-size:24.68510246px;font-family:'MV Boli';-inkscape-font-specification:'MV Boli, Normal';font-variant-ligatures:normal;font-variant-caps:normal;font-variant-numeric:normal;font-feature-settings:normal;text-align:start;writing-mode:lr-tb;text-anchor:start;fill:url(#994);stroke:url(#994);stroke-width:1.35105383;stroke-miterlimit:4;stroke-dasharray:none"
         id="path968-2"
         inkscape:connector-curvature="0" />
      <path
         d="m 82.664207,95.805128 q -0.09643,0.144639 -0.253119,0.506237 -0.144639,0.349545 -0.313385,0.819623 -0.156693,0.458024 -0.325439,0.976315 -0.156692,0.518291 -0.301331,0.976315 -0.132586,0.445971 -0.229013,0.795516 -0.09643,0.337496 -0.120532,0.445976 -0.02411,0.13258 -0.09643,0.39775 -0.06027,0.26518 -0.10848,0.45803 1.349967,-0.45803 2.663773,-0.75936 1.32586,-0.30133 2.65172,-0.30133 0.204906,0 0.542398,0.0121 0.337491,0.0121 0.66293,0.0964 0.325438,0.0723 0.55445,0.24106 0.241066,0.16875 0.241066,0.48214 0,0.0121 -0.01205,0.15669 -0.01205,0.13258 -0.07232,0.31338 -0.06027,0.1808 -0.192853,0.3616 -0.120532,0.1808 -0.337491,0.26517 -0.132586,-0.0121 -0.265172,-0.0121 -0.120533,0 -0.253119,0 -0.855782,0 -1.723618,0.15669 -0.855782,0.14464 -1.735671,0.40981 -0.867836,0.25312 -1.735672,0.61472 -0.867835,0.34955 -1.735671,0.7473 l -1.21738,5.26728 q -0.02411,0.20491 -0.204906,0.3616 -0.168746,0.16875 -0.337492,0.16875 h -0.289278 q -0.458025,0 -0.638824,-0.37365 -0.168745,-0.37366 -0.168745,-0.96427 0,-0.49418 0.08437,-1.07274 0.08437,-0.59061 0.192853,-1.14506 0.108479,-0.55445 0.192852,-1.01247 0.08437,-0.45803 0.08437,-0.69909 -0.144639,-0.20491 -0.289278,-0.43392 -0.14464,-0.22901 -0.14464,-0.5665 0,-0.53035 0.277226,-0.84373 0.277225,-0.31339 0.735249,-0.61472 0.04821,-0.0362 0.09643,-0.13259 0.06027,-0.0964 0.09643,-0.21696 0.04821,-0.12053 0.07232,-0.24106 0.03616,-0.12053 0.06027,-0.20491 l 0.494184,-1.783881 q 0.289278,-1.048634 0.51829,-1.832097 0.229013,-0.795516 0.421865,-1.422286 0.192852,-0.62677 0.349545,-1.120955 0.168746,-0.506237 0.325438,-0.976315 0.04821,-0.156692 0.156693,-0.445971 0.120533,-0.289278 0.277225,-0.566504 0.168746,-0.277225 0.373652,-0.48213 0.204905,-0.204906 0.445971,-0.204906 0.542397,0 0.735249,0.09643 0.204906,0.08437 0.265172,0.229012 l 0.10848,0.265172 q 0.192852,-0.02411 0.542397,-0.08437 0.361598,-0.07232 0.73525,-0.156692 0.385704,-0.08437 0.711143,-0.156693 0.325438,-0.08437 0.470077,-0.132586 0.80757,-0.216959 1.482553,-0.373651 0.674983,-0.156693 1.277647,-0.253119 0.602663,-0.108479 1.157114,-0.156692 0.554451,-0.04821 1.120954,-0.04821 0.265172,0 0.494185,0.02411 0.229012,0.02411 0.385704,0.09643 0.168746,0.06027 0.265172,0.192853 0.09643,0.120532 0.09643,0.325438 0,0.108479 -0.04821,0.277225 -0.04821,0.156693 -0.156692,0.325439 -0.10848,0.156692 -0.301332,0.301331 -0.180799,0.14464 -0.458024,0.216959 -0.08437,0.02411 -0.301332,0.07232 -0.216959,0.03616 -0.506238,0.08437 -0.277225,0.04821 -0.602663,0.108479 -0.313385,0.04821 -0.602664,0.09643 -0.458024,0.10848 -1.036581,0.241066 -0.566504,0.120533 -1.193274,0.277225 -0.614717,0.156693 -1.241487,0.337492 -0.626771,0.180799 -1.181221,0.373651 -0.554451,0.192853 -1.000422,0.397758 -0.433918,0.204906 -0.687036,0.421865 z"
         style="font-style:normal;font-variant:normal;font-weight:normal;font-stretch:normal;font-size:24.68510246px;font-family:'MV Boli';-inkscape-font-specification:'MV Boli, Normal';font-variant-ligatures:normal;font-variant-caps:normal;font-variant-numeric:normal;font-feature-settings:normal;text-align:start;writing-mode:lr-tb;text-anchor:start;fill:url(#994);stroke:url(#994);stroke-width:1.35105383;stroke-miterlimit:4;stroke-dasharray:none"
         id="path970-0"
         inkscape:connector-curvature="0" />
      <path
         d="m 90.89659,103.68797 q 0,-0.69909 0.168745,-1.57898 0.168746,-0.89194 0.590611,-1.72362 0.578557,-1.157113 1.2897,-2.229854 0.711143,-1.084795 1.458446,-1.98879 0.747303,-0.916049 1.494606,-1.615139 0.747303,-0.711143 1.422286,-1.108901 l -0.01205,0.01205 q 0.421864,-0.265172 0.891942,-0.554451 0.470077,-0.289278 0.964262,-0.530344 0.494184,-0.241065 1.000422,-0.397758 0.50623,-0.156692 1.00042,-0.156692 0.50624,0 0.96426,0.204905 0.45802,0.204906 0.79552,0.566504 0.34954,0.349545 0.54239,0.819623 0.20491,0.470077 0.20491,1.000421 0,0.373652 -0.0482,0.590611 -0.0362,0.204905 -0.13259,0.313385 -0.0844,0.108479 -0.22901,0.132586 -0.13259,0.02411 -0.31339,0.02411 -0.26517,0 -0.42186,-0.108479 -0.14464,-0.120533 -0.24107,-0.277226 -0.0844,-0.168745 -0.13258,-0.361598 -0.0482,-0.204905 -0.12054,-0.361598 -0.0603,-0.168746 -0.16874,-0.277225 -0.0964,-0.120533 -0.27723,-0.120533 -0.48213,0 -1.04863,0.216959 -0.55445,0.216959 -1.14506,0.578557 -0.578557,0.361598 -1.169168,0.831676 -0.578557,0.458024 -1.108901,0.940155 -0.530344,0.482131 -0.988368,0.952209 -0.445971,0.470077 -0.77141,0.843729 -0.48213,0.614717 -0.879888,1.25354 -0.397758,0.626768 -0.687037,1.289698 -0.289279,0.65088 -0.445971,1.34997 -0.156693,0.68704 -0.156693,1.43434 0,0.57856 0.156693,1.01247 0.168746,0.43392 0.361598,0.74731 0.229012,0.36159 0.566504,0.50623 0.337492,0.13259 0.807569,0.13259 1.024528,0 1.892364,-0.19285 0.867836,-0.19286 1.663352,-0.51829 0.795516,-0.32544 1.554866,-0.77141 0.75936,-0.44597 1.56693,-0.95221 h 0.31338 q 0.1567,0 0.31339,0.0844 0.16874,0.0844 0.28928,0.21696 0.13258,0.13259 0.2049,0.30133 0.0844,0.16875 0.0844,0.34955 0,0.39776 -0.31339,0.79551 -0.31338,0.38571 -0.80757,0.74731 -0.48213,0.34954 -1.09685,0.66293 -0.61471,0.31338 -1.217374,0.55445 -0.590611,0.24106 -1.108901,0.40981 -0.518291,0.16874 -0.831676,0.22901 -0.265172,0.0603 -0.518291,0.12053 -0.241065,0.0482 -0.578557,0.10848 -0.337492,0.0482 -0.807569,0.0844 -0.470078,0.0241 -1.181221,0.0241 -0.433918,0 -0.795516,-0.13258 -0.361598,-0.14464 -0.650877,-0.32544 -0.277225,-0.19286 -0.482131,-0.39776 -0.192852,-0.20491 -0.313385,-0.34955 -0.711143,-0.83167 -1.036581,-1.63924 -0.325438,-0.80757 -0.325438,-1.77183 z"
         style="font-style:normal;font-variant:normal;font-weight:normal;font-stretch:normal;font-size:24.68510246px;font-family:'MV Boli';-inkscape-font-specification:'MV Boli, Normal';font-variant-ligatures:normal;font-variant-caps:normal;font-variant-numeric:normal;font-feature-settings:normal;text-align:start;writing-mode:lr-tb;text-anchor:start;fill:url(#994);stroke:url(#994);stroke-width:1.35105383;stroke-miterlimit:4;stroke-dasharray:none"
         id="path972-1"
         inkscape:connector-curvature="0" />
      <path
         d="m 105.51721,102.68755 q 0.21696,-0.904 0.62677,-1.84415 0.40981,-0.952213 0.96426,-1.904421 0.55445,-0.952209 1.22944,-1.868258 0.68703,-0.928102 1.44639,-1.783884 0.77141,-0.867836 1.57898,-1.627192 0.81962,-0.771409 1.63924,-1.410233 0.38571,-0.265172 0.71115,-0.349544 0.32543,-0.08437 0.68703,-0.08437 0.38571,0 0.68704,0.120532 0.30133,0.10848 0.60266,0.409812 0.0964,0.108479 0.20491,0.192852 0.10848,0.08437 0.2049,0.08437 0.0241,0 0.0603,-0.04821 0.0362,-0.06027 0.0723,-0.132586 0.0482,-0.07232 0.10848,-0.14464 0.0603,-0.08437 0.14464,-0.120532 0.2049,-0.09643 0.48213,-0.120533 0.28928,-0.03616 0.57856,-0.03616 0.54239,0 1.04863,0.204906 0.50624,0.192852 0.89194,0.55445 0.91605,0.855783 1.38613,2.049057 0.48213,1.193274 0.48213,2.567347 0,1.229434 -0.3616,2.651717 -0.31338,1.25354 -0.90399,2.43476 -0.57856,1.18122 -1.37408,2.2178 -0.78346,1.03658 -1.75977,1.89237 -0.96427,0.85578 -2.06111,1.4705 -1.09685,0.61471 -2.29012,0.9522 -1.19328,0.34955 -2.42271,0.34955 -1.14506,0 -2.06111,-0.34955 -0.904,-0.34954 -1.54282,-0.98836 -0.62677,-0.63883 -0.96426,-1.51872 -0.32544,-0.87988 -0.32544,-1.95263 0,-0.45802 0.0482,-0.91604 0.0603,-0.47008 0.1808,-0.95221 z m 2.037,0.80757 q -0.13258,0.60266 -0.13258,1.08479 0,0.67498 0.22901,1.19327 0.24107,0.50624 0.66293,0.85579 0.43392,0.33749 1.02453,0.51829 0.60266,0.16874 1.31381,0.16874 0.84372,0 1.71156,-0.26517 0.87989,-0.26517 1.71156,-0.77141 0.83168,-0.50624 1.60309,-1.21738 0.77141,-0.71114 1.42229,-1.61514 0.66293,-0.90399 1.16916,-1.96468 0.51829,-1.06069 0.83168,-2.253963 0.12053,-0.433918 0.16874,-0.903995 0.0603,-0.470078 0.0603,-0.903996 0,-0.699089 -0.15669,-1.337913 -0.15669,-0.638823 -0.51829,-1.133008 -0.3616,-0.494184 -0.95221,-0.783462 -0.59061,-0.301332 -1.44639,-0.301332 -0.12054,0 -0.19286,0.108479 -0.0603,0.09643 -0.13258,0.253119 -0.0603,0.132586 -0.14464,0.277225 -0.0723,0.14464 -0.20491,0.265172 -0.12053,0.10848 -0.31338,0.180799 -0.1808,0.07232 -0.45803,0.07232 -0.2049,0 -0.36159,-0.08437 -0.1567,-0.09643 -0.31339,-0.253119 -0.0723,-0.07232 -0.12053,-0.108479 -0.0482,-0.04821 -0.10848,-0.04821 -0.10848,0 -0.28928,0.09643 -0.16875,0.09643 -0.3616,0.229012 -0.1808,0.132586 -0.3616,0.277226 -0.16874,0.144639 -0.26517,0.253118 -0.81962,0.843729 -1.63924,1.844151 -0.80757,0.988368 -1.49461,2.049056 -0.68704,1.06069 -1.20533,2.14548 -0.50623,1.07274 -0.73525,2.07317 z M 116.329,91.176671 Z"
         style="font-style:normal;font-variant:normal;font-weight:normal;font-stretch:normal;font-size:24.68510246px;font-family:'MV Boli';-inkscape-font-specification:'MV Boli, Normal';font-variant-ligatures:normal;font-variant-caps:normal;font-variant-numeric:normal;font-feature-settings:normal;text-align:start;writing-mode:lr-tb;text-anchor:start;fill:url(#994);stroke:url(#994);stroke-width:1.35105383;stroke-miterlimit:4;stroke-dasharray:none"
         id="path974-8"
         inkscape:connector-curvature="0" />
      <path
         d="m 123.22347,107.30395 q 0.68704,-2.7602 1.42228,-5.44808 0.73525,-2.699932 1.42229,-5.460132 0.0844,-0.361598 0.16875,-0.687036 0.0844,-0.325439 0.15669,-0.650877 0.0723,-0.325438 0.10848,-0.650877 0.0482,-0.337491 0.0482,-0.69909 0,-0.277225 -0.0362,-0.506237 -0.0362,-0.229012 -0.0362,-0.518291 0,-0.277225 0.0723,-0.59061 0.1808,-0.73525 0.50624,-1.096848 0.33749,-0.361598 1.01247,-0.361598 0.27723,0 0.53035,0.06027 0.26517,0.04821 0.51829,0.120533 0.27722,0.08437 0.5665,0.144639 0.30133,0.06027 0.60267,0.06027 0.24106,0 0.47007,-0.02411 0.22902,-0.02411 0.51829,-0.04821 0.30134,-0.02411 0.69909,-0.04821 0.40982,-0.02411 1.02453,-0.02411 0.33749,0 0.79552,0.02411 0.45802,0.02411 0.95221,0.108479 0.49418,0.08437 1.00042,0.253119 0.50624,0.156693 0.94015,0.433918 0.44598,0.277225 0.78347,0.687036 0.33749,0.397758 0.50623,0.964262 0.0844,0.277225 0.10848,0.506238 0.0362,0.229012 0.0362,0.445971 0,0.735249 -0.37365,1.446392 -0.42186,0.80757 -1.14506,1.518713 -0.71114,0.69909 -1.66335,1.32586 -0.37365,0.253119 -0.86784,0.530344 -0.49418,0.265172 -0.97631,0.518291 -0.47008,0.241065 -0.85578,0.445971 -0.37365,0.20491 -0.51829,0.31338 0.42186,0.20491 0.84372,0.43392 0.42187,0.21696 0.85579,0.53035 0.44597,0.31338 0.89194,0.75935 0.45802,0.44597 0.94015,1.09685 0.49419,0.63882 1.01248,1.51871 0.53034,0.87989 1.09685,2.07317 0.14464,0.28927 0.14464,0.61471 0,0.25312 -0.10848,0.50624 -0.0964,0.25312 -0.27723,0.45802 -0.16874,0.20491 -0.40981,0.3375 -0.24106,0.12053 -0.51829,0.12053 -0.42186,0 -0.69909,-0.31339 -0.27723,-0.31338 -0.53034,-0.81962 -0.25312,-0.50624 -0.53035,-1.14506 -0.26517,-0.63882 -0.66293,-1.2897 -0.43392,-0.69909 -0.96426,-1.32586 -0.51829,-0.62677 -1.1089,-1.08479 -0.59061,-0.45803 -1.21738,-0.7232 -0.62677,-0.27723 -1.25354,-0.27723 h -0.1808 q -0.37365,0 -0.67498,0.0723 -0.28928,0.0603 -0.56651,0.10848 -0.37365,-0.13258 -0.5424,-0.43391 -0.16874,-0.30134 -0.16874,-0.67499 v -0.16874 l -0.96426,3.79678 q -0.0482,0.1808 -0.13259,0.49418 -0.0844,0.31339 -0.19285,0.68704 -0.10848,0.37365 -0.22901,0.78346 -0.10848,0.40981 -0.21696,0.77141 -0.0964,0.3616 -0.1808,0.65088 -0.0723,0.28928 -0.10848,0.43391 -0.16875,0.30134 -0.43392,0.47008 -0.25312,0.1808 -0.55445,0.1808 -0.53034,0 -0.73525,-0.31338 -0.2049,-0.32544 -0.2049,-0.74731 0,-0.16874 0.0241,-0.33749 0.0241,-0.1808 0.0603,-0.33749 z m 5.91816,-13.596092 q -0.0723,0.241066 -0.21696,0.69909 -0.13259,0.458025 -0.30134,1.036582 -0.16874,0.578557 -0.36159,1.241487 -0.19286,0.66293 -0.38571,1.337913 -0.19285,0.66293 -0.37365,1.2897 -0.1808,0.62677 -0.32544,1.12095 0.24107,-0.31338 0.7232,-0.554446 0.48213,-0.253119 1.08479,-0.470078 0.47008,-0.168745 1.15712,-0.470077 0.68703,-0.313385 1.43434,-0.711143 0.75935,-0.397758 1.50666,-0.855783 0.75935,-0.470077 1.34996,-0.952208 0.60267,-0.494184 0.97632,-0.976315 0.37365,-0.494185 0.37365,-0.952209 0,-0.445971 -0.31339,-0.69909 -0.31338,-0.265172 -0.78346,-0.397758 -0.47008,-0.132586 -1.03658,-0.168746 -0.55445,-0.04821 -1.03658,-0.04821 -0.86784,0 -1.73567,0.10848 -0.86784,0.108479 -1.73567,0.421864 z"
         style="font-style:normal;font-variant:normal;font-weight:normal;font-stretch:normal;font-size:24.68510246px;font-family:'MV Boli';-inkscape-font-specification:'MV Boli, Normal';font-variant-ligatures:normal;font-variant-caps:normal;font-variant-numeric:normal;font-feature-settings:normal;text-align:start;writing-mode:lr-tb;text-anchor:start;fill:url(#994);stroke:url(#994);stroke-width:1.35105383;stroke-miterlimit:4;stroke-dasharray:none"
         id="path976-9"
         inkscape:connector-curvature="0" />
      <path
         d="m 140.14626,107.93072 q 0,-0.42186 0.12054,-0.89194 0.40981,-1.63925 0.95221,-3.20617 0.55445,-1.57898 1.00042,-3.13385 0.44597,-1.554876 0.73525,-2.615564 0.30133,-1.072741 0.53034,-1.832097 0.22901,-0.77141 0.42187,-1.32586 0.19285,-0.554451 0.42186,-1.096848 0.14464,-0.325438 0.31339,-0.674983 0.18079,-0.349545 0.3857,-0.638824 0.20491,-0.301331 0.42186,-0.48213 0.22902,-0.192853 0.47008,-0.192853 0.49419,0 0.7473,0.168746 0.26518,0.156693 0.32544,0.289278 l 0.10848,0.494185 q 0.1808,-0.01205 0.47008,-0.06027 0.28928,-0.06027 0.57856,-0.120532 0.30133,-0.06027 0.55445,-0.120533 0.25312,-0.06027 0.3857,-0.10848 0.79552,-0.216958 1.4705,-0.373651 0.67499,-0.156693 1.27765,-0.253119 0.61472,-0.108479 1.16917,-0.156692 0.55445,-0.04821 1.12095,-0.04821 0.55445,0 0.904,0.06027 0.34954,0.06027 0.55445,0.168746 0.2049,0.09643 0.27722,0.241065 0.0844,0.132586 0.0844,0.289279 0,0.144639 -0.0844,0.313385 -0.0723,0.156692 -0.25312,0.301332 -0.1808,0.144639 -0.47007,0.253118 -0.28928,0.10848 -0.7232,0.14464 -0.10848,0.02411 -0.50624,0.09643 -0.3857,0.06027 -0.84373,0.144639 -0.45802,0.07232 -0.86783,0.144639 -0.40981,0.07232 -0.56651,0.10848 h 0.0121 q -0.0723,0.01205 -0.34955,0.09643 -0.26517,0.07232 -0.65088,0.180799 -0.3857,0.09643 -0.84372,0.229012 -0.44598,0.132586 -0.89195,0.265172 -0.43391,0.120533 -0.80757,0.241066 -0.37365,0.108479 -0.60266,0.180799 -0.73525,0.289278 -1.15711,0.771409 -0.40981,0.470078 -0.65088,1.060688 -0.0482,0.10848 -0.14464,0.373652 -0.0964,0.253118 -0.21696,0.59061 -0.10848,0.325438 -0.24106,0.69909 -0.13259,0.373651 -0.25312,0.711143 -0.12054,0.337492 -0.21696,0.614717 -0.0844,0.277227 -0.12053,0.409807 -0.0362,0.12053 -0.0482,0.21696 -0.012,0.0964 -0.012,0.14464 0,0.0723 0.0362,0.0723 0.1808,0 0.7473,-0.15669 0.57856,-0.16875 1.33792,-0.40981 0.7714,-0.241067 1.63924,-0.518293 0.87989,-0.277225 1.67541,-0.51829 0.80756,-0.241066 1.43433,-0.397758 0.62678,-0.168746 0.904,-0.168746 0.42186,0 0.5665,0.144639 0.14464,0.132586 0.14464,0.301332 0,0.433918 -0.31338,0.759356 -0.30133,0.32544 -0.75936,0.5665 -0.14464,0.0723 -0.5424,0.21696 -0.3857,0.13259 -0.84372,0.27723 -0.44598,0.14464 -0.85579,0.27722 -0.40981,0.13259 -0.59061,0.19285 -1.18122,0.45803 -1.92852,0.75936 -0.73525,0.28928 -1.19327,0.48213 -0.45803,0.1808 -0.71115,0.27723 -0.24106,0.0964 -0.45802,0.16874 -0.20491,0.0603 -0.45803,0.12053 -0.25312,0.0603 -0.69909,0.16875 -0.10848,0.25312 -0.25311,0.77141 -0.14464,0.50624 -0.27723,1.06069 -0.13259,0.5424 -0.22901,1.01247 -0.0844,0.47008 -0.0844,0.65088 0,0.21696 0.0603,0.32544 0.0603,0.0964 0.14464,0.13258 0.0844,0.0362 0.16875,0.0362 0.0844,0 0.13258,0 0.57856,0 1.38613,-0.16874 0.81962,-0.16875 1.61514,-0.44597 0.75935,-0.26518 1.32586,-0.57856 0.5665,-0.31339 1.06069,-0.57856 0.50623,-0.27722 0.97631,-0.45802 0.48213,-0.19285 1.04863,-0.20491 0.12054,0 0.27723,0.0241 0.16875,0.0241 0.31339,0.0964 0.14463,0.0603 0.22901,0.16874 0.0964,0.10848 0.0723,0.27723 -0.0482,0.34954 -0.34955,0.68703 -0.30133,0.33749 -0.75935,0.65088 -0.45803,0.31338 -1.02453,0.60266 -0.56651,0.28928 -1.15712,0.55445 -0.59061,0.25312 -1.15711,0.47008 -0.5665,0.20491 -1.01248,0.3616 -1.1089,0.3857 -2.15753,0.5665 -1.04864,0.1808 -1.88031,0.1808 -0.91605,0 -1.41023,-0.34954 -0.48214,-0.33749 -0.48214,-1.13301 z"
         style="font-style:normal;font-variant:normal;font-weight:normal;font-stretch:normal;font-size:24.68510246px;font-family:'MV Boli';-inkscape-font-specification:'MV Boli, Normal';font-variant-ligatures:normal;font-variant-caps:normal;font-variant-numeric:normal;font-feature-settings:normal;text-align:start;writing-mode:lr-tb;text-anchor:start;fill:url(#994);stroke:url(#994);stroke-width:1.35105383;stroke-miterlimit:4;stroke-dasharray:none"
         id="path978-6"
         inkscape:connector-curvature="0" />
    </g>
    <ellipse
       style="fill:none;fill-opacity:1;stroke:url(#994);stroke-width:2;stroke-miterlimit:4;stroke-dasharray:none;stroke-opacity:1"
       id="path5079-5"
       cx="102.25677"
       cy="188.05174"
       rx="12.587524"
       ry="37.762569" />
    <ellipse
       style="fill:none;fill-opacity:1;stroke:url(#994);stroke-width:2;stroke-miterlimit:4;stroke-dasharray:none;stroke-opacity:1"
       id="path5079-3-7"
       cx="188.05174"
       cy="-102.25677"
       rx="12.587524"
       ry="37.762569"
       transform="rotate(90)" />
    <ellipse
       style="fill:none;fill-opacity:1;stroke:url(#994);stroke-width:2;stroke-miterlimit:4;stroke-dasharray:none;stroke-opacity:1"
       id="path5079-3-4-0"
       cx="60.666214"
       cy="-205.27911"
       rx="12.587524"
       ry="37.762569"
       transform="rotate(135)" />
    <ellipse
       style="fill:none;fill-opacity:1;stroke:url(#994);stroke-width:2;stroke-linecap:round;stroke-miterlimit:4;stroke-dasharray:none;stroke-opacity:1"
       id="path5079-3-4-3-5"
       cx="-205.27911"
       cy="-60.666214"
       rx="12.587524"
       ry="37.762569"
       transform="rotate(-135)" />
  </g>
</svg>
