<?xml version="1.0" encoding="UTF-8" standalone="no"?>
<!-- Created with Inkscape (http://www.inkscape.org/) -->

<svg
   xmlns:dc="http://purl.org/dc/elements/1.1/"
   xmlns:cc="http://creativecommons.org/ns#"
   xmlns:rdf="http://www.w3.org/1999/02/22-rdf-syntax-ns#"
   xmlns:svg="http://www.w3.org/2000/svg"
   xmlns="http://www.w3.org/2000/svg"
   xmlns:sodipodi="http://sodipodi.sourceforge.net/DTD/sodipodi-0.dtd"
   xmlns:inkscape="http://www.inkscape.org/namespaces/inkscape"
   width="500mm"
   height="100mm"
   viewBox="0 0 1771.6536 354.33071"
   id="svg4646"
   version="1.1"
   inkscape:version="0.91 r13725"
   inkscape:export-filename="C:\Users\Piotrek\Desktop\text4642.png"
   inkscape:export-xdpi="63.77264"
   inkscape:export-ydpi="63.77264"
   sodipodi:docname="logo2.svg">
  <defs
     id="defs4648" />
  <sodipodi:namedview
     id="base"
     pagecolor="#ffffff"
     bordercolor="#666666"
     borderopacity="1.0"
     inkscape:pageopacity="0.0"
     inkscape:pageshadow="2"
     inkscape:zoom="0.49497475"
     inkscape:cx="798.65962"
     inkscape:cy="125.4161"
     inkscape:document-units="px"
     inkscape:current-layer="layer1"
     showgrid="true"
     inkscape:window-width="1280"
     inkscape:window-height="962"
     inkscape:window-x="-8"
     inkscape:window-y="-8"
     inkscape:window-maximized="1"
     width="200mm">
    <inkscape:grid
       type="xygrid"
       id="grid4784" />
  </sodipodi:namedview>
  <metadata
     id="metadata4651">
    <rdf:RDF>
      <cc:Work
         rdf:about="">
        <dc:format>image/svg+xml</dc:format>
        <dc:type
           rdf:resource="http://purl.org/dc/dcmitype/StillImage" />
        <dc:title></dc:title>
      </cc:Work>
    </rdf:RDF>
  </metadata>
  <g
     inkscape:label="Layer 1"
     inkscape:groupmode="layer"
     id="layer1"
     transform="translate(0,-698.0315)">
    <g
       style="font-style:normal;font-variant:normal;font-weight:100;font-stretch:normal;font-size:64.19551849px;line-height:125%;font-family:BolsterBold;-inkscape-font-specification:'BolsterBold, Thin';text-align:start;letter-spacing:0px;word-spacing:0px;writing-mode:lr-tb;text-anchor:start;display:inline;fill:#0e232e;fill-opacity:1;stroke:none;stroke-width:1px;stroke-linecap:butt;stroke-linejoin:miter;stroke-opacity:1"
       id="text4642"
       transform="matrix(2.3375312,0,0,2.8614096,-489.17746,-693.94343)">
      <path
         id="path6535"
         style="fill:#0e232e"
         d="m 738.60664,529.94732 12.71071,0 0,41.98387 -12.71071,0 0,-41.98387 z m -45.38821,0 12.71071,0 0,18.87349 14.76497,-18.87349 14.3798,0 -13.03169,17.01182 q 0.51356,-0.0642 0.77034,-0.0642 1.92587,0 4.3011,0.70615 2.37524,0.70615 4.10851,2.18265 2.18265,1.99006 2.8888,4.81466 0.44937,1.86167 0.44937,5.97019 l 0,11.3626 -12.71071,0 0,-16.56244 -15.92049,0 0,16.56244 -12.64652,0 -0.0642,-41.98387 z m -45.38825,41.98387 0,-10.39967 28.7596,0 0,-5.52082 -19.90062,0 q -3.40236,0 -5.97018,-2.37523 -2.8888,-2.63202 -2.8888,-6.29116 l 0,-10.39967 q 0.32098,-2.8888 2.50363,-4.87886 1.4123,-1.34811 3.01719,-1.73328 1.66908,-0.38518 4.3011,-0.38518 l 29.33735,0 0,11.23422 -26.44855,0 0,5.58501 19.25865,0 q 0.89874,0 2.8888,0.12839 2.05426,0.0642 3.65914,1.28391 2.953,2.31104 2.953,6.03438 l 0,9.75772 q 0,2.05426 -0.57776,3.53075 -0.51357,1.4123 -1.86167,2.76041 -1.09133,1.02713 -2.37524,1.4123 -1.28391,0.32098 -2.95299,0.32098 -0.83454,0 -1.4765,-0.0642 -0.64195,0 -1.15552,0 l -31.07063,0 z m -49.60407,-41.98387 5.52081,22.14746 4.68627,-22.21165 12.64652,0 5.07145,22.21165 5.19983,-22.14746 12.64652,0 -9.56513,41.98387 -12.71071,0 -6.93312,-29.59413 -6.99731,29.59413 -12.71071,0 -9.56514,-41.98387 12.71072,0 z m -52.9583,0 36.27046,0 0,11.10583 -23.55975,0 0,5.45662 23.55975,0 0,8.85898 -23.55975,0 0,5.45662 23.55975,0 0,11.10582 -36.27046,0 0,-41.98387 z m -38.86838,41.98387 0,-41.98387 13.60945,0 0,30.87805 21.31291,0 0,11.10582 -34.92236,0 z m -32.30139,-25.10044 15.53532,0 0,-5.7776 -15.53532,0 0,5.7776 z m 0,13.99462 15.53532,0 0,-5.7776 -15.53532,0 0,5.7776 z m -12.71071,-30.87805 31.39161,0 q 2.05425,0 3.59494,0.57776 1.5407,0.51357 3.08139,1.86167 1.54069,1.34811 2.31104,2.63202 0.83454,1.21972 0.83454,3.08139 l 0,5.6492 q -0.19259,1.02713 -0.57776,1.86167 -0.38517,0.83454 -1.09132,1.99006 -0.70615,1.09133 -2.37524,2.50363 -0.25678,0.25678 -0.83454,0.64195 0.77035,0.44937 1.15552,0.70615 1.15552,0.83454 1.86167,1.66909 0.96293,1.15552 1.4765,2.31104 0.32097,0.70615 0.57776,1.92586 l 0,5.64921 q 0,1.92586 -0.96294,3.46655 -0.70615,1.15552 -2.56782,2.82461 -1.54069,1.47649 -4.10851,2.11845 -2.56782,0.64195 -4.68627,0.64195 -0.83454,0 -1.4765,-0.12839 l -27.60407,0 0,-41.98387 z m -21.08269,-2.6647 -9.84619,0 10.88264,-10.36443 9.84619,0 -10.88264,10.36443 z m -12.72327,33.54275 16.81923,0 0,-19.77222 -16.81923,0 0,19.77222 z M 414.87066,541.6951 q 0,-1.79747 0.44937,-3.59494 0.44936,-1.86167 1.60488,-3.53076 1.73328,-2.43943 3.98013,-3.53075 2.24684,-1.09133 5.39242,-1.09133 l 17.97474,0 q 2.37524,0.1284 3.72334,0.32098 3.98013,0.64196 5.7776,2.37524 1.86167,1.66908 2.56782,3.53075 0.77035,1.86167 0.77035,4.55788 l 0,20.86355 q 0,3.53075 -2.50363,6.41955 -3.14558,3.91592 -7.96024,3.91592 l -22.982,0 q -1.73328,0 -2.95299,-0.57776 -1.15552,-0.57776 -2.63202,-1.79747 -1.47649,-1.28391 -2.37523,-3.91593 -0.83454,-2.63201 -0.83454,-5.58501 l 0,-18.35992 z m -32.05062,4.94306 15.40692,0 0,-5.58501 -15.40692,0 0,5.58501 z m 28.11764,25.29303 -12.71072,0 0,-16.56244 -15.40692,0 0,16.56244 -12.64652,0 0,-41.98387 32.48294,0 q 1.54069,0 2.63201,0.32098 1.09133,0.32098 2.31104,1.15552 3.33817,2.31104 3.33817,6.48375 l 0,6.54794 q -0.25678,1.86167 -1.4765,3.65915 -0.64195,0.89873 -2.37523,2.05425 -0.51357,0.32098 -1.60489,0.96294 0.83454,0.44936 1.21971,0.70615 1.21972,0.83454 1.92587,1.60488 2.31104,2.63202 2.31104,5.39243 l 0,13.09588 z m -90.43243,-41.98387 5.52082,22.14746 4.68627,-22.21165 12.64652,0 5.07144,22.21165 5.19984,-22.14746 12.64652,0 -9.56514,41.98387 -12.71071,0 -6.93312,-29.59413 -6.99731,29.59413 -12.71071,0 -9.56513,-41.98387 12.71071,0 z" />
      <path
         id="path6521"
         style="fill:#005c94"
         d="m 923.459,546.63816 15.40692,0 0,-5.58501 -15.40692,0 0,5.58501 z m 28.11763,25.29303 -12.71071,0 0,-16.56244 -15.40692,0 0,16.56244 -12.64652,0 0,-41.98387 32.48293,0 q 1.54069,0 2.63202,0.32098 1.09132,0.32098 2.31104,1.15552 3.33816,2.31104 3.33816,6.48375 l 0,6.54794 q -0.25678,1.86167 -1.47649,3.65915 -0.64196,0.89873 -2.37524,2.05425 -0.51356,0.32098 -1.60488,0.96294 0.83454,0.44936 1.21971,0.70615 1.21971,0.83454 1.92587,1.60488 2.31103,2.63202 2.31103,5.39243 l 0,13.09588 z m -83.58353,-41.98387 39.15926,0 0,10.39968 -12.9033,0 0,31.58419 -13.35266,0 0,-31.58419 -12.9033,0 0,-10.39968 z m -33.80595,30.87805 16.81922,0 0,-19.77222 -16.81922,0 0,19.77222 z M 821.47643,541.6951 q 0,-1.79747 0.44937,-3.59494 0.44937,-1.86167 1.60489,-3.53076 1.73328,-2.43943 3.98012,-3.53075 2.24685,-1.09133 5.39243,-1.09133 l 17.97474,0 q 2.37524,0.1284 3.72334,0.32098 3.98012,0.64196 5.7776,2.37524 1.86167,1.66908 2.56782,3.53075 0.77035,1.86167 0.77035,4.55788 l 0,20.86355 q 0,3.53075 -2.50363,6.41955 -3.14558,3.91592 -7.96024,3.91592 l -22.982,0 q -1.73328,0 -2.95299,-0.57776 -1.15552,-0.57776 -2.63202,-1.79747 -1.4765,-1.28391 -2.37523,-3.91593 -0.83455,-2.63201 -0.83455,-5.58501 l 0,-18.35992 z m -16.8012,-11.74778 12.71071,0 0,41.98387 -12.71071,0 0,-41.98387 z m -32.17598,19.64383 15.08595,0 0,-8.538 -15.08595,0 0,8.538 z m -12.71071,-19.64383 30.55706,0 q 0.77035,-0.0642 1.09133,-0.0642 3.40236,0 6.35535,2.56782 1.73328,1.60489 2.37524,3.53075 0.64195,1.86167 0.64195,4.68628 l 0,7.83185 q 0,3.27397 -2.18264,6.09857 -1.73328,2.18265 -3.85174,3.01719 -2.05425,0.77035 -5.19983,0.77035 l -17.07601,0 0,13.54525 -12.71071,0 0,-41.98387 z" />
    </g>
    <path
       style="display:inline;opacity:1;fill:#0e232e;fill-opacity:1;fill-rule:nonzero;stroke:none;stroke-width:3.18897629;stroke-linecap:butt;stroke-linejoin:bevel;stroke-miterlimit:4;stroke-dasharray:none;stroke-opacity:1"
       d="m 199.27163,953.24596 15.32651,0 0,15.32651 -15.32651,0 z"
       id="path6357"
       inkscape:connector-curvature="0" />
    <path
       style="display:inline;opacity:1;fill:#005c94;fill-opacity:1;fill-rule:nonzero;stroke:none;stroke-width:3.18897629;stroke-linecap:butt;stroke-linejoin:bevel;stroke-miterlimit:4;stroke-dasharray:none;stroke-opacity:1"
       d="m 180.87982,953.24596 15.3265,0 0,15.32651 -15.3265,0 z"
       id="path6355"
       inkscape:connector-curvature="0" />
    <path
       style="display:inline;opacity:1;fill:#0e232e;fill-opacity:1;fill-rule:nonzero;stroke:none;stroke-width:3.18897629;stroke-linecap:butt;stroke-linejoin:bevel;stroke-miterlimit:4;stroke-dasharray:none;stroke-opacity:1"
       d="m 199.27163,934.85418 15.32651,0 0,15.3265 -15.32651,0 z"
       id="path6353"
       inkscape:connector-curvature="0" />
    <path
       style="display:inline;opacity:1;fill:#0e232e;fill-opacity:1;fill-rule:nonzero;stroke:none;stroke-width:3.18897629;stroke-linecap:butt;stroke-linejoin:bevel;stroke-miterlimit:4;stroke-dasharray:none;stroke-opacity:1"
       d="m 180.87982,934.85418 15.3265,0 0,15.3265 -15.3265,0 z"
       id="path6351"
       inkscape:connector-curvature="0" />
    <path
       style="display:inline;opacity:1;fill:#0e232e;fill-opacity:1;fill-rule:nonzero;stroke:none;stroke-width:3.18897629;stroke-linecap:butt;stroke-linejoin:bevel;stroke-miterlimit:4;stroke-dasharray:none;stroke-opacity:1"
       d="m 162.488,953.24596 15.32651,0 0,15.32651 -15.32651,0 z"
       id="path6349"
       inkscape:connector-curvature="0" />
    <path
       style="display:inline;opacity:1;fill:#0e232e;fill-opacity:1;fill-rule:nonzero;stroke:none;stroke-width:3.18897629;stroke-linecap:butt;stroke-linejoin:bevel;stroke-miterlimit:4;stroke-dasharray:none;stroke-opacity:1"
       d="m 144.0962,953.24596 15.32651,0 0,15.32651 -15.32651,0 z"
       id="path6347"
       inkscape:connector-curvature="0" />
    <path
       style="display:inline;opacity:1;fill:#0e232e;fill-opacity:1;fill-rule:nonzero;stroke:none;stroke-width:3.18897629;stroke-linecap:butt;stroke-linejoin:bevel;stroke-miterlimit:4;stroke-dasharray:none;stroke-opacity:1"
       d="m 162.488,934.85418 15.32651,0 0,15.3265 -15.32651,0 z"
       id="path6345"
       inkscape:connector-curvature="0" />
    <path
       style="display:inline;opacity:1;fill:#0e232e;fill-opacity:1;fill-rule:nonzero;stroke:none;stroke-width:3.18897629;stroke-linecap:butt;stroke-linejoin:bevel;stroke-miterlimit:4;stroke-dasharray:none;stroke-opacity:1"
       d="m 144.0962,934.85418 15.32651,0 0,15.3265 -15.32651,0 z"
       id="path6343"
       inkscape:connector-curvature="0" />
    <path
       style="display:inline;opacity:1;fill:#0e232e;fill-opacity:1;fill-rule:nonzero;stroke:none;stroke-width:3.18897629;stroke-linecap:butt;stroke-linejoin:bevel;stroke-miterlimit:4;stroke-dasharray:none;stroke-opacity:1"
       d="m 125.70439,953.24596 15.32651,0 0,15.32651 -15.32651,0 z"
       id="path6341"
       inkscape:connector-curvature="0" />
    <path
       style="display:inline;opacity:1;fill:#0e232e;fill-opacity:1;fill-rule:nonzero;stroke:none;stroke-width:3.18897629;stroke-linecap:butt;stroke-linejoin:bevel;stroke-miterlimit:4;stroke-dasharray:none;stroke-opacity:1"
       d="m 107.31259,953.24596 15.32651,0 0,15.32651 -15.32651,0 z"
       id="path6339"
       inkscape:connector-curvature="0" />
    <path
       style="display:inline;opacity:1;fill:#005c94;fill-opacity:1;fill-rule:nonzero;stroke:none;stroke-width:3.18897629;stroke-linecap:butt;stroke-linejoin:bevel;stroke-miterlimit:4;stroke-dasharray:none;stroke-opacity:1"
       d="m 88.920781,953.24596 15.326509,0 0,15.32651 -15.326509,0 z"
       id="path6333"
       inkscape:connector-curvature="0" />
    <path
       style="display:inline;opacity:1;fill:#0e232e;fill-opacity:1;fill-rule:nonzero;stroke:none;stroke-width:3.18897629;stroke-linecap:butt;stroke-linejoin:bevel;stroke-miterlimit:4;stroke-dasharray:none;stroke-opacity:1"
       d="m 70.528981,953.24596 15.3265,0 0,15.32651 -15.3265,0 z"
       id="path6331"
       inkscape:connector-curvature="0" />
    <path
       style="display:inline;opacity:1;fill:#0e232e;fill-opacity:1;fill-rule:nonzero;stroke:none;stroke-width:3.18897629;stroke-linecap:butt;stroke-linejoin:bevel;stroke-miterlimit:4;stroke-dasharray:none;stroke-opacity:1"
       d="m 70.528981,934.85418 15.3265,0 0,15.3265 -15.3265,0 z"
       id="path6327"
       inkscape:connector-curvature="0" />
    <path
       style="display:inline;opacity:1;fill:#0e232e;fill-opacity:1;fill-rule:nonzero;stroke:none;stroke-width:3.18897629;stroke-linecap:butt;stroke-linejoin:bevel;stroke-miterlimit:4;stroke-dasharray:none;stroke-opacity:1"
       d="m 52.137171,953.24596 15.32651,0 0,15.32651 -15.32651,0 z"
       id="path6325"
       inkscape:connector-curvature="0" />
    <path
       style="display:inline;opacity:1;fill:#0e232e;fill-opacity:1;fill-rule:nonzero;stroke:none;stroke-width:3.18897629;stroke-linecap:butt;stroke-linejoin:bevel;stroke-miterlimit:4;stroke-dasharray:none;stroke-opacity:1"
       d="m 33.745371,953.24596 15.3265,0 0,15.32651 -15.3265,0 z"
       id="path6323"
       inkscape:connector-curvature="0" />
    <path
       style="display:inline;opacity:1;fill:#0e232e;fill-opacity:1;fill-rule:nonzero;stroke:none;stroke-width:3.18897629;stroke-linecap:butt;stroke-linejoin:bevel;stroke-miterlimit:4;stroke-dasharray:none;stroke-opacity:1"
       d="m 52.137171,934.85418 15.32651,0 0,15.3265 -15.32651,0 z"
       id="path6321"
       inkscape:connector-curvature="0" />
    <path
       style="display:inline;opacity:1;fill:#005c94;fill-opacity:1;fill-rule:nonzero;stroke:none;stroke-width:3.18897629;stroke-linecap:butt;stroke-linejoin:bevel;stroke-miterlimit:4;stroke-dasharray:none;stroke-opacity:1"
       d="m 33.745371,934.85418 15.3265,0 0,15.3265 -15.3265,0 z"
       id="path6319"
       inkscape:connector-curvature="0" />
    <path
       style="display:inline;opacity:1;fill:#0e232e;fill-opacity:1;fill-rule:nonzero;stroke:none;stroke-width:3.18897629;stroke-linecap:butt;stroke-linejoin:bevel;stroke-miterlimit:4;stroke-dasharray:none;stroke-opacity:1"
       d="m 199.27163,916.46233 15.32651,0 0,15.32651 -15.32651,0 z"
       id="path6317"
       inkscape:connector-curvature="0" />
    <path
       style="display:inline;opacity:1;fill:#0e232e;fill-opacity:1;fill-rule:nonzero;stroke:none;stroke-width:3.18897629;stroke-linecap:butt;stroke-linejoin:bevel;stroke-miterlimit:4;stroke-dasharray:none;stroke-opacity:1"
       d="m 180.87982,916.46233 15.3265,0 0,15.32651 -15.3265,0 z"
       id="path6315"
       inkscape:connector-curvature="0" />
    <path
       style="display:inline;opacity:1;fill:#0e232e;fill-opacity:1;fill-rule:nonzero;stroke:none;stroke-width:3.18897629;stroke-linecap:butt;stroke-linejoin:bevel;stroke-miterlimit:4;stroke-dasharray:none;stroke-opacity:1"
       d="m 199.27163,898.07055 15.32651,0 0,15.3265 -15.32651,0 z"
       id="path6313"
       inkscape:connector-curvature="0" />
    <path
       style="display:inline;opacity:1;fill:#0e232e;fill-opacity:1;fill-rule:nonzero;stroke:none;stroke-width:3.18897629;stroke-linecap:butt;stroke-linejoin:bevel;stroke-miterlimit:4;stroke-dasharray:none;stroke-opacity:1"
       d="m 180.87982,898.07055 15.3265,0 0,15.3265 -15.3265,0 z"
       id="path6311"
       inkscape:connector-curvature="0" />
    <path
       style="display:inline;opacity:1;fill:#0e232e;fill-opacity:1;fill-rule:nonzero;stroke:none;stroke-width:3.18897629;stroke-linecap:butt;stroke-linejoin:bevel;stroke-miterlimit:4;stroke-dasharray:none;stroke-opacity:1"
       d="m 199.27163,879.67876 15.32651,0 0,15.32651 -15.32651,0 z"
       id="path6309"
       inkscape:connector-curvature="0" />
    <path
       style="display:inline;opacity:1;fill:#0e232e;fill-opacity:1;fill-rule:nonzero;stroke:none;stroke-width:3.18897629;stroke-linecap:butt;stroke-linejoin:bevel;stroke-miterlimit:4;stroke-dasharray:none;stroke-opacity:1"
       d="m 199.27163,861.28698 15.32651,0 0,15.3265 -15.32651,0 z"
       id="path6305"
       inkscape:connector-curvature="0" />
    <path
       style="display:inline;opacity:1;fill:#0e232e;fill-opacity:1;fill-rule:nonzero;stroke:none;stroke-width:3.18897629;stroke-linecap:butt;stroke-linejoin:bevel;stroke-miterlimit:4;stroke-dasharray:none;stroke-opacity:1"
       d="m 199.27163,842.89513 15.32651,0 0,15.32651 -15.32651,0 z"
       id="path6301"
       inkscape:connector-curvature="0" />
    <path
       style="display:inline;opacity:1;fill:#0e232e;fill-opacity:1;fill-rule:nonzero;stroke:none;stroke-width:3.18897629;stroke-linecap:butt;stroke-linejoin:bevel;stroke-miterlimit:4;stroke-dasharray:none;stroke-opacity:1"
       d="m 180.87982,842.89513 15.3265,0 0,15.32651 -15.3265,0 z"
       id="path6299"
       inkscape:connector-curvature="0" />
    <path
       style="display:inline;opacity:1;fill:#005c94;fill-opacity:1;fill-rule:nonzero;stroke:none;stroke-width:3.18897629;stroke-linecap:butt;stroke-linejoin:bevel;stroke-miterlimit:4;stroke-dasharray:none;stroke-opacity:1"
       d="m 199.27163,824.50335 15.32651,0 0,15.3265 -15.32651,0 z"
       id="path6297"
       inkscape:connector-curvature="0" />
    <path
       style="display:inline;opacity:1;fill:#0e232e;fill-opacity:1;fill-rule:nonzero;stroke:none;stroke-width:3.18897629;stroke-linecap:butt;stroke-linejoin:bevel;stroke-miterlimit:4;stroke-dasharray:none;stroke-opacity:1"
       d="m 180.87982,824.50335 15.3265,0 0,15.3265 -15.3265,0 z"
       id="path6295"
       inkscape:connector-curvature="0" />
    <path
       style="display:inline;opacity:1;fill:#0e232e;fill-opacity:1;fill-rule:nonzero;stroke:none;stroke-width:3.18897629;stroke-linecap:butt;stroke-linejoin:bevel;stroke-miterlimit:4;stroke-dasharray:none;stroke-opacity:1"
       d="m 199.27163,806.11156 15.32651,0 0,15.32651 -15.32651,0 z"
       id="path6293"
       inkscape:connector-curvature="0" />
    <path
       style="display:inline;opacity:1;fill:#0e232e;fill-opacity:1;fill-rule:nonzero;stroke:none;stroke-width:3.18897629;stroke-linecap:butt;stroke-linejoin:bevel;stroke-miterlimit:4;stroke-dasharray:none;stroke-opacity:1"
       d="m 180.87982,806.11156 15.3265,0 0,15.32651 -15.3265,0 z"
       id="path6291"
       inkscape:connector-curvature="0" />
    <path
       style="display:inline;opacity:1;fill:#005c94;fill-opacity:1;fill-rule:nonzero;stroke:none;stroke-width:3.18897629;stroke-linecap:butt;stroke-linejoin:bevel;stroke-miterlimit:4;stroke-dasharray:none;stroke-opacity:1"
       d="m 199.27163,787.71972 15.32651,0 0,15.3265 -15.32651,0 z"
       id="path6289"
       inkscape:connector-curvature="0" />
    <path
       style="display:inline;opacity:1;fill:#0e232e;fill-opacity:1;fill-rule:nonzero;stroke:none;stroke-width:3.18897629;stroke-linecap:butt;stroke-linejoin:bevel;stroke-miterlimit:4;stroke-dasharray:none;stroke-opacity:1"
       d="m 180.87982,787.71972 15.3265,0 0,15.3265 -15.3265,0 z"
       id="path6287"
       inkscape:connector-curvature="0" />
    <path
       style="display:inline;opacity:1;fill:#0e232e;fill-opacity:1;fill-rule:nonzero;stroke:none;stroke-width:3.18897629;stroke-linecap:butt;stroke-linejoin:bevel;stroke-miterlimit:4;stroke-dasharray:none;stroke-opacity:1"
       d="m 52.137171,916.46233 15.32651,0 0,15.32651 -15.32651,0 z"
       id="path6245"
       inkscape:connector-curvature="0" />
    <path
       style="display:inline;opacity:1;fill:#0e232e;fill-opacity:1;fill-rule:nonzero;stroke:none;stroke-width:3.18897629;stroke-linecap:butt;stroke-linejoin:bevel;stroke-miterlimit:4;stroke-dasharray:none;stroke-opacity:1"
       d="m 33.745371,916.46233 15.3265,0 0,15.32651 -15.3265,0 z"
       id="path6243"
       inkscape:connector-curvature="0" />
    <path
       style="display:inline;opacity:1;fill:#0e232e;fill-opacity:1;fill-rule:nonzero;stroke:none;stroke-width:3.18897629;stroke-linecap:butt;stroke-linejoin:bevel;stroke-miterlimit:4;stroke-dasharray:none;stroke-opacity:1"
       d="m 52.137171,898.07055 15.32651,0 0,15.3265 -15.32651,0 z"
       id="path6241"
       inkscape:connector-curvature="0" />
    <path
       style="display:inline;opacity:1;fill:#0e232e;fill-opacity:1;fill-rule:nonzero;stroke:none;stroke-width:3.18897629;stroke-linecap:butt;stroke-linejoin:bevel;stroke-miterlimit:4;stroke-dasharray:none;stroke-opacity:1"
       d="m 33.745371,898.07055 15.3265,0 0,15.3265 -15.3265,0 z"
       id="path6239"
       inkscape:connector-curvature="0" />
    <path
       style="display:inline;opacity:1;fill:#0e232e;fill-opacity:1;fill-rule:nonzero;stroke:none;stroke-width:3.18897629;stroke-linecap:butt;stroke-linejoin:bevel;stroke-miterlimit:4;stroke-dasharray:none;stroke-opacity:1"
       d="m 33.745371,879.67876 15.3265,0 0,15.32651 -15.3265,0 z"
       id="path6227"
       inkscape:connector-curvature="0" />
    <path
       style="display:inline;opacity:1;fill:#0e232e;fill-opacity:1;fill-rule:nonzero;stroke:none;stroke-width:3.18897629;stroke-linecap:butt;stroke-linejoin:bevel;stroke-miterlimit:4;stroke-dasharray:none;stroke-opacity:1"
       d="m 33.745371,861.28698 15.3265,0 0,15.3265 -15.3265,0 z"
       id="path6223"
       inkscape:connector-curvature="0" />
    <path
       style="display:inline;opacity:1;fill:#0e232e;fill-opacity:1;fill-rule:nonzero;stroke:none;stroke-width:3.18897629;stroke-linecap:butt;stroke-linejoin:bevel;stroke-miterlimit:4;stroke-dasharray:none;stroke-opacity:1"
       d="m 162.488,806.11156 15.32651,0 0,15.32651 -15.32651,0 z"
       id="path6205"
       inkscape:connector-curvature="0" />
    <path
       style="display:inline;opacity:1;fill:#0e232e;fill-opacity:1;fill-rule:nonzero;stroke:none;stroke-width:3.18897629;stroke-linecap:butt;stroke-linejoin:bevel;stroke-miterlimit:4;stroke-dasharray:none;stroke-opacity:1"
       d="m 144.0962,806.11156 15.32651,0 0,15.32651 -15.32651,0 z"
       id="path6203"
       inkscape:connector-curvature="0" />
    <path
       style="display:inline;opacity:1;fill:#005c94;fill-opacity:1;fill-rule:nonzero;stroke:none;stroke-width:3.18897629;stroke-linecap:butt;stroke-linejoin:bevel;stroke-miterlimit:4;stroke-dasharray:none;stroke-opacity:1"
       d="m 162.488,787.71972 15.32651,0 0,15.3265 -15.32651,0 z"
       id="path6201"
       inkscape:connector-curvature="0" />
    <path
       style="display:inline;opacity:1;fill:#0e232e;fill-opacity:1;fill-rule:nonzero;stroke:none;stroke-width:3.18897629;stroke-linecap:butt;stroke-linejoin:bevel;stroke-miterlimit:4;stroke-dasharray:none;stroke-opacity:1"
       d="m 144.0962,787.71972 15.32651,0 0,15.3265 -15.32651,0 z"
       id="path6199"
       inkscape:connector-curvature="0" />
    <path
       style="display:inline;opacity:1;fill:#0e232e;fill-opacity:1;fill-rule:nonzero;stroke:none;stroke-width:3.18897629;stroke-linecap:butt;stroke-linejoin:bevel;stroke-miterlimit:4;stroke-dasharray:none;stroke-opacity:1"
       d="m 125.70439,787.71972 15.32651,0 0,15.3265 -15.32651,0 z"
       id="path6193"
       inkscape:connector-curvature="0" />
    <path
       style="display:inline;opacity:1;fill:#0e232e;fill-opacity:1;fill-rule:nonzero;stroke:none;stroke-width:3.18897629;stroke-linecap:butt;stroke-linejoin:bevel;stroke-miterlimit:4;stroke-dasharray:none;stroke-opacity:1"
       d="m 107.31259,787.71972 15.32651,0 0,15.3265 -15.32651,0 z"
       id="path6191"
       inkscape:connector-curvature="0" />
    <path
       style="display:inline;opacity:1;fill:#0e232e;fill-opacity:1;fill-rule:nonzero;stroke:none;stroke-width:3.18897629;stroke-linecap:butt;stroke-linejoin:bevel;stroke-miterlimit:4;stroke-dasharray:none;stroke-opacity:1"
       d="m 52.137171,842.89513 15.32651,0 0,15.32651 -15.32651,0 z"
       id="path6181"
       inkscape:connector-curvature="0" />
    <path
       style="display:inline;opacity:1;fill:#005c94;fill-opacity:1;fill-rule:nonzero;stroke:none;stroke-width:3.18897629;stroke-linecap:butt;stroke-linejoin:bevel;stroke-miterlimit:4;stroke-dasharray:none;stroke-opacity:1"
       d="m 33.745371,842.89513 15.3265,0 0,15.32651 -15.3265,0 z"
       id="path6179"
       inkscape:connector-curvature="0" />
    <path
       style="display:inline;opacity:1;fill:#0e232e;fill-opacity:1;fill-rule:nonzero;stroke:none;stroke-width:3.18897629;stroke-linecap:butt;stroke-linejoin:bevel;stroke-miterlimit:4;stroke-dasharray:none;stroke-opacity:1"
       d="m 52.137171,824.50335 15.32651,0 0,15.3265 -15.32651,0 z"
       id="path6177"
       inkscape:connector-curvature="0" />
    <path
       style="display:inline;opacity:1;fill:#0e232e;fill-opacity:1;fill-rule:nonzero;stroke:none;stroke-width:3.18897629;stroke-linecap:butt;stroke-linejoin:bevel;stroke-miterlimit:4;stroke-dasharray:none;stroke-opacity:1"
       d="m 33.745371,824.50335 15.3265,0 0,15.3265 -15.3265,0 z"
       id="path6175"
       inkscape:connector-curvature="0" />
    <path
       style="display:inline;opacity:1;fill:#0e232e;fill-opacity:1;fill-rule:nonzero;stroke:none;stroke-width:3.18897629;stroke-linecap:butt;stroke-linejoin:bevel;stroke-miterlimit:4;stroke-dasharray:none;stroke-opacity:1"
       d="m 88.920781,806.11156 15.326509,0 0,15.32651 -15.326509,0 z"
       id="path6173"
       inkscape:connector-curvature="0" />
    <path
       style="display:inline;opacity:1;fill:#0e232e;fill-opacity:1;fill-rule:nonzero;stroke:none;stroke-width:3.18897629;stroke-linecap:butt;stroke-linejoin:bevel;stroke-miterlimit:4;stroke-dasharray:none;stroke-opacity:1"
       d="m 70.528981,806.11156 15.3265,0 0,15.32651 -15.3265,0 z"
       id="path6171"
       inkscape:connector-curvature="0" />
    <path
       style="display:inline;opacity:1;fill:#0e232e;fill-opacity:1;fill-rule:nonzero;stroke:none;stroke-width:3.18897629;stroke-linecap:butt;stroke-linejoin:bevel;stroke-miterlimit:4;stroke-dasharray:none;stroke-opacity:1"
       d="m 88.920781,787.71972 15.326509,0 0,15.3265 -15.326509,0 z"
       id="path6169"
       inkscape:connector-curvature="0" />
    <path
       style="display:inline;opacity:1;fill:#0e232e;fill-opacity:1;fill-rule:nonzero;stroke:none;stroke-width:3.18897629;stroke-linecap:butt;stroke-linejoin:bevel;stroke-miterlimit:4;stroke-dasharray:none;stroke-opacity:1"
       d="m 70.528981,787.71972 15.3265,0 0,15.3265 -15.3265,0 z"
       id="path6167"
       inkscape:connector-curvature="0" />
    <path
       style="display:inline;opacity:1;fill:#0e232e;fill-opacity:1;fill-rule:nonzero;stroke:none;stroke-width:3.18897629;stroke-linecap:butt;stroke-linejoin:bevel;stroke-miterlimit:4;stroke-dasharray:none;stroke-opacity:1"
       d="m 52.137171,806.11156 15.32651,0 0,15.32651 -15.32651,0 z"
       id="path6165"
       inkscape:connector-curvature="0" />
    <path
       style="display:inline;opacity:1;fill:#0e232e;fill-opacity:1;fill-rule:nonzero;stroke:none;stroke-width:3.18897629;stroke-linecap:butt;stroke-linejoin:bevel;stroke-miterlimit:4;stroke-dasharray:none;stroke-opacity:1"
       d="m 33.745371,806.11156 15.3265,0 0,15.32651 -15.3265,0 z"
       id="path6163"
       inkscape:connector-curvature="0" />
    <path
       style="display:inline;opacity:1;fill:#005c94;fill-opacity:1;fill-rule:nonzero;stroke:none;stroke-width:3.18897629;stroke-linecap:butt;stroke-linejoin:bevel;stroke-miterlimit:4;stroke-dasharray:none;stroke-opacity:1"
       d="m 52.137171,787.71972 15.32651,0 0,15.3265 -15.32651,0 z"
       id="path6161"
       inkscape:connector-curvature="0" />
    <path
       style="display:inline;opacity:1;fill:#0e232e;fill-opacity:1;fill-rule:nonzero;stroke:none;stroke-width:3.18897629;stroke-linecap:butt;stroke-linejoin:bevel;stroke-miterlimit:4;stroke-dasharray:none;stroke-opacity:1"
       d="m 33.745371,787.71972 15.3265,0 0,15.3265 -15.3265,0 z"
       id="rect3451-4-3-0-0-8-1-6-0-2-7-0"
       inkscape:connector-curvature="0" />
    <path
       style="display:inline;opacity:1;fill:#0e232e;fill-opacity:1;fill-rule:nonzero;stroke:none;stroke-width:3.18897629;stroke-linecap:butt;stroke-linejoin:bevel;stroke-miterlimit:4;stroke-dasharray:none;stroke-opacity:1"
       d="m 88.921,934.85418 15.3265,0 0,15.3265 -15.3265,0 z"
       id="path6327-8"
       inkscape:connector-curvature="0" />
    <path
       style="opacity:1;fill:#005c94;fill-opacity:1;fill-rule:nonzero;stroke:none;stroke-width:3.18897629;stroke-linecap:butt;stroke-linejoin:bevel;stroke-miterlimit:4;stroke-dasharray:none;stroke-opacity:1"
       d="M 125.55273 89.388672 L 125.55273 110.82422 L 130.21289 110.82422 C 132.97018 110.82422 135.18749 113.04349 135.1875 115.80078 L 135.1875 126.97461 A 54.093822 54.093822 0 0 1 155.66602 135.45312 L 163.56445 127.55469 C 165.51414 125.60502 168.65385 125.60502 170.60352 127.55469 L 177.73242 134.68164 C 179.6821 136.63132 179.68211 139.77101 177.73242 141.7207 L 169.81055 149.64258 A 54.093822 54.093822 0 0 1 178.30664 170.09766 L 189.48438 170.09766 C 192.24166 170.09766 194.46289 172.31694 194.46289 175.07422 L 194.46289 185.15625 C 194.46289 187.91353 192.24166 190.13281 189.48438 190.13281 L 178.29688 190.13281 A 54.093822 54.093822 0 0 1 169.8418 210.61914 L 177.73242 218.50781 C 179.6821 220.45749 179.68211 223.59718 177.73242 225.54688 L 170.60352 232.67578 C 168.65384 234.62548 165.51412 234.62546 163.56445 232.67578 L 155.63672 224.74805 A 54.093822 54.093822 0 0 1 135.1875 233.23633 L 135.1875 244.42969 C 135.18751 247.18697 132.96824 249.40626 130.21094 249.40625 L 125.55273 249.40625 L 125.55273 270.41992 L 219.83789 270.41992 L 219.83789 89.388672 L 125.55273 89.388672 z M 125.55273 249.40625 L 125.55273 212.24023 A 32.136958 32.136958 0 0 1 125.24219 212.25195 A 32.136958 32.136958 0 0 1 93.035156 180.25977 A 32.136958 32.136958 0 0 1 124.95508 147.97852 A 32.136958 32.136958 0 0 1 125.55273 148.00391 L 125.55273 110.82422 L 120.13086 110.82422 C 117.37357 110.82421 115.15233 113.04349 115.15234 115.80078 L 115.15234 126.98438 A 54.093822 54.093822 0 0 0 94.701172 135.47656 L 86.777344 127.55469 C 84.827667 125.60502 81.687967 125.60502 79.738281 127.55469 L 72.611328 134.68164 C 70.661635 136.63133 70.661651 139.77102 72.611328 141.7207 L 80.505859 149.61523 A 54.093822 54.093822 0 0 0 72.037109 170.09766 L 60.855469 170.09766 C 58.098191 170.09766 55.880859 172.31694 55.880859 175.07422 L 55.880859 185.15625 C 55.880859 187.91353 58.098191 190.13281 60.855469 190.13281 L 72.044922 190.13281 A 54.093822 54.093822 0 0 0 80.537109 210.58203 L 72.611328 218.50781 C 70.661635 220.45749 70.661643 223.59718 72.611328 225.54688 L 79.738281 232.67578 C 81.687959 234.62546 84.827651 234.62547 86.777344 232.67578 L 94.667969 224.78516 A 54.093822 54.093822 0 0 0 115.15234 233.24414 L 115.15234 244.42969 C 115.15229 247.18692 117.37363 249.4063 120.13086 249.40625 L 125.55273 249.40625 z M 125.55273 148.00391 L 125.55273 212.24023 A 32.136958 32.136958 0 0 0 157.30859 180.11523 L 157.30664 179.82617 A 32.136958 32.136958 0 0 0 125.55273 148.00391 z "
       transform="translate(0,698.0315)"
       id="rect6616" />
  </g>
</svg>
