<?xml version="1.0" encoding="UTF-8" standalone="no"?>
<!-- Created with Inkscape (http://www.inkscape.org/) -->

<svg
   xmlns:dc="http://purl.org/dc/elements/1.1/"
   xmlns:cc="http://creativecommons.org/ns#"
   xmlns:rdf="http://www.w3.org/1999/02/22-rdf-syntax-ns#"
   xmlns:svg="http://www.w3.org/2000/svg"
   xmlns="http://www.w3.org/2000/svg"
   xmlns:sodipodi="http://sodipodi.sourceforge.net/DTD/sodipodi-0.dtd"
   xmlns:inkscape="http://www.inkscape.org/namespaces/inkscape"
   width="210mm"
   height="297mm"
   viewBox="0 0 744.09448819 1052.3622047"
   id="svg5662"
   version="1.1"
   inkscape:version="0.91 r13725"
   sodipodi:docname="logo.svg">
  <defs
     id="defs5664" />
  <sodipodi:namedview
     id="base"
     pagecolor="#ffffff"
     bordercolor="#666666"
     borderopacity="1.0"
     inkscape:pageopacity="0.0"
     inkscape:pageshadow="2"
     inkscape:zoom="0.49497475"
     inkscape:cx="353.72321"
     inkscape:cy="442.78791"
     inkscape:document-units="px"
     inkscape:current-layer="layer1"
     showgrid="true"
     inkscape:window-width="1280"
     inkscape:window-height="962"
     inkscape:window-x="-8"
     inkscape:window-y="-8"
     inkscape:window-maximized="1"
     showguides="false"
     inkscape:guide-bbox="true"
     inkscape:snap-text-baseline="false">
    <inkscape:grid
       type="xygrid"
       id="grid3474" />
  </sodipodi:namedview>
  <metadata
     id="metadata5667">
    <rdf:RDF>
      <cc:Work
         rdf:about="">
        <dc:format>image/svg+xml</dc:format>
        <dc:type
           rdf:resource="http://purl.org/dc/dcmitype/StillImage" />
        <dc:title />
      </cc:Work>
    </rdf:RDF>
  </metadata>
  <g
     inkscape:label="Layer 1"
     inkscape:groupmode="layer"
     id="layer1"
     style="display:inline">
    <path
       style="fill:#0e232e;stroke:none;stroke-width:7.68093348;stroke-miterlimit:4;stroke-dasharray:none"
       d="M 688.92383 39.9375 A 100.71428 100.71428 0 0 0 680.97852 40.289062 L 113.89062 40.289062 A 100.71427 100.71427 0 0 1 207.91992 140.76367 A 100.71427 100.71427 0 0 1 110.61133 241.30859 L 687.78906 241.30859 A 100.71428 100.71428 0 0 0 688.92383 241.36523 A 100.71428 100.71428 0 0 0 690.52539 241.30859 L 695.77539 241.30859 L 695.77539 241.12305 A 100.71428 100.71428 0 0 0 789.63867 140.65234 A 100.71428 100.71428 0 0 0 688.92383 39.9375 z M 110.61133 241.30859 L 106.85742 241.30859 L 106.85742 216.41406 L 98.179688 216.3418 C 96.226978 216.32537 94.667164 214.73788 94.683594 212.78516 L 94.84375 193.79492 A 54.497136 54.497136 0 0 1 77.6875 186.50195 L 63.003906 200.94141 C 61.580917 202.34064 59.307464 202.32146 57.908203 200.89844 L 46.251953 189.04297 C 44.852687 187.61997 44.871922 185.34848 46.294922 183.94922 L 60.945312 169.54102 A 54.497136 54.497136 0 0 1 54 152.23242 L 33.398438 152.05859 C 31.402779 152.04185 29.809393 150.4214 29.826172 148.42578 L 29.966797 131.80078 C 29.983586 129.80513 31.603983 128.21177 33.599609 128.22852 L 54.175781 128.40234 A 54.497136 54.497136 0 0 1 61.46875 111.24609 L 47.029297 96.560547 C 45.630024 95.137557 45.649277 92.866047 47.072266 91.466797 L 58.927734 79.810547 C 60.350727 78.411284 62.622228 78.428558 64.021484 79.851562 L 78.427734 94.503906 A 54.497136 54.497136 0 0 1 95.738281 87.556641 L 95.896484 68.541016 C 95.912911 66.588319 97.500403 65.030459 99.453125 65.046875 L 106.85742 65.109375 L 106.85742 40.289062 L 113.89062 40.289062 A 100.71427 100.71427 0 0 0 107.20703 40.050781 A 100.71427 100.71427 0 0 0 6.4921875 140.76367 A 100.71427 100.71427 0 0 0 107.20703 241.47852 A 100.71427 100.71427 0 0 0 110.61133 241.30859 z M 106.85742 65.109375 L 106.85742 108.92383 A 31.866974 31.866974 0 0 1 107.47461 108.89844 A 31.866974 31.866974 0 0 1 139.07227 141.03125 A 31.866974 31.866974 0 0 1 106.9375 172.63086 A 31.866974 31.866974 0 0 1 106.85742 172.62695 L 106.85742 216.41406 L 114.95898 216.48242 C 116.9117 216.49884 118.4992 214.93902 118.51562 212.98633 L 118.67383 193.9707 A 54.497136 54.497136 0 0 0 135.98438 187.02539 L 150.39062 201.67578 C 151.78987 203.0988 154.06136 203.11798 155.48438 201.71875 L 167.33984 190.0625 C 168.76286 188.66326 168.78204 186.38979 167.38281 184.9668 L 152.94336 170.2832 A 54.497136 54.497136 0 0 0 160.23633 153.12695 L 180.8125 153.29883 C 182.80814 153.31559 184.42846 151.72216 184.44531 149.72656 L 184.58594 133.10156 C 184.60268 131.10593 183.00933 129.4855 181.01367 129.46875 L 160.41211 129.29492 A 54.497136 54.497136 0 0 0 153.4668 111.98633 L 168.11719 97.580078 C 169.54021 96.180829 169.55938 93.909328 168.16016 92.486328 L 156.50195 80.630859 C 155.10269 79.207871 152.83119 79.188633 151.4082 80.587891 L 136.72461 95.027344 A 54.497136 54.497136 0 0 0 119.56836 87.734375 L 119.72852 68.742188 C 119.74494 66.789491 118.18513 65.20588 116.23242 65.189453 L 106.85742 65.109375 z M 106.85742 172.62695 L 106.85742 108.92383 A 31.866974 31.866974 0 0 0 75.339844 140.49609 A 31.866974 31.866974 0 0 0 106.85742 172.62695 z M 341.78516 97.287109 L 350.58789 97.287109 L 340.85938 110.38281 L 332.05859 110.38281 L 341.78516 97.287109 z M 261.55859 118.24023 L 270.68359 118.24023 L 274.34375 140.89453 L 278.0957 118.30469 L 287.2207 118.30469 L 280.31836 161.12695 L 271.14844 161.12695 L 266.14453 130.94141 L 261.0957 161.12695 L 251.92383 161.12695 L 245.02148 118.30469 L 254.19336 118.30469 L 258.17773 140.89453 L 261.55859 118.24023 z M 461.95312 118.24023 L 471.07812 118.24023 L 474.73828 140.89453 L 478.49023 118.30469 L 487.61523 118.30469 L 480.71289 161.12695 L 471.54102 161.12695 L 466.53906 130.94141 L 461.49023 161.12695 L 452.31836 161.12695 L 445.41602 118.30469 L 454.58789 118.30469 L 458.57227 140.89453 L 461.95312 118.24023 z M 614.27344 118.24023 C 615.91012 118.24023 617.43886 119.11328 618.85938 120.85938 C 619.69316 121.95068 620.26346 123.14941 620.57227 124.45898 C 620.88107 125.7249 621.03516 127.31953 621.03516 129.24023 L 621.03516 137.22852 C 621.03516 139.45479 620.51089 141.52852 619.46094 143.44922 C 618.62715 144.9334 617.70071 145.95791 616.68164 146.52539 C 615.69345 147.04922 614.44285 147.3125 612.92969 147.3125 L 600.60742 147.3125 L 600.60742 161.12695 L 591.4375 161.12695 L 591.4375 118.30469 L 613.48633 118.30469 C 613.8569 118.26104 614.11903 118.24023 614.27344 118.24023 z M 290.0332 118.30469 L 313.4707 118.30469 C 314.21184 118.30469 314.84612 118.41455 315.37109 118.63281 C 315.89607 118.85107 316.45233 119.24307 317.03906 119.81055 C 318.64487 121.38203 319.44727 123.58643 319.44727 126.42383 L 319.44727 133.10352 C 319.32374 134.36943 318.9676 135.61367 318.38086 136.83594 C 318.07205 137.44707 317.50175 138.1459 316.66797 138.93164 C 316.42092 139.1499 316.03474 139.47559 315.50977 139.91211 C 315.91122 140.21768 316.20339 140.4582 316.38867 140.63281 C 316.97541 141.20029 317.43961 141.7457 317.7793 142.26953 C 318.89101 144.05928 319.44727 145.89248 319.44727 147.76953 L 319.44727 161.12695 L 310.27539 161.12695 L 310.27539 144.23438 L 299.1582 144.23438 L 299.1582 161.12695 L 290.0332 161.12695 L 290.0332 118.30469 z M 330.5293 118.30469 L 343.5 118.30469 C 344.64259 118.39199 345.539 118.50186 346.1875 118.63281 C 348.10211 119.06934 349.4908 119.87607 350.35547 121.05469 C 351.25101 122.18965 351.86929 123.39033 352.20898 124.65625 C 352.57955 125.92217 352.76367 127.47129 352.76367 129.30469 L 352.76367 150.58594 C 352.76367 152.98682 352.16138 155.16846 350.95703 157.13281 C 349.44387 159.79561 347.52895 161.12695 345.21289 161.12695 L 328.63086 161.12695 C 327.79708 161.12695 327.08674 160.93193 326.5 160.53906 C 325.94414 160.14619 325.31182 159.53447 324.60156 158.70508 C 323.8913 157.83203 323.31905 156.50068 322.88672 154.71094 C 322.48527 152.92119 322.28516 151.02168 322.28516 149.01367 L 322.28516 130.28711 C 322.28516 129.06484 322.39321 127.84336 322.60938 126.62109 C 322.82554 125.35518 323.21172 124.15449 323.76758 123.01953 C 324.60136 121.36074 325.55784 120.16006 326.63867 119.41797 C 327.7195 118.67588 329.01613 118.30469 330.5293 118.30469 z M 355.84961 118.30469 L 378.5 118.30469 C 379.48819 118.30469 380.35261 118.50166 381.09375 118.89453 C 381.83489 119.24375 382.57722 119.87627 383.31836 120.79297 C 384.0595 121.70967 384.61576 122.60547 384.98633 123.47852 C 385.38778 124.30791 385.58789 125.35518 385.58789 126.62109 L 385.58789 132.38281 C 385.49525 133.08125 385.35716 133.71377 385.17188 134.28125 C 384.98659 134.84873 384.7225 135.52676 384.38281 136.3125 C 384.04312 137.05459 383.47282 137.90488 382.66992 138.86523 C 382.5464 139.03984 382.34629 139.25762 382.06836 139.51953 C 382.43893 139.8251 382.71511 140.06562 382.90039 140.24023 C 383.45625 140.80771 383.90445 141.37588 384.24414 141.94336 C 384.70735 142.7291 385.0635 143.51504 385.31055 144.30078 C 385.46495 144.78096 385.60304 145.43428 385.72656 146.26367 L 385.72656 152.02734 C 385.72656 153.33691 385.49446 154.51484 385.03125 155.5625 C 384.69156 156.34824 384.07523 157.3084 383.17969 158.44336 C 382.43855 159.44736 381.45008 160.16699 380.21484 160.60352 C 378.97961 161.04004 377.85305 161.25977 376.83398 161.25977 C 376.43253 161.25977 376.07639 161.21426 375.76758 161.12695 L 355.84961 161.12695 L 355.84961 118.30469 z M 388.32812 118.30469 L 398.14844 118.30469 L 398.14844 149.80078 L 413.52734 149.80078 L 413.52734 161.12695 L 388.32812 161.12695 L 388.32812 118.30469 z M 416.375 118.30469 L 442.54688 118.30469 L 442.54688 129.63281 L 425.54688 129.63281 L 425.54688 135.19922 L 442.54688 135.19922 L 442.54688 144.23438 L 425.54688 144.23438 L 425.54688 149.80078 L 442.54688 149.80078 L 442.54688 161.12695 L 416.375 161.12695 L 416.375 118.30469 z M 497.4668 118.30469 L 518.63672 118.30469 L 518.63672 129.76367 L 499.55273 129.76367 L 499.55273 135.46094 L 513.44922 135.46094 C 513.88155 135.46094 514.5759 135.50449 515.5332 135.5918 C 516.52139 135.63545 517.40181 136.071 518.17383 136.90039 C 519.59435 138.47188 520.30469 140.5248 520.30469 143.05664 L 520.30469 153.00781 C 520.30469 154.40469 520.16465 155.60537 519.88672 156.60938 C 519.63967 157.56973 519.19147 158.50908 518.54297 159.42578 C 518.01799 160.12422 517.4477 160.60332 516.83008 160.86523 C 516.21246 161.0835 515.50212 161.19336 514.69922 161.19336 C 514.29777 161.19336 513.94162 161.17061 513.63281 161.12695 L 512.80078 161.12695 L 490.38086 161.12695 L 490.38086 150.51953 L 511.13281 150.51953 L 511.13281 144.88867 L 496.77344 144.88867 C 495.13675 144.88867 493.70008 144.08193 492.46484 142.4668 C 491.07521 140.67705 490.38086 138.53701 490.38086 136.04883 L 490.38086 125.44141 C 490.53526 123.47705 491.13755 121.81807 492.1875 120.46484 C 492.86688 119.54814 493.59126 118.95918 494.36328 118.69727 C 495.16618 118.43535 496.20068 118.30469 497.4668 118.30469 z M 523.13086 118.30469 L 532.30273 118.30469 L 532.30273 137.55469 L 542.95703 118.30469 L 553.33203 118.30469 L 543.92969 135.65625 C 544.17673 135.6126 544.36085 135.5918 544.48438 135.5918 C 545.4108 135.5918 546.4453 135.83232 547.58789 136.3125 C 548.73048 136.79268 549.71895 137.53311 550.55273 138.53711 C 551.60268 139.89033 552.29703 141.52852 552.63672 143.44922 C 552.85288 144.71514 552.96094 146.74531 552.96094 149.53906 L 552.96094 161.12695 L 543.79102 161.12695 L 543.79102 144.23438 L 532.30273 144.23438 L 532.30273 161.12695 L 523.17773 161.12695 L 523.13086 118.30469 z M 555.88086 118.30469 L 565.05273 118.30469 L 565.05273 161.12695 L 555.88086 161.12695 L 555.88086 118.30469 z M 623.82617 118.30469 L 632.99805 118.30469 L 632.99805 161.12695 L 623.82617 161.12695 L 623.82617 118.30469 z M 644.19336 118.30469 L 657.16406 118.30469 C 658.30665 118.39199 659.20111 118.50186 659.84961 118.63281 C 661.76422 119.06934 663.15487 119.87607 664.01953 121.05469 C 664.91508 122.18965 665.53336 123.39033 665.87305 124.65625 C 666.24362 125.92217 666.42773 127.47129 666.42773 129.30469 L 666.42773 150.58594 C 666.42773 152.98682 665.82545 155.16846 664.62109 157.13281 C 663.10793 159.79561 661.19302 161.12695 658.87695 161.12695 L 642.29492 161.12695 C 641.46114 161.12695 640.7508 160.93193 640.16406 160.53906 C 639.60821 160.14619 638.97588 159.53447 638.26562 158.70508 C 637.55537 157.83203 636.98311 156.50068 636.55078 154.71094 C 636.14933 152.92119 635.94922 151.02168 635.94922 149.01367 L 635.94922 130.28711 C 635.94922 129.06484 636.05727 127.84336 636.27344 126.62109 C 636.4896 125.35518 636.87579 124.15449 637.43164 123.01953 C 638.26542 121.36074 639.2219 120.16006 640.30273 119.41797 C 641.38356 118.67588 642.6802 118.30469 644.19336 118.30469 z M 669.51367 118.30469 L 697.76953 118.30469 L 697.76953 128.91211 L 688.45898 128.91211 L 688.45898 161.12695 L 678.82422 161.12695 L 678.82422 128.91211 L 669.51367 128.91211 L 669.51367 118.30469 z M 700.41016 118.30469 L 723.84961 118.30469 C 724.59075 118.30469 725.22307 118.41455 725.74805 118.63281 C 726.27302 118.85107 726.82928 119.24307 727.41602 119.81055 C 729.02182 121.38203 729.82422 123.58643 729.82422 126.42383 L 729.82422 133.10352 C 729.7007 134.36943 729.3465 135.61367 728.75977 136.83594 C 728.45096 137.44707 727.87871 138.1459 727.04492 138.93164 C 726.79788 139.1499 726.41169 139.47559 725.88672 139.91211 C 726.28817 140.21768 726.58229 140.4582 726.76758 140.63281 C 727.35431 141.20029 727.81656 141.7457 728.15625 142.26953 C 729.26796 144.05928 729.82422 145.89248 729.82422 147.76953 L 729.82422 161.12695 L 720.65234 161.12695 L 720.65234 144.23438 L 709.53516 144.23438 L 709.53516 161.12695 L 700.41016 161.12695 L 700.41016 118.30469 z M 299.1582 129.63281 L 299.1582 135.33008 L 310.27539 135.33008 L 310.27539 129.63281 L 299.1582 129.63281 z M 331.45703 129.63281 L 331.45703 149.80078 L 343.5918 149.80078 L 343.5918 129.63281 L 331.45703 129.63281 z M 365.02148 129.63281 L 365.02148 135.52539 L 376.23047 135.52539 L 376.23047 129.63281 L 365.02148 129.63281 z M 600.60742 129.63281 L 600.60742 138.3418 L 611.49414 138.3418 L 611.49414 129.63281 L 600.60742 129.63281 z M 645.12109 129.63281 L 645.12109 149.80078 L 657.25586 149.80078 L 657.25586 129.63281 L 645.12109 129.63281 z M 709.53516 129.63281 L 709.53516 135.33008 L 720.65234 135.33008 L 720.65234 129.63281 L 709.53516 129.63281 z M 365.02148 143.90625 L 365.02148 149.80078 L 376.23047 149.80078 L 376.23047 143.90625 L 365.02148 143.90625 z "
       id="path823"
       inkscape:export-xdpi="200"
       inkscape:export-ydpi="200"
       inkscape:export-filename="C:\Users\Piotrek\Desktop\path823.png"
       transform="scale(0.9375)" />
    <path
       id="path3404"
       style="opacity:1;fill:#0e232e;fill-opacity:1;fill-rule:nonzero;stroke:none;stroke-width:2.90137076;stroke-linecap:butt;stroke-linejoin:bevel;stroke-miterlimit:4;stroke-dasharray:none;stroke-opacity:1"
       d="M 189.55133,527.77981 A 93.715225,94.429512 0 0 1 96.046293,622.20909 93.715225,94.429512 0 0 1 2.1218309,528.20338 93.715225,94.429512 0 0 1 95.205573,433.35244 93.715225,94.429512 0 0 1 189.54756,526.9327 m 448.11115,-93.48234 a 94.419638,94.419638 0 0 0 -7.44872,0.32959 l -531.644907,0 a 94.419628,94.419628 0 0 1 88.152467,94.19494 94.419628,94.419628 0 0 1 -91.226797,94.26087 l 541.104117,0 a 94.419638,94.419638 0 0 0 1.06384,0.0531 94.419638,94.419638 0 0 0 1.50147,-0.0531 l 4.92187,0 0,-0.17395 a 94.419638,94.419638 0 0 0 87.99683,-94.19129 94.419638,94.419638 0 0 0 -94.42017,-94.42016 z m -542.167957,188.7854 -3.51929,0 0,-23.33862 -8.13537,-0.0678 c -1.830668,-0.0154 -3.292998,-1.50367 -3.277588,-3.33435 l 0.15014,-17.80331 a 51.091065,51.091065 0 0 1 -16.08398,-6.83716 l -13.76587,13.537 c -1.334052,1.31177 -3.465414,1.29379 -4.777221,-0.0403 L 35.153839,573.23671 c -1.311812,-1.33406 -1.293779,-3.46358 0.04028,-4.77539 l 13.73474,-13.50769 a 51.091065,51.091065 0 0 1 -6.511226,-16.22678 l -19.313964,-0.16297 c -1.87093,-0.0156 -3.36473,-1.53486 -3.349,-3.40576 l 0.131836,-15.58594 c 0.01574,-1.87092 1.534862,-3.3647 3.405762,-3.34899 l 19.290161,0.16295 a 51.091065,51.091065 0 0 1 6.837158,-16.08398 l -13.536987,-13.7677 c -1.311818,-1.33405 -1.293769,-3.46359 0.04028,-4.77539 l 11.114506,-10.92773 c 1.334056,-1.31181 3.463588,-1.29562 4.77539,0.0385 l 13.50586,13.73657 a 51.091065,51.091065 0 0 1 16.22864,-6.51306 l 0.14831,-17.82715 c 0.0154,-1.83065 1.503678,-3.29115 3.334348,-3.27576 l 6.94153,0.0586 0,-23.26904 6.59362,0 a 94.419628,94.419628 0 0 0 -6.26586,-0.22339 94.419628,94.419628 0 0 0 -94.4201641,94.41833 94.419628,94.419628 0 0 0 94.4201641,94.42018 94.419628,94.419628 0 0 0 3.19153,-0.15931 z m -3.51929,-165.18677 0,41.07605 a 29.875288,29.875288 0 0 1 0.57861,-0.0238 29.875288,29.875288 0 0 1 29.622807,30.12451 29.875288,29.875288 0 0 1 -30.126347,29.62464 29.875288,29.875288 0 0 1 -0.0751,-0.004 l 0,41.05041 7.59521,0.0641 c 1.830667,0.0154 3.318957,-1.44694 3.334347,-3.27759 l 0.14832,-17.82715 a 51.091065,51.091065 0 0 0 16.22864,-6.51123 l 13.50585,13.73474 c 1.3118,1.33408 3.44132,1.35206 4.7754,0.0403 l 11.1145,-10.92773 c 1.33408,-1.31179 1.35206,-3.44317 0.0403,-4.77722 l -13.53699,-13.76587 a 51.091065,51.091065 0 0 0 6.83716,-16.08399 l 19.29016,0.16114 c 1.87091,0.0158 3.38996,-1.47813 3.40576,-3.349 l 0.13184,-15.58594 c 0.0157,-1.87091 -1.47807,-3.39006 -3.349,-3.40576 l -19.31395,-0.16268 a 51.091065,51.091065 0 0 0 -6.51123,-16.2268 l 13.73474,-13.50587 c 1.33408,-1.31179 1.35205,-3.44132 0.0403,-4.77539 l -10.9296,-11.11447 c -1.3118,-1.33405 -3.44134,-1.35209 -4.77539,-0.0403 l -13.76586,13.53698 a 51.091065,51.091065 0 0 0 -16.08399,-6.83716 l 0.15015,-17.80517 c 0.0154,-1.83065 -1.44693,-3.31529 -3.27759,-3.33069 l -8.789057,-0.0751 z m 0,100.79773 0,-59.72168 a 29.875288,29.875288 0 0 0 -29.547728,29.59899 29.875288,29.875288 0 0 0 29.547728,30.12269 z m 220.244747,-70.63111 8.25256,0 -9.12048,12.27722 -8.25074,0 9.11866,-12.27722 z m -75.21241,19.64355 8.55469,0 3.4314,21.23841 3.51745,-21.17797 8.55469,0 -6.47094,40.14587 -8.5968,0 -4.69117,-28.29895 -4.73328,28.29895 -8.59863,0 -6.47095,-40.14587 8.59864,0 3.73535,21.17797 3.16955,-21.23841 z m 187.86987,0 8.55469,0 3.4314,21.23841 3.51745,-21.17797 8.55469,0 -6.47094,40.14587 -8.59863,0 -4.68934,-28.29895 -4.73328,28.29895 -8.59862,0 -6.47095,-40.14587 8.59863,0 3.73536,21.17797 3.16954,-21.23841 z m 142.8003,0 c 1.53439,0 2.96759,0.81849 4.29932,2.45546 0.78167,1.02309 1.31633,2.1469 1.60584,3.37462 0.2895,1.1868 0.43396,2.68177 0.43396,4.48242 l 0,7.48903 c 0,2.08712 -0.49151,4.03125 -1.47583,5.8319 -0.78168,1.39142 -1.65022,2.3519 -2.6056,2.88391 -0.92643,0.4911 -2.09886,0.73792 -3.51745,0.73792 l -11.55213,0 0,12.95105 -8.5968,0 0,-40.14587 20.67078,0 c 0.34741,-0.0409 0.59315,-0.0605 0.73791,-0.0605 z m -303.97522,0.0605 21.97266,0 c 0.69481,0 1.28945,0.103 1.78161,0.30762 0.49217,0.20462 1.01366,0.57212 1.56372,1.10413 1.50545,1.47326 2.2577,3.53989 2.2577,6.19995 l 0,6.26221 c -0.11581,1.18679 -0.44969,2.35326 -0.99976,3.49914 -0.28951,0.57294 -0.82417,1.22809 -1.60583,1.96472 -0.23161,0.20462 -0.59366,0.50995 -1.08582,0.91919 0.37636,0.28647 0.65027,0.51196 0.82397,0.67566 0.55007,0.53201 0.98526,1.04333 1.30372,1.53442 1.04223,1.67789 1.56372,3.39652 1.56372,5.15626 l 0,12.52258 -8.59864,0 0,-15.83679 -10.42236,0 0,15.83679 -8.55469,0 0,-40.14588 z m 37.96509,0 12.16003,0 c 1.07118,0.0818 1.91157,0.18485 2.51954,0.30762 1.79494,0.40924 3.09684,1.16555 3.90747,2.27051 0.83957,1.06402 1.4192,2.18966 1.73766,3.37646 0.34741,1.1868 0.52002,2.6391 0.52002,4.35791 l 0,19.95118 c 0,2.25083 -0.56464,4.29611 -1.69372,6.13769 -1.41859,2.49638 -3.21383,3.74451 -5.38513,3.74451 l -15.54565,0 c -0.78167,0 -1.44762,-0.18283 -1.99769,-0.55115 -0.52111,-0.36832 -1.11391,-0.9418 -1.77978,-1.71936 -0.66587,-0.81848 -1.20236,-2.06662 -1.60767,-3.7445 -0.37636,-1.67789 -0.56396,-3.45868 -0.56396,-5.34119 l 0,-17.55616 c 0,-1.14587 0.1013,-2.29101 0.30396,-3.43689 0.20265,-1.18679 0.56469,-2.31244 1.08581,-3.37646 0.78167,-1.55512 1.67837,-2.68076 2.69165,-3.37647 1.01328,-0.6957 2.22887,-1.0437 3.64746,-1.0437 z m 23.73779,0 21.23474,0 c 0.92643,0 1.73683,0.18466 2.43164,0.55298 0.69482,0.32739 1.39076,0.92038 2.08558,1.77979 0.69482,0.8594 1.21631,1.69922 1.56372,2.5177 0.37636,0.77755 0.56396,1.75937 0.56396,2.94616 l 0,5.40161 c -0.0868,0.65479 -0.21631,1.24778 -0.39001,1.77979 -0.17371,0.53201 -0.42129,1.16767 -0.73975,1.9043 -0.31846,0.69571 -0.85312,1.49285 -1.60584,2.39318 -0.1158,0.1637 -0.3034,0.36787 -0.56396,0.61341 0.34741,0.28647 0.60633,0.51196 0.78003,0.67565 0.52112,0.53202 0.94131,1.06468 1.25977,1.59669 0.43425,0.73663 0.76815,1.47345 0.99975,2.21008 0.14475,0.45017 0.27421,1.06266 0.39001,1.84021 l 0,5.40344 c 0,1.22772 -0.21759,2.33203 -0.65185,3.31422 -0.31846,0.73663 -0.89627,1.63678 -1.73584,2.7008 -0.69482,0.94125 -1.62151,1.6159 -2.77954,2.02515 -1.15803,0.40924 -2.21418,0.61524 -3.16956,0.61524 -0.37636,0 -0.71024,-0.0427 -0.99975,-0.12452 l -18.6731,0 0,-40.14588 z m 30.44861,0 9.20655,0 0,29.52759 14.41772,0 0,10.61829 -23.62427,0 0,-40.14588 z m 26.29395,0 24.53613,0 0,10.62012 -15.9375,0 0,5.21851 15.9375,0 0,8.47046 -15.9375,0 0,5.2185 15.9375,0 0,10.61829 -24.53613,0 0,-40.14588 z m 76.02356,0 19.8468,0 0,10.7428 -17.89124,0 0,5.34119 13.02796,0 c 0.40531,0 1.05626,0.0409 1.95373,0.12268 0.92643,0.0409 1.75182,0.44925 2.47559,1.2268 1.33174,1.47328 1.99768,3.39789 1.99768,5.77149 l 0,9.32922 c 0,1.30958 -0.13129,2.43522 -0.39185,3.37648 -0.23161,0.90032 -0.65179,1.78096 -1.25976,2.64037 -0.49217,0.65479 -1.02682,1.10394 -1.60584,1.34948 -0.57901,0.20463 -1.24496,0.30763 -1.99768,0.30763 -0.37636,0 -0.71025,-0.0214 -0.99976,-0.0622 l -0.78002,0 -21.01868,0 0,-9.94446 19.45495,0 0,-5.27893 -13.46191,0 c -1.53439,0 -2.88127,-0.75632 -4.03931,-2.27051 -1.30278,-1.67789 -1.95373,-3.68418 -1.95373,-6.01684 l 0,-9.94446 c 0.14475,-1.84159 0.7094,-3.39688 1.69373,-4.66554 0.63691,-0.8594 1.31602,-1.41155 2.03979,-1.65709 0.75272,-0.24555 1.72256,-0.36805 2.90955,-0.36805 z m 24.06006,0 8.59862,0 0,18.04688 9.98841,-18.04688 9.72656,0 -8.81469,16.26709 c 0.2316,-0.041 0.40421,-0.0604 0.52002,-0.0604 0.86852,0 1.83836,0.22549 2.90954,0.67566 1.07118,0.45017 1.99787,1.14432 2.77954,2.08557 0.98433,1.26864 1.63528,2.80445 1.95374,4.6051 0.20265,1.1868 0.30396,3.0901 0.30396,5.70924 l 0,10.86364 -8.5968,0 0,-15.83679 -10.77028,0 0,15.83679 -8.55468,0 -0.044,-40.14587 z m 30.70312,0 8.59863,0 0,40.14588 -8.59863,0 0,-40.14588 z m 63.69873,0 8.59864,0 0,40.14588 -8.59864,0 0,-40.14588 z m 19.09424,0 12.16003,0 c 1.07118,0.0818 1.90973,0.18485 2.5177,0.30762 1.79495,0.40924 3.09868,1.16555 3.9093,2.27051 0.83958,1.06402 1.41922,2.18966 1.73768,3.37646 0.34741,1.1868 0.52001,2.6391 0.52001,4.35791 l 0,19.95118 c 0,2.25083 -0.56464,4.29611 -1.69372,6.13769 -1.41859,2.49638 -3.21382,3.74451 -5.38514,3.74451 l -15.54565,0 c -0.78167,0 -1.44761,-0.18283 -1.99768,-0.55115 -0.52111,-0.36832 -1.11392,-0.9418 -1.77979,-1.71936 -0.66586,-0.81848 -1.20235,-2.06662 -1.60766,-3.7445 -0.37636,-1.67789 -0.56396,-3.45868 -0.56396,-5.34119 l 0,-17.55616 c 0,-1.14587 0.10129,-2.29101 0.30395,-3.43689 0.20265,-1.18679 0.56471,-2.31244 1.08582,-3.37646 0.78167,-1.55512 1.67837,-2.68076 2.69164,-3.37647 1.01328,-0.6957 2.22888,-1.0437 3.64747,-1.0437 z m 23.73779,0 26.48987,0 0,9.94446 -8.72864,0 0,30.20142 -9.03259,0 0,-30.20142 -8.72864,0 0,-9.94446 z m 28.96546,0 21.97448,0 c 0.69482,0 1.28762,0.103 1.77979,0.30762 0.49216,0.20462 1.01365,0.57212 1.56372,1.10413 1.50544,1.47326 2.25769,3.53989 2.25769,6.19995 l 0,6.26221 c -0.1158,1.18679 -0.44786,2.35326 -0.99792,3.49914 -0.28951,0.57294 -0.826,1.22809 -1.60767,1.96472 -0.2316,0.20462 -0.59366,0.50995 -1.08582,0.91919 0.37636,0.28647 0.6521,0.51196 0.82581,0.67566 0.55006,0.53201 0.98342,1.04333 1.30188,1.53442 1.04223,1.67789 1.56372,3.39652 1.56372,5.15626 l 0,12.52258 -8.59864,0 0,-15.83679 -10.42235,0 0,15.83679 -8.55469,0 0,-40.14588 z m -376.17371,10.62012 0,5.34119 10.42236,0 0,-5.34119 -10.42236,0 z m 30.28015,0 0,18.90747 11.37635,0 0,-18.90747 -11.37635,0 z m 31.46667,0 0,5.52429 10.50843,0 0,-5.52429 -10.50843,0 z m 220.86182,0 0,8.16468 10.2063,0 0,-8.16468 -10.2063,0 z m 41.73157,0 0,18.90747 11.37634,0 0,-18.90747 -11.37634,0 z m 60.38819,0 0,5.34119 10.42235,0 0,-5.34119 -10.42235,0 z m -322.98158,13.38135 0,5.52612 10.50843,0 0,-5.52612 -10.50843,0 z"
       inkscape:export-filename="C:\Users\Piotrek\Desktop\path3404.png"
       inkscape:export-xdpi="200"
       inkscape:export-ydpi="200"
       inkscape:connector-curvature="0" />
    <path
       id="path1201-3"
       style="display:inline;opacity:1;fill:#0e232e;stroke:none;stroke-width:2.59943151;stroke-miterlimit:4;stroke-dasharray:none"
       d="m 551.71527,249.22879 a 81.191908,81.191908 0 0 0 -81.19164,81.19164 81.191908,81.191908 0 0 0 81.19164,81.19256 81.191908,81.191908 0 0 0 7.80763,-0.45403 81.191913,81.191913 0 0 1 -7.01422,0.41945 l 0,-16.91727 -8.07876,-0.0682 c -1.65808,-0.014 -2.98197,-1.35995 -2.96802,-3.01805 l 0.13558,-16.12478 A 46.274171,46.274171 0 0 1 527.0295,369.2566 l -12.468,12.26055 c -1.20828,1.18808 -3.13831,1.17186 -4.32645,-0.0364 l -9.89851,-10.06593 c -1.18814,-1.20829 -1.17189,-3.13832 0.0364,-4.32644 l 12.4407,-12.23234 a 46.274171,46.274171 0 0 1 -5.89781,-14.6972 l -17.49231,-0.1474 c -1.69454,-0.0143 -3.04687,-1.38995 -3.03261,-3.08447 l 0.11829,-14.11759 c 0.0143,-1.69453 1.38995,-3.04687 3.08446,-3.03261 l 17.47231,0.14649 a 46.274171,46.274171 0 0 1 6.1926,-14.56707 l -12.26146,-12.46891 c -1.18814,-1.20827 -1.17189,-3.13741 0.0364,-4.32554 l 10.06593,-9.89851 c 1.20828,-1.18815 3.13832,-1.1719 4.32645,0.0364 l 12.23325,12.43978 a 46.274171,46.274171 0 0 1 14.69718,-5.89779 l 0.13557,-16.14571 c 0.014,-1.65806 1.36089,-2.98197 3.01896,-2.968 l 6.99784,0.0591 0,-16.91819 a 81.191908,81.191908 0 0 0 -0.79341,-0.0401 z m 0.79341,0.0401 a 81.191908,81.191908 0 0 1 5.68489,0.28387 81.191913,81.191913 0 0 0 -5.68489,-0.28933 z m 5.68489,0.28387 a 81.191913,81.191913 0 0 1 5.44832,0.65966 81.191908,81.191908 0 0 0 -5.44832,-0.65966 z m 5.44832,0.65966 a 81.191908,81.191908 0 0 1 2.59952,0.39307 81.191913,81.191913 0 0 0 -2.59952,-0.39307 z m 2.59952,0.39307 a 81.191913,81.191913 0 0 1 5.35096,1.1983 81.191908,81.191908 0 0 0 -5.35096,-1.1983 z m 5.35096,1.1983 a 81.191908,81.191908 0 0 1 2.54402,0.64965 81.191913,81.191913 0 0 0 -2.54402,-0.64965 z m 2.54402,0.64965 a 81.191913,81.191913 0 0 1 5.17262,1.71511 81.191908,81.191908 0 0 0 -5.17262,-1.71511 z m 5.17262,1.71511 a 81.191908,81.191908 0 0 1 2.52399,0.9217 81.191913,81.191913 0 0 0 -2.52399,-0.9217 z m 2.52399,0.9217 a 81.191913,81.191913 0 0 1 4.90331,2.19189 81.191908,81.191908 0 0 0 -4.90331,-2.19189 z m 4.90331,2.19189 a 81.191908,81.191908 0 0 1 2.4885,1.20194 81.191913,81.191913 0 0 0 -2.4885,-1.20194 z m 2.4885,1.20194 a 81.191913,81.191913 0 0 1 4.59486,2.63318 81.191908,81.191908 0 0 0 -4.59486,-2.63318 z m 4.59486,2.63318 a 81.191908,81.191908 0 0 1 2.41845,1.48218 81.191913,81.191913 0 0 0 -2.41845,-1.48218 z m 2.41845,1.48218 a 81.191913,81.191913 0 0 1 4.2582,3.04262 81.191908,81.191908 0 0 0 -4.2582,-3.04262 z m 4.2582,3.04262 a 81.191908,81.191908 0 0 1 2.30653,1.75332 81.191913,81.191913 0 0 0 -2.30653,-1.75332 z m 2.30653,1.75332 a 81.191913,81.191913 0 0 1 3.87151,3.39838 81.191908,81.191908 0 0 0 -3.87151,-3.39838 z m 3.87151,3.39838 a 81.191908,81.191908 0 0 1 2.18825,2.03903 81.191913,81.191913 0 0 0 -2.18825,-2.03903 z m 2.18825,2.03903 a 81.191913,81.191913 0 0 1 3.44296,3.69226 81.191908,81.191908 0 0 0 -3.44296,-3.69226 z m 3.44296,3.69226 a 81.191908,81.191908 0 0 1 2.04085,2.32291 81.191913,81.191913 0 0 0 -2.04085,-2.32291 z m 2.04085,2.32291 a 81.191913,81.191913 0 0 1 2.98802,3.9261 81.191908,81.191908 0 0 0 -2.98802,-3.9261 z m 2.98802,3.9261 a 81.191908,81.191908 0 0 1 1.87343,2.62044 81.191913,81.191913 0 0 0 -1.87343,-2.62044 z m 1.87343,2.62044 a 81.191913,81.191913 0 0 1 2.50215,4.07623 81.191908,81.191908 0 0 0 -2.50215,-4.07623 z m 2.50215,4.07623 a 81.191908,81.191908 0 0 1 1.67781,2.92525 81.191913,81.191913 0 0 0 -1.67781,-2.92525 z m 1.67781,2.92525 a 81.191913,81.191913 0 0 1 2.02538,4.18906 81.191908,81.191908 0 0 0 -2.02538,-4.18906 z m 2.02538,4.18906 a 81.191908,81.191908 0 0 1 1.42668,3.18728 81.191913,81.191913 0 0 0 -1.42668,-3.18728 z m 1.42668,3.18728 a 81.191913,81.191913 0 0 1 1.55588,4.25548 81.191908,81.191908 0 0 0 -1.55588,-4.25548 z m 1.55588,4.25548 a 81.191908,81.191908 0 0 1 1.14098,3.43477 81.191913,81.191913 0 0 0 -1.14098,-3.43477 z m 1.14098,3.43477 a 81.191913,81.191913 0 0 1 1.09185,4.26731 81.191908,81.191908 0 0 0 -1.09185,-4.26731 z m 1.09185,4.26731 a 81.191908,81.191908 0 0 1 0.8198,3.65495 81.191913,81.191913 0 0 0 -0.8198,-3.65495 z m 0.8198,3.65495 a 81.191913,81.191913 0 0 1 0.63873,4.21272 81.191908,81.191908 0 0 0 -0.63873,-4.21272 z m 0.63873,4.21272 a 81.191908,81.191908 0 0 1 0.46949,3.86696 81.191913,81.191913 0 0 0 -0.46949,-3.86696 z m 0.46949,3.86696 a 81.191913,81.191913 0 0 1 0.35031,6.93778 81.191908,81.191908 0 0 0 -0.35031,-6.93778 z m -80.04794,-57.27745 0,37.18743 a 27.058629,27.058629 0 0 1 26.64292,27.27346 27.058629,27.058629 0 0 1 -26.64292,26.81307 l 0,37.20017 6.16894,0.0519 c 1.65808,0.0139 3.00502,-1.30996 3.01896,-2.968 l 0.13557,-16.14571 a 46.274171,46.274171 0 0 0 14.6972,-5.89871 l 12.23325,12.4407 c 1.18811,1.20828 3.11725,1.22455 4.32553,0.0364 l 10.06593,-9.89851 c 1.20828,-1.18812 1.22453,-3.11726 0.0364,-4.32554 l -12.26055,-12.4689 a 46.274171,46.274171 0 0 0 6.19351,-14.568 l 17.47048,0.1474 c 1.69452,0.0143 3.07111,-1.33902 3.08538,-3.03352 l 0.11828,-14.11668 c 0.0143,-1.69452 -1.33807,-3.07021 -3.0326,-3.08447 l -17.49232,-0.1474 a 46.274171,46.274171 0 0 0 -5.8978,-14.69719 l 12.43979,-12.23324 c 1.20828,-1.18813 1.22452,-3.11634 0.0364,-4.32463 l -9.89851,-10.06684 c -1.18812,-1.20829 -3.11726,-1.22454 -4.32554,-0.0364 l -12.46891,12.26054 a 46.274171,46.274171 0 0 0 -14.56708,-6.19259 l 0.13558,-16.12569 c 0.014,-1.65807 -1.30993,-3.0041 -2.96802,-3.01805 z m 0,91.27396 0,-54.08653 a 27.058629,27.058629 0 0 0 -0.18653,-0.0109 27.058629,27.058629 0 0 0 -27.28618,26.82944 27.058629,27.058629 0 0 0 26.83034,27.28529 27.058629,27.058629 0 0 0 0.64237,-0.0173 z m 7.01422,53.69799 a 81.191913,81.191913 0 0 0 2.77056,-0.33665 81.191908,81.191908 0 0 1 -2.77056,0.33665 z m 2.77056,-0.33665 a 81.191908,81.191908 0 0 0 5.24543,-0.84527 81.191913,81.191913 0 0 1 -5.24543,0.84527 z m 5.24543,-0.84527 a 81.191913,81.191913 0 0 0 2.74054,-0.61508 81.191908,81.191908 0 0 1 -2.74054,0.61508 z m 2.74054,-0.61508 a 81.191908,81.191908 0 0 0 5.11622,-1.35935 81.191913,81.191913 0 0 1 -5.11622,1.35935 z m 5.11622,-1.35935 a 81.191913,81.191913 0 0 0 2.69595,-0.89622 81.191908,81.191908 0 0 1 -2.69595,0.89622 z m 2.69595,-0.89622 a 81.191908,81.191908 0 0 0 4.91241,-1.84796 81.191913,81.191913 0 0 1 -4.91241,1.84796 z m 4.91241,-1.84796 a 81.191913,81.191913 0 0 0 2.63863,-1.1801 81.191908,81.191908 0 0 1 -2.63863,1.1801 z m 2.63863,-1.1801 a 81.191908,81.191908 0 0 0 4.66492,-2.31017 81.191913,81.191913 0 0 1 -4.66492,2.31017 z m 4.66492,-2.31017 a 81.191913,81.191913 0 0 0 2.55129,-1.46399 81.191908,81.191908 0 0 1 -2.55129,1.46399 z m 2.55129,-1.46399 a 81.191908,81.191908 0 0 0 4.35647,-2.72961 81.191913,81.191913 0 0 1 -4.35647,2.72961 z m 4.35647,-2.72961 a 81.191913,81.191913 0 0 0 2.45211,-1.75424 81.191908,81.191908 0 0 1 -2.45211,1.75424 z m 2.45211,-1.75424 a 81.191908,81.191908 0 0 0 4.00071,-3.10267 81.191913,81.191913 0 0 1 -4.00071,3.10267 z m 4.00071,-3.10267 a 81.191913,81.191913 0 0 0 2.33383,-2.04995 81.191908,81.191908 0 0 1 -2.33383,2.04995 z m 2.33383,-2.04995 a 81.191908,81.191908 0 0 0 3.60309,-3.42294 81.191913,81.191913 0 0 1 -3.60309,3.42294 z m 3.60309,-3.42294 a 81.191913,81.191913 0 0 0 2.17824,-2.33928 81.191908,81.191908 0 0 1 -2.17824,2.33928 z m 2.17824,-2.33928 a 81.191908,81.191908 0 0 0 3.17819,-3.68863 81.191913,81.191913 0 0 1 -3.17819,3.68863 z m 3.17819,-3.68863 a 81.191913,81.191913 0 0 0 2.00809,-2.64136 81.191908,81.191908 0 0 1 -2.00809,2.64136 z m 2.00809,-2.64136 a 81.191908,81.191908 0 0 0 2.72689,-3.89335 81.191913,81.191913 0 0 1 -2.72689,3.89335 z m 2.72689,-3.89335 a 81.191913,81.191913 0 0 0 1.78335,-2.90887 81.191908,81.191908 0 0 1 -1.78335,2.90887 z m 1.78335,-2.90887 a 81.191908,81.191908 0 0 0 2.28105,-4.06804 81.191913,81.191913 0 0 1 -2.28105,4.06804 z m 2.28105,-4.06804 a 81.191913,81.191913 0 0 0 1.52769,-3.16272 81.191908,81.191908 0 0 1 -1.52769,3.16272 z m 1.52769,-3.16272 a 81.191908,81.191908 0 0 0 1.81792,-4.17177 81.191913,81.191913 0 0 1 -1.81792,4.17177 z m 1.81792,-4.17177 a 81.191913,81.191913 0 0 0 1.24561,-3.4102 81.191908,81.191908 0 0 1 -1.24561,3.4102 z m 1.24561,-3.4102 a 81.191908,81.191908 0 0 0 1.35754,-4.22455 81.191913,81.191913 0 0 1 -1.35754,4.22455 z m 1.35754,-4.22455 a 81.191913,81.191913 0 0 0 0.92807,-3.63403 81.191908,81.191908 0 0 1 -0.92807,3.63403 z m 0.92807,-3.63403 a 81.191908,81.191908 0 0 0 0.90259,-4.2109 81.191913,81.191913 0 0 1 -0.90259,4.2109 z m 0.90259,-4.2109 a 81.191913,81.191913 0 0 0 0.58051,-3.84149 81.191908,81.191908 0 0 1 -0.58051,3.84149 z m 0.58051,-3.84149 a 81.191908,81.191908 0 0 0 0.46312,-4.15448 81.191913,81.191913 0 0 1 -0.46312,4.15448 z m 0.46312,-4.15448 a 81.191913,81.191913 0 0 0 0.32391,-6.46647 81.191908,81.191908 0 0 1 -0.32391,6.46647 z m 6.13607,-6.47424 a 87.004257,87.004257 0 0 1 -86.80914,87.00405 87.004257,87.004257 0 0 1 -87.19851,-86.61379 87.004257,87.004257 0 0 1 86.418,-87.39255 87.004257,87.004257 0 0 1 87.58615,86.22179"
       inkscape:connector-curvature="0" />
    <rect
       style="display:inline;opacity:1;fill:#0e232e;fill-opacity:1;fill-rule:nonzero;stroke:none;stroke-width:3.18897629;stroke-linecap:butt;stroke-linejoin:bevel;stroke-miterlimit:4;stroke-dasharray:none;stroke-opacity:1"
       id="rect3451-4-3-81"
       width="25"
       height="25"
       x="130.28952"
       y="688.74811"
       ry="0" />
    <rect
       style="display:inline;opacity:1;fill:#0e232e;fill-opacity:1;fill-rule:nonzero;stroke:none;stroke-width:3.18897629;stroke-linecap:butt;stroke-linejoin:bevel;stroke-miterlimit:4;stroke-dasharray:none;stroke-opacity:1"
       id="rect3451-4-3-0-8"
       width="25"
       height="25"
       x="160.28952"
       y="688.74811"
       ry="0" />
    <rect
       style="display:inline;opacity:1;fill:#0e232e;fill-opacity:1;fill-rule:nonzero;stroke:none;stroke-width:3.18897629;stroke-linecap:butt;stroke-linejoin:bevel;stroke-miterlimit:4;stroke-dasharray:none;stroke-opacity:1"
       id="rect3451-4-3-7-4"
       width="25"
       height="25"
       x="130.28952"
       y="718.74811"
       ry="0" />
    <rect
       style="display:inline;opacity:1;fill:#0e232e;fill-opacity:1;fill-rule:nonzero;stroke:none;stroke-width:3.18897629;stroke-linecap:butt;stroke-linejoin:bevel;stroke-miterlimit:4;stroke-dasharray:none;stroke-opacity:1"
       id="rect3451-4-3-0-0-5"
       width="25"
       height="25"
       x="160.28952"
       y="718.74811"
       ry="0" />
    <rect
       style="display:inline;opacity:1;fill:#0e232e;fill-opacity:1;fill-rule:nonzero;stroke:none;stroke-width:3.18897629;stroke-linecap:butt;stroke-linejoin:bevel;stroke-miterlimit:4;stroke-dasharray:none;stroke-opacity:1"
       id="rect3451-4-3-5-6"
       width="25"
       height="25"
       x="190.28952"
       y="688.74811"
       ry="0" />
    <rect
       style="display:inline;opacity:1;fill:#0e232e;fill-opacity:1;fill-rule:nonzero;stroke:none;stroke-width:3.18897629;stroke-linecap:butt;stroke-linejoin:bevel;stroke-miterlimit:4;stroke-dasharray:none;stroke-opacity:1"
       id="rect3451-4-3-0-7-5"
       width="25"
       height="25"
       x="220.28952"
       y="688.74811"
       ry="0" />
    <rect
       style="display:inline;opacity:1;fill:#0e232e;fill-opacity:1;fill-rule:nonzero;stroke:none;stroke-width:3.18897629;stroke-linecap:butt;stroke-linejoin:bevel;stroke-miterlimit:4;stroke-dasharray:none;stroke-opacity:1"
       id="rect3451-4-3-7-9-62"
       width="25"
       height="25"
       x="190.28952"
       y="718.74811"
       ry="0" />
    <rect
       style="display:inline;opacity:1;fill:#0e232e;fill-opacity:1;fill-rule:nonzero;stroke:none;stroke-width:3.18897629;stroke-linecap:butt;stroke-linejoin:bevel;stroke-miterlimit:4;stroke-dasharray:none;stroke-opacity:1"
       id="rect3451-4-3-0-0-8-9"
       width="25"
       height="25"
       x="220.28952"
       y="718.74811"
       ry="0" />
    <rect
       style="display:inline;opacity:1;fill:#0e232e;fill-opacity:1;fill-rule:nonzero;stroke:none;stroke-width:3.18897629;stroke-linecap:butt;stroke-linejoin:bevel;stroke-miterlimit:4;stroke-dasharray:none;stroke-opacity:1"
       id="rect3451-4-3-6-5"
       width="25"
       height="25"
       x="130.28952"
       y="748.74811"
       ry="0" />
    <rect
       style="display:inline;opacity:1;fill:#0e232e;fill-opacity:1;fill-rule:nonzero;stroke:none;stroke-width:3.18897629;stroke-linecap:butt;stroke-linejoin:bevel;stroke-miterlimit:4;stroke-dasharray:none;stroke-opacity:1"
       id="rect3451-4-3-0-4-2"
       width="25"
       height="25"
       x="160.28952"
       y="748.74811"
       ry="0" />
    <rect
       style="display:inline;opacity:1;fill:#0e232e;fill-opacity:1;fill-rule:nonzero;stroke:none;stroke-width:3.18897629;stroke-linecap:butt;stroke-linejoin:bevel;stroke-miterlimit:4;stroke-dasharray:none;stroke-opacity:1"
       id="rect3451-4-3-7-5-4"
       width="25"
       height="25"
       x="130.28952"
       y="778.74811"
       ry="0" />
    <rect
       style="display:inline;opacity:1;fill:#0e232e;fill-opacity:1;fill-rule:nonzero;stroke:none;stroke-width:3.18897629;stroke-linecap:butt;stroke-linejoin:bevel;stroke-miterlimit:4;stroke-dasharray:none;stroke-opacity:1"
       id="rect3451-4-3-0-0-7-1"
       width="25"
       height="25"
       x="160.28952"
       y="778.74811"
       ry="0" />
    <rect
       style="display:inline;opacity:1;fill:#0e232e;fill-opacity:1;fill-rule:nonzero;stroke:none;stroke-width:3.18897629;stroke-linecap:butt;stroke-linejoin:bevel;stroke-miterlimit:4;stroke-dasharray:none;stroke-opacity:1"
       id="rect3451-4-3-5-4-0"
       width="25"
       height="25"
       x="190.28952"
       y="748.74811"
       ry="0" />
    <rect
       style="display:inline;opacity:1;fill:#0e232e;fill-opacity:1;fill-rule:nonzero;stroke:none;stroke-width:3.18897629;stroke-linecap:butt;stroke-linejoin:bevel;stroke-miterlimit:4;stroke-dasharray:none;stroke-opacity:1"
       id="rect3451-4-3-0-7-3-67"
       width="25"
       height="25"
       x="220.28952"
       y="748.74811"
       ry="0" />
    <rect
       style="display:inline;opacity:1;fill:#0e232e;fill-opacity:1;fill-rule:nonzero;stroke:none;stroke-width:3.18897629;stroke-linecap:butt;stroke-linejoin:bevel;stroke-miterlimit:4;stroke-dasharray:none;stroke-opacity:1"
       id="rect3451-4-3-7-9-8-9"
       width="25"
       height="25"
       x="190.28952"
       y="778.74811"
       ry="0" />
    <rect
       style="display:inline;opacity:1;fill:#0e232e;fill-opacity:1;fill-rule:nonzero;stroke:none;stroke-width:3.18897629;stroke-linecap:butt;stroke-linejoin:bevel;stroke-miterlimit:4;stroke-dasharray:none;stroke-opacity:1"
       id="rect3451-4-3-0-0-8-1-8"
       width="25"
       height="25"
       x="220.28952"
       y="778.74811"
       ry="0" />
    <rect
       style="display:inline;opacity:1;fill:#0e232e;fill-opacity:1;fill-rule:nonzero;stroke:none;stroke-width:3.18897629;stroke-linecap:butt;stroke-linejoin:bevel;stroke-miterlimit:4;stroke-dasharray:none;stroke-opacity:1"
       id="rect3451-4-3-8-3"
       width="25"
       height="25"
       x="250.28952"
       y="688.74811"
       ry="0" />
    <rect
       style="display:inline;opacity:1;fill:#0e232e;fill-opacity:1;fill-rule:nonzero;stroke:none;stroke-width:3.18897629;stroke-linecap:butt;stroke-linejoin:bevel;stroke-miterlimit:4;stroke-dasharray:none;stroke-opacity:1"
       id="rect3451-4-3-0-08-6"
       width="25"
       height="25"
       x="280.28952"
       y="688.74811"
       ry="0" />
    <rect
       style="display:inline;opacity:1;fill:#0e232e;fill-opacity:1;fill-rule:nonzero;stroke:none;stroke-width:3.18897629;stroke-linecap:butt;stroke-linejoin:bevel;stroke-miterlimit:4;stroke-dasharray:none;stroke-opacity:1"
       id="rect3451-4-3-7-57-9"
       width="25"
       height="25"
       x="250.28952"
       y="718.74811"
       ry="0" />
    <rect
       style="display:inline;opacity:1;fill:#0e232e;fill-opacity:1;fill-rule:nonzero;stroke:none;stroke-width:3.18897629;stroke-linecap:butt;stroke-linejoin:bevel;stroke-miterlimit:4;stroke-dasharray:none;stroke-opacity:1"
       id="rect3451-4-3-0-0-77-4"
       width="25"
       height="25"
       x="280.28952"
       y="718.74811"
       ry="0" />
    <rect
       style="display:inline;opacity:1;fill:#0e232e;fill-opacity:1;fill-rule:nonzero;stroke:none;stroke-width:3.18897629;stroke-linecap:butt;stroke-linejoin:bevel;stroke-miterlimit:4;stroke-dasharray:none;stroke-opacity:1"
       id="rect3451-4-3-5-5-6"
       width="25"
       height="25"
       x="310.28952"
       y="688.74811"
       ry="0" />
    <rect
       style="display:inline;opacity:1;fill:#0e232e;fill-opacity:1;fill-rule:nonzero;stroke:none;stroke-width:3.18897629;stroke-linecap:butt;stroke-linejoin:bevel;stroke-miterlimit:4;stroke-dasharray:none;stroke-opacity:1"
       id="rect3451-4-3-0-7-2-46"
       width="25"
       height="25"
       x="340.28952"
       y="688.74811"
       ry="0" />
    <rect
       style="display:inline;opacity:1;fill:#0e232e;fill-opacity:1;fill-rule:nonzero;stroke:none;stroke-width:3.18897629;stroke-linecap:butt;stroke-linejoin:bevel;stroke-miterlimit:4;stroke-dasharray:none;stroke-opacity:1"
       id="rect3451-4-3-7-9-5-6"
       width="25"
       height="25"
       x="310.28952"
       y="718.74811"
       ry="0" />
    <rect
       style="display:inline;opacity:1;fill:#0e232e;fill-opacity:1;fill-rule:nonzero;stroke:none;stroke-width:3.18897629;stroke-linecap:butt;stroke-linejoin:bevel;stroke-miterlimit:4;stroke-dasharray:none;stroke-opacity:1"
       id="rect3451-4-3-0-0-8-5-4"
       width="25"
       height="25"
       x="340.28952"
       y="718.74811"
       ry="0" />
    <rect
       style="display:inline;opacity:1;fill:#0e232e;fill-opacity:1;fill-rule:nonzero;stroke:none;stroke-width:3.18897629;stroke-linecap:butt;stroke-linejoin:bevel;stroke-miterlimit:4;stroke-dasharray:none;stroke-opacity:1"
       id="rect3451-4-3-6-3-4"
       width="25"
       height="25"
       x="250.28952"
       y="748.74811"
       ry="0" />
    <rect
       style="display:inline;opacity:1;fill:#0e232e;fill-opacity:1;fill-rule:nonzero;stroke:none;stroke-width:3.18897629;stroke-linecap:butt;stroke-linejoin:bevel;stroke-miterlimit:4;stroke-dasharray:none;stroke-opacity:1"
       id="rect3451-4-3-0-4-3-4"
       width="25"
       height="25"
       x="280.28952"
       y="748.74811"
       ry="0" />
    <rect
       style="display:inline;opacity:1;fill:#0e232e;fill-opacity:1;fill-rule:nonzero;stroke:none;stroke-width:3.18897629;stroke-linecap:butt;stroke-linejoin:bevel;stroke-miterlimit:4;stroke-dasharray:none;stroke-opacity:1"
       id="rect3451-4-3-7-5-6-7"
       width="25"
       height="25"
       x="250.28952"
       y="778.74811"
       ry="0" />
    <rect
       style="display:inline;opacity:1;fill:#0e232e;fill-opacity:1;fill-rule:nonzero;stroke:none;stroke-width:3.18897629;stroke-linecap:butt;stroke-linejoin:bevel;stroke-miterlimit:4;stroke-dasharray:none;stroke-opacity:1"
       id="rect3451-4-3-0-0-7-2-2"
       width="25"
       height="25"
       x="280.28952"
       y="778.74811"
       ry="0" />
    <rect
       style="display:inline;opacity:1;fill:#0e232e;fill-opacity:1;fill-rule:nonzero;stroke:none;stroke-width:3.18897629;stroke-linecap:butt;stroke-linejoin:bevel;stroke-miterlimit:4;stroke-dasharray:none;stroke-opacity:1"
       id="rect3451-4-3-5-4-8-7"
       width="25"
       height="25"
       x="310.28952"
       y="748.74811"
       ry="0" />
    <rect
       style="display:inline;opacity:1;fill:#0e232e;fill-opacity:1;fill-rule:nonzero;stroke:none;stroke-width:3.18897629;stroke-linecap:butt;stroke-linejoin:bevel;stroke-miterlimit:4;stroke-dasharray:none;stroke-opacity:1"
       id="rect3451-4-3-0-7-3-6-3"
       width="25"
       height="25"
       x="340.28952"
       y="748.74811"
       ry="0" />
    <rect
       style="display:inline;opacity:1;fill:#0e232e;fill-opacity:1;fill-rule:nonzero;stroke:none;stroke-width:3.18897629;stroke-linecap:butt;stroke-linejoin:bevel;stroke-miterlimit:4;stroke-dasharray:none;stroke-opacity:1"
       id="rect3451-4-3-7-9-8-0-4"
       width="25"
       height="25"
       x="310.28952"
       y="778.74811"
       ry="0" />
    <rect
       style="display:inline;opacity:1;fill:#0e232e;fill-opacity:1;fill-rule:nonzero;stroke:none;stroke-width:3.18897629;stroke-linecap:butt;stroke-linejoin:bevel;stroke-miterlimit:4;stroke-dasharray:none;stroke-opacity:1"
       id="rect3451-4-3-0-0-8-1-6-5"
       width="25"
       height="25"
       x="340.28952"
       y="778.74811"
       ry="0" />
    <rect
       style="display:inline;opacity:1;fill:#0e232e;fill-opacity:1;fill-rule:nonzero;stroke:none;stroke-width:3.18897629;stroke-linecap:butt;stroke-linejoin:bevel;stroke-miterlimit:4;stroke-dasharray:none;stroke-opacity:1"
       id="rect3451-4-3-03-1"
       width="25"
       height="25"
       x="130.28952"
       y="808.74811"
       ry="0" />
    <rect
       style="display:inline;opacity:1;fill:#0e232e;fill-opacity:1;fill-rule:nonzero;stroke:none;stroke-width:3.18897629;stroke-linecap:butt;stroke-linejoin:bevel;stroke-miterlimit:4;stroke-dasharray:none;stroke-opacity:1"
       id="rect3451-4-3-0-9-5"
       width="25"
       height="25"
       x="160.28952"
       y="808.74811"
       ry="0" />
    <rect
       style="display:inline;opacity:1;fill:#0e232e;fill-opacity:1;fill-rule:nonzero;stroke:none;stroke-width:3.18897629;stroke-linecap:butt;stroke-linejoin:bevel;stroke-miterlimit:4;stroke-dasharray:none;stroke-opacity:1"
       id="rect3451-4-3-7-2-5"
       width="25"
       height="25"
       x="130.28952"
       y="838.74811"
       ry="0" />
    <rect
       style="display:inline;opacity:1;fill:#0e232e;fill-opacity:1;fill-rule:nonzero;stroke:none;stroke-width:3.18897629;stroke-linecap:butt;stroke-linejoin:bevel;stroke-miterlimit:4;stroke-dasharray:none;stroke-opacity:1"
       id="rect3451-4-3-0-0-6-4"
       width="25"
       height="25"
       x="160.28952"
       y="838.74811"
       ry="0" />
    <rect
       style="display:inline;opacity:1;fill:#0e232e;fill-opacity:1;fill-rule:nonzero;stroke:none;stroke-width:3.18897629;stroke-linecap:butt;stroke-linejoin:bevel;stroke-miterlimit:4;stroke-dasharray:none;stroke-opacity:1"
       id="rect3451-4-3-5-3-5"
       width="25"
       height="25"
       x="190.28952"
       y="808.74811"
       ry="0" />
    <rect
       style="display:inline;opacity:1;fill:#0e232e;fill-opacity:1;fill-rule:nonzero;stroke:none;stroke-width:3.18897629;stroke-linecap:butt;stroke-linejoin:bevel;stroke-miterlimit:4;stroke-dasharray:none;stroke-opacity:1"
       id="rect3451-4-3-0-7-0-1"
       width="25"
       height="25"
       x="220.28952"
       y="808.74811"
       ry="0" />
    <rect
       style="display:inline;opacity:1;fill:#0e232e;fill-opacity:1;fill-rule:nonzero;stroke:none;stroke-width:3.18897629;stroke-linecap:butt;stroke-linejoin:bevel;stroke-miterlimit:4;stroke-dasharray:none;stroke-opacity:1"
       id="rect3451-4-3-7-9-6-1"
       width="25"
       height="25"
       x="190.28952"
       y="838.74811"
       ry="0" />
    <rect
       style="display:inline;opacity:1;fill:#0e232e;fill-opacity:1;fill-rule:nonzero;stroke:none;stroke-width:3.18897629;stroke-linecap:butt;stroke-linejoin:bevel;stroke-miterlimit:4;stroke-dasharray:none;stroke-opacity:1"
       id="rect3451-4-3-0-0-8-4-6"
       width="25"
       height="25"
       x="220.28952"
       y="838.74811"
       ry="0" />
    <rect
       style="display:inline;opacity:1;fill:#0e232e;fill-opacity:1;fill-rule:nonzero;stroke:none;stroke-width:3.18897629;stroke-linecap:butt;stroke-linejoin:bevel;stroke-miterlimit:4;stroke-dasharray:none;stroke-opacity:1"
       id="rect3451-4-3-6-1-0"
       width="25"
       height="25"
       x="130.28952"
       y="868.74811"
       ry="0" />
    <rect
       style="display:inline;opacity:1;fill:#0e232e;fill-opacity:1;fill-rule:nonzero;stroke:none;stroke-width:3.18897629;stroke-linecap:butt;stroke-linejoin:bevel;stroke-miterlimit:4;stroke-dasharray:none;stroke-opacity:1"
       id="rect3451-4-3-0-4-9-5"
       width="25"
       height="25"
       x="160.28952"
       y="868.74811"
       ry="0" />
    <rect
       style="display:inline;opacity:1;fill:#0e232e;fill-opacity:1;fill-rule:nonzero;stroke:none;stroke-width:3.18897629;stroke-linecap:butt;stroke-linejoin:bevel;stroke-miterlimit:4;stroke-dasharray:none;stroke-opacity:1"
       id="rect3451-4-3-7-5-1-34"
       width="25"
       height="25"
       x="130.28952"
       y="898.74811"
       ry="0" />
    <rect
       style="display:inline;opacity:1;fill:#0e232e;fill-opacity:1;fill-rule:nonzero;stroke:none;stroke-width:3.18897629;stroke-linecap:butt;stroke-linejoin:bevel;stroke-miterlimit:4;stroke-dasharray:none;stroke-opacity:1"
       id="rect3451-4-3-0-0-7-9-30"
       width="25"
       height="25"
       x="160.28952"
       y="898.74811"
       ry="0" />
    <rect
       style="display:inline;opacity:1;fill:#0e232e;fill-opacity:1;fill-rule:nonzero;stroke:none;stroke-width:3.18897629;stroke-linecap:butt;stroke-linejoin:bevel;stroke-miterlimit:4;stroke-dasharray:none;stroke-opacity:1"
       id="rect3451-4-3-5-4-5-4"
       width="25"
       height="25"
       x="190.28952"
       y="868.74811"
       ry="0" />
    <rect
       style="display:inline;opacity:1;fill:#0e232e;fill-opacity:1;fill-rule:nonzero;stroke:none;stroke-width:3.18897629;stroke-linecap:butt;stroke-linejoin:bevel;stroke-miterlimit:4;stroke-dasharray:none;stroke-opacity:1"
       id="rect3451-4-3-0-7-3-2-7"
       width="25"
       height="25"
       x="220.28952"
       y="868.74811"
       ry="0" />
    <rect
       style="display:inline;opacity:1;fill:#0e232e;fill-opacity:1;fill-rule:nonzero;stroke:none;stroke-width:3.18897629;stroke-linecap:butt;stroke-linejoin:bevel;stroke-miterlimit:4;stroke-dasharray:none;stroke-opacity:1"
       id="rect3451-4-3-7-9-8-02-1"
       width="25"
       height="25"
       x="190.28952"
       y="898.74811"
       ry="0" />
    <rect
       style="display:inline;opacity:1;fill:#0e232e;fill-opacity:1;fill-rule:nonzero;stroke:none;stroke-width:3.18897629;stroke-linecap:butt;stroke-linejoin:bevel;stroke-miterlimit:4;stroke-dasharray:none;stroke-opacity:1"
       id="rect3451-4-3-0-0-8-1-5-1"
       width="25"
       height="25"
       x="220.28952"
       y="898.74811"
       ry="0" />
    <rect
       style="display:inline;opacity:1;fill:#0e232e;fill-opacity:1;fill-rule:nonzero;stroke:none;stroke-width:3.18897629;stroke-linecap:butt;stroke-linejoin:bevel;stroke-miterlimit:4;stroke-dasharray:none;stroke-opacity:1"
       id="rect3451-4-3-8-4-4"
       width="25"
       height="25"
       x="250.28952"
       y="808.74811"
       ry="0" />
    <rect
       style="display:inline;opacity:1;fill:#0e232e;fill-opacity:1;fill-rule:nonzero;stroke:none;stroke-width:3.18897629;stroke-linecap:butt;stroke-linejoin:bevel;stroke-miterlimit:4;stroke-dasharray:none;stroke-opacity:1"
       id="rect3451-4-3-0-08-8-5"
       width="25"
       height="25"
       x="280.28952"
       y="808.74811"
       ry="0" />
    <rect
       style="display:inline;opacity:1;fill:#0e232e;fill-opacity:1;fill-rule:nonzero;stroke:none;stroke-width:3.18897629;stroke-linecap:butt;stroke-linejoin:bevel;stroke-miterlimit:4;stroke-dasharray:none;stroke-opacity:1"
       id="rect3451-4-3-7-57-7-0"
       width="25"
       height="25"
       x="250.28952"
       y="838.74811"
       ry="0" />
    <rect
       style="display:inline;opacity:1;fill:#0e232e;fill-opacity:1;fill-rule:nonzero;stroke:none;stroke-width:3.18897629;stroke-linecap:butt;stroke-linejoin:bevel;stroke-miterlimit:4;stroke-dasharray:none;stroke-opacity:1"
       id="rect3451-4-3-0-0-77-0-9"
       width="25"
       height="25"
       x="280.28952"
       y="838.74811"
       ry="0" />
    <rect
       style="display:inline;opacity:1;fill:#0e232e;fill-opacity:1;fill-rule:nonzero;stroke:none;stroke-width:3.18897629;stroke-linecap:butt;stroke-linejoin:bevel;stroke-miterlimit:4;stroke-dasharray:none;stroke-opacity:1"
       id="rect3451-4-3-5-5-4-0"
       width="25"
       height="25"
       x="310.28952"
       y="808.74811"
       ry="0" />
    <rect
       style="display:inline;opacity:1;fill:#0e232e;fill-opacity:1;fill-rule:nonzero;stroke:none;stroke-width:3.18897629;stroke-linecap:butt;stroke-linejoin:bevel;stroke-miterlimit:4;stroke-dasharray:none;stroke-opacity:1"
       id="rect3451-4-3-0-7-2-0-20"
       width="25"
       height="25"
       x="340.28952"
       y="808.74811"
       ry="0" />
    <rect
       style="display:inline;opacity:1;fill:#0e232e;fill-opacity:1;fill-rule:nonzero;stroke:none;stroke-width:3.18897629;stroke-linecap:butt;stroke-linejoin:bevel;stroke-miterlimit:4;stroke-dasharray:none;stroke-opacity:1"
       id="rect3451-4-3-7-9-5-2-2"
       width="25"
       height="25"
       x="310.28952"
       y="838.74811"
       ry="0" />
    <rect
       style="display:inline;opacity:1;fill:#0e232e;fill-opacity:1;fill-rule:nonzero;stroke:none;stroke-width:3.18897629;stroke-linecap:butt;stroke-linejoin:bevel;stroke-miterlimit:4;stroke-dasharray:none;stroke-opacity:1"
       id="rect3451-4-3-0-0-8-5-2-5"
       width="25"
       height="25"
       x="340.28952"
       y="838.74811"
       ry="0" />
    <rect
       style="display:inline;opacity:1;fill:#0e232e;fill-opacity:1;fill-rule:nonzero;stroke:none;stroke-width:3.18897629;stroke-linecap:butt;stroke-linejoin:bevel;stroke-miterlimit:4;stroke-dasharray:none;stroke-opacity:1"
       id="rect3451-4-3-6-3-1-3"
       width="25"
       height="25"
       x="250.28952"
       y="868.74811"
       ry="0" />
    <rect
       style="display:inline;opacity:1;fill:#0e232e;fill-opacity:1;fill-rule:nonzero;stroke:none;stroke-width:3.18897629;stroke-linecap:butt;stroke-linejoin:bevel;stroke-miterlimit:4;stroke-dasharray:none;stroke-opacity:1"
       id="rect3451-4-3-0-4-3-5-6"
       width="25"
       height="25"
       x="280.28952"
       y="868.74811"
       ry="0" />
    <rect
       style="display:inline;opacity:1;fill:#0e232e;fill-opacity:1;fill-rule:nonzero;stroke:none;stroke-width:3.18897629;stroke-linecap:butt;stroke-linejoin:bevel;stroke-miterlimit:4;stroke-dasharray:none;stroke-opacity:1"
       id="rect3451-4-3-7-5-6-0-7"
       width="25"
       height="25"
       x="250.28952"
       y="898.74811"
       ry="0" />
    <rect
       style="display:inline;opacity:1;fill:#0e232e;fill-opacity:1;fill-rule:nonzero;stroke:none;stroke-width:3.18897629;stroke-linecap:butt;stroke-linejoin:bevel;stroke-miterlimit:4;stroke-dasharray:none;stroke-opacity:1"
       id="rect3451-4-3-0-0-7-2-0-3"
       width="25"
       height="25"
       x="280.28952"
       y="898.74811"
       ry="0" />
    <rect
       style="display:inline;opacity:1;fill:#0e232e;fill-opacity:1;fill-rule:nonzero;stroke:none;stroke-width:3.18897629;stroke-linecap:butt;stroke-linejoin:bevel;stroke-miterlimit:4;stroke-dasharray:none;stroke-opacity:1"
       id="rect3451-4-3-5-4-8-3-87"
       width="25"
       height="25"
       x="310.28952"
       y="868.74811"
       ry="0" />
    <rect
       style="display:inline;opacity:1;fill:#0e232e;fill-opacity:1;fill-rule:nonzero;stroke:none;stroke-width:3.18897629;stroke-linecap:butt;stroke-linejoin:bevel;stroke-miterlimit:4;stroke-dasharray:none;stroke-opacity:1"
       id="rect3451-4-3-0-7-3-6-5-47"
       width="25"
       height="25"
       x="340.28952"
       y="868.74811"
       ry="0" />
    <rect
       style="display:inline;opacity:1;fill:#0e232e;fill-opacity:1;fill-rule:nonzero;stroke:none;stroke-width:3.18897629;stroke-linecap:butt;stroke-linejoin:bevel;stroke-miterlimit:4;stroke-dasharray:none;stroke-opacity:1"
       id="rect3451-4-3-7-9-8-0-6-1"
       width="25"
       height="25"
       x="310.28952"
       y="898.74811"
       ry="0" />
    <rect
       style="display:inline;opacity:1;fill:#0e232e;fill-opacity:1;fill-rule:nonzero;stroke:none;stroke-width:3.18897629;stroke-linecap:butt;stroke-linejoin:bevel;stroke-miterlimit:4;stroke-dasharray:none;stroke-opacity:1"
       id="rect3451-4-3-0-0-8-1-6-0-6"
       width="25"
       height="25"
       x="340.28952"
       y="898.74811"
       ry="0" />
    <rect
       style="display:inline;opacity:1;fill:#0e232e;fill-opacity:1;fill-rule:nonzero;stroke:none;stroke-width:3.18897629;stroke-linecap:butt;stroke-linejoin:bevel;stroke-miterlimit:4;stroke-dasharray:none;stroke-opacity:1"
       id="rect3451-4-3-5-5-7-7"
       width="25"
       height="25"
       x="370.28952"
       y="688.74811"
       ry="0" />
    <rect
       style="display:inline;opacity:1;fill:#0e232e;fill-opacity:1;fill-rule:nonzero;stroke:none;stroke-width:3.18897629;stroke-linecap:butt;stroke-linejoin:bevel;stroke-miterlimit:4;stroke-dasharray:none;stroke-opacity:1"
       id="rect3451-4-3-0-7-2-4-4"
       width="25"
       height="25"
       x="400.28952"
       y="688.74811"
       ry="0" />
    <rect
       style="display:inline;opacity:1;fill:#0e232e;fill-opacity:1;fill-rule:nonzero;stroke:none;stroke-width:3.18897629;stroke-linecap:butt;stroke-linejoin:bevel;stroke-miterlimit:4;stroke-dasharray:none;stroke-opacity:1"
       id="rect3451-4-3-7-9-5-1-5"
       width="25"
       height="25"
       x="370.28952"
       y="718.74811"
       ry="0" />
    <rect
       style="display:inline;opacity:1;fill:#0e232e;fill-opacity:1;fill-rule:nonzero;stroke:none;stroke-width:3.18897629;stroke-linecap:butt;stroke-linejoin:bevel;stroke-miterlimit:4;stroke-dasharray:none;stroke-opacity:1"
       id="rect3451-4-3-0-0-8-5-3-4"
       width="25"
       height="25"
       x="400.28952"
       y="718.74811"
       ry="0" />
    <rect
       style="display:inline;opacity:1;fill:#0e232e;fill-opacity:1;fill-rule:nonzero;stroke:none;stroke-width:3.18897629;stroke-linecap:butt;stroke-linejoin:bevel;stroke-miterlimit:4;stroke-dasharray:none;stroke-opacity:1"
       id="rect3451-4-3-5-4-8-5-4"
       width="25"
       height="25"
       x="370.28952"
       y="748.74811"
       ry="0" />
    <rect
       style="display:inline;opacity:1;fill:#0e232e;fill-opacity:1;fill-rule:nonzero;stroke:none;stroke-width:3.18897629;stroke-linecap:butt;stroke-linejoin:bevel;stroke-miterlimit:4;stroke-dasharray:none;stroke-opacity:1"
       id="rect3451-4-3-0-7-3-6-6-3"
       width="25"
       height="25"
       x="400.28952"
       y="748.74811"
       ry="0" />
    <rect
       style="display:inline;opacity:1;fill:#0e232e;fill-opacity:1;fill-rule:nonzero;stroke:none;stroke-width:3.18897629;stroke-linecap:butt;stroke-linejoin:bevel;stroke-miterlimit:4;stroke-dasharray:none;stroke-opacity:1"
       id="rect3451-4-3-7-9-8-0-7-1"
       width="25"
       height="25"
       x="370.28952"
       y="778.74811"
       ry="0" />
    <rect
       style="display:inline;opacity:1;fill:#0e232e;fill-opacity:1;fill-rule:nonzero;stroke:none;stroke-width:3.18897629;stroke-linecap:butt;stroke-linejoin:bevel;stroke-miterlimit:4;stroke-dasharray:none;stroke-opacity:1"
       id="rect3451-4-3-0-0-8-1-6-4-5"
       width="25"
       height="25"
       x="400.28952"
       y="778.74811"
       ry="0" />
    <rect
       style="display:inline;opacity:1;fill:#0e232e;fill-opacity:1;fill-rule:nonzero;stroke:none;stroke-width:3.18897629;stroke-linecap:butt;stroke-linejoin:bevel;stroke-miterlimit:4;stroke-dasharray:none;stroke-opacity:1"
       id="rect3451-4-3-5-5-4-5-6"
       width="25"
       height="25"
       x="370.28952"
       y="808.74811"
       ry="0" />
    <rect
       style="display:inline;opacity:1;fill:#0e232e;fill-opacity:1;fill-rule:nonzero;stroke:none;stroke-width:3.18897629;stroke-linecap:butt;stroke-linejoin:bevel;stroke-miterlimit:4;stroke-dasharray:none;stroke-opacity:1"
       id="rect3451-4-3-0-7-2-0-2-9"
       width="25"
       height="25"
       x="400.28952"
       y="808.74811"
       ry="0" />
    <rect
       style="display:inline;opacity:1;fill:#0e232e;fill-opacity:1;fill-rule:nonzero;stroke:none;stroke-width:3.18897629;stroke-linecap:butt;stroke-linejoin:bevel;stroke-miterlimit:4;stroke-dasharray:none;stroke-opacity:1"
       id="rect3451-4-3-7-9-5-2-5-1"
       width="25"
       height="25"
       x="370.28952"
       y="838.74811"
       ry="0" />
    <rect
       style="display:inline;opacity:1;fill:#0e232e;fill-opacity:1;fill-rule:nonzero;stroke:none;stroke-width:3.18897629;stroke-linecap:butt;stroke-linejoin:bevel;stroke-miterlimit:4;stroke-dasharray:none;stroke-opacity:1"
       id="rect3451-4-3-0-0-8-5-2-2-3"
       width="25"
       height="25"
       x="400.28952"
       y="838.74811"
       ry="0" />
    <rect
       style="display:inline;opacity:1;fill:#0e232e;fill-opacity:1;fill-rule:nonzero;stroke:none;stroke-width:3.18897629;stroke-linecap:butt;stroke-linejoin:bevel;stroke-miterlimit:4;stroke-dasharray:none;stroke-opacity:1"
       id="rect3451-4-3-5-4-8-3-8-4"
       width="25"
       height="25"
       x="370.28952"
       y="868.74811"
       ry="0" />
    <rect
       style="display:inline;opacity:1;fill:#0e232e;fill-opacity:1;fill-rule:nonzero;stroke:none;stroke-width:3.18897629;stroke-linecap:butt;stroke-linejoin:bevel;stroke-miterlimit:4;stroke-dasharray:none;stroke-opacity:1"
       id="rect3451-4-3-0-7-3-6-5-6-0"
       width="25"
       height="25"
       x="400.28952"
       y="868.74811"
       ry="0" />
    <rect
       style="display:inline;opacity:1;fill:#0e232e;fill-opacity:1;fill-rule:nonzero;stroke:none;stroke-width:3.18897629;stroke-linecap:butt;stroke-linejoin:bevel;stroke-miterlimit:4;stroke-dasharray:none;stroke-opacity:1"
       id="rect3451-4-3-7-9-8-0-6-5-7"
       width="25"
       height="25"
       x="370.28952"
       y="898.74811"
       ry="0" />
    <rect
       style="display:inline;opacity:1;fill:#0e232e;fill-opacity:1;fill-rule:nonzero;stroke:none;stroke-width:3.18897629;stroke-linecap:butt;stroke-linejoin:bevel;stroke-miterlimit:4;stroke-dasharray:none;stroke-opacity:1"
       id="rect3451-4-3-0-0-8-1-6-0-2-6"
       width="25"
       height="25"
       x="400.28952"
       y="898.74811"
       ry="0" />
    <rect
       style="display:inline;opacity:1;fill:#0e232e;fill-opacity:1;fill-rule:nonzero;stroke:none;stroke-width:3.18897629;stroke-linecap:butt;stroke-linejoin:bevel;stroke-miterlimit:4;stroke-dasharray:none;stroke-opacity:1"
       id="rect3451-4-3-6-1-9-8"
       width="25"
       height="25"
       x="130.28952"
       y="928.74817"
       ry="0" />
    <rect
       style="display:inline;opacity:1;fill:#0e232e;fill-opacity:1;fill-rule:nonzero;stroke:none;stroke-width:3.18897629;stroke-linecap:butt;stroke-linejoin:bevel;stroke-miterlimit:4;stroke-dasharray:none;stroke-opacity:1"
       id="rect3451-4-3-0-4-9-6-0"
       width="25"
       height="25"
       x="160.28952"
       y="928.74817"
       ry="0" />
    <rect
       style="display:inline;opacity:1;fill:#0e232e;fill-opacity:1;fill-rule:nonzero;stroke:none;stroke-width:3.18897629;stroke-linecap:butt;stroke-linejoin:bevel;stroke-miterlimit:4;stroke-dasharray:none;stroke-opacity:1"
       id="rect3451-4-3-7-5-1-3-5"
       width="25"
       height="25"
       x="130.28952"
       y="958.74811"
       ry="0" />
    <rect
       style="display:inline;opacity:1;fill:#0e232e;fill-opacity:1;fill-rule:nonzero;stroke:none;stroke-width:3.18897629;stroke-linecap:butt;stroke-linejoin:bevel;stroke-miterlimit:4;stroke-dasharray:none;stroke-opacity:1"
       id="rect3451-4-3-0-0-7-9-3-2"
       width="25"
       height="25"
       x="160.28952"
       y="958.74811"
       ry="0" />
    <rect
       style="display:inline;opacity:1;fill:#0e232e;fill-opacity:1;fill-rule:nonzero;stroke:none;stroke-width:3.18897629;stroke-linecap:butt;stroke-linejoin:bevel;stroke-miterlimit:4;stroke-dasharray:none;stroke-opacity:1"
       id="rect3451-4-3-5-4-5-6-4"
       width="25"
       height="25"
       x="190.28952"
       y="928.74817"
       ry="0" />
    <rect
       style="display:inline;opacity:1;fill:#0e232e;fill-opacity:1;fill-rule:nonzero;stroke:none;stroke-width:3.18897629;stroke-linecap:butt;stroke-linejoin:bevel;stroke-miterlimit:4;stroke-dasharray:none;stroke-opacity:1"
       id="rect3451-4-3-0-7-3-2-4-6"
       width="25"
       height="25"
       x="220.28952"
       y="928.74817"
       ry="0" />
    <rect
       style="display:inline;opacity:1;fill:#0e232e;fill-opacity:1;fill-rule:nonzero;stroke:none;stroke-width:3.18897629;stroke-linecap:butt;stroke-linejoin:bevel;stroke-miterlimit:4;stroke-dasharray:none;stroke-opacity:1"
       id="rect3451-4-3-7-9-8-02-4-9"
       width="25"
       height="25"
       x="190.28952"
       y="958.74811"
       ry="0" />
    <rect
       style="display:inline;opacity:1;fill:#0e232e;fill-opacity:1;fill-rule:nonzero;stroke:none;stroke-width:3.18897629;stroke-linecap:butt;stroke-linejoin:bevel;stroke-miterlimit:4;stroke-dasharray:none;stroke-opacity:1"
       id="rect3451-4-3-0-0-8-1-5-4-3"
       width="25"
       height="25"
       x="220.28952"
       y="958.74811"
       ry="0" />
    <rect
       style="display:inline;opacity:1;fill:#0e232e;fill-opacity:1;fill-rule:nonzero;stroke:none;stroke-width:3.18897629;stroke-linecap:butt;stroke-linejoin:bevel;stroke-miterlimit:4;stroke-dasharray:none;stroke-opacity:1"
       id="rect3451-4-3-6-3-1-4-4"
       width="25"
       height="25"
       x="250.28952"
       y="928.74817"
       ry="0" />
    <rect
       style="display:inline;opacity:1;fill:#0e232e;fill-opacity:1;fill-rule:nonzero;stroke:none;stroke-width:3.18897629;stroke-linecap:butt;stroke-linejoin:bevel;stroke-miterlimit:4;stroke-dasharray:none;stroke-opacity:1"
       id="rect3451-4-3-0-4-3-5-3-1"
       width="25"
       height="25"
       x="280.28952"
       y="928.74817"
       ry="0" />
    <rect
       style="display:inline;opacity:1;fill:#0e232e;fill-opacity:1;fill-rule:nonzero;stroke:none;stroke-width:3.18897629;stroke-linecap:butt;stroke-linejoin:bevel;stroke-miterlimit:4;stroke-dasharray:none;stroke-opacity:1"
       id="rect3451-4-3-7-5-6-0-2-5"
       width="25"
       height="25"
       x="250.28952"
       y="958.74811"
       ry="0" />
    <rect
       style="display:inline;opacity:1;fill:#0e232e;fill-opacity:1;fill-rule:nonzero;stroke:none;stroke-width:3.18897629;stroke-linecap:butt;stroke-linejoin:bevel;stroke-miterlimit:4;stroke-dasharray:none;stroke-opacity:1"
       id="rect3451-4-3-0-0-7-2-0-8-8"
       width="25"
       height="25"
       x="280.28952"
       y="958.74811"
       ry="0" />
    <rect
       style="display:inline;opacity:1;fill:#0e232e;fill-opacity:1;fill-rule:nonzero;stroke:none;stroke-width:3.18897629;stroke-linecap:butt;stroke-linejoin:bevel;stroke-miterlimit:4;stroke-dasharray:none;stroke-opacity:1"
       id="rect3451-4-3-5-4-8-3-0-6"
       width="25"
       height="25"
       x="310.28952"
       y="928.74817"
       ry="0" />
    <rect
       style="display:inline;opacity:1;fill:#0e232e;fill-opacity:1;fill-rule:nonzero;stroke:none;stroke-width:3.18897629;stroke-linecap:butt;stroke-linejoin:bevel;stroke-miterlimit:4;stroke-dasharray:none;stroke-opacity:1"
       id="rect3451-4-3-0-7-3-6-5-4-3"
       width="25"
       height="25"
       x="340.28952"
       y="928.74817"
       ry="0" />
    <rect
       style="display:inline;opacity:1;fill:#0e232e;fill-opacity:1;fill-rule:nonzero;stroke:none;stroke-width:3.18897629;stroke-linecap:butt;stroke-linejoin:bevel;stroke-miterlimit:4;stroke-dasharray:none;stroke-opacity:1"
       id="rect3451-4-3-7-9-8-0-6-3-3"
       width="25"
       height="25"
       x="310.28952"
       y="958.74811"
       ry="0" />
    <rect
       style="display:inline;opacity:1;fill:#0e232e;fill-opacity:1;fill-rule:nonzero;stroke:none;stroke-width:3.18897629;stroke-linecap:butt;stroke-linejoin:bevel;stroke-miterlimit:4;stroke-dasharray:none;stroke-opacity:1"
       id="rect3451-4-3-0-0-8-1-6-0-9-9"
       width="25"
       height="25"
       x="340.28952"
       y="958.74811"
       ry="0" />
    <rect
       style="display:inline;opacity:1;fill:#0e232e;fill-opacity:1;fill-rule:nonzero;stroke:none;stroke-width:3.18897629;stroke-linecap:butt;stroke-linejoin:bevel;stroke-miterlimit:4;stroke-dasharray:none;stroke-opacity:1"
       id="rect3451-4-3-5-4-8-3-8-5-1"
       width="25"
       height="25"
       x="370.28952"
       y="928.74817"
       ry="0" />
    <rect
       style="display:inline;opacity:1;fill:#0e232e;fill-opacity:1;fill-rule:nonzero;stroke:none;stroke-width:3.18897629;stroke-linecap:butt;stroke-linejoin:bevel;stroke-miterlimit:4;stroke-dasharray:none;stroke-opacity:1"
       id="rect3451-4-3-0-7-3-6-5-6-8-6"
       width="25"
       height="25"
       x="400.28952"
       y="928.74817"
       ry="0" />
    <rect
       style="display:inline;opacity:1;fill:#0e232e;fill-opacity:1;fill-rule:nonzero;stroke:none;stroke-width:3.18897629;stroke-linecap:butt;stroke-linejoin:bevel;stroke-miterlimit:4;stroke-dasharray:none;stroke-opacity:1"
       id="rect3451-4-3-7-9-8-0-6-5-4-9"
       width="25"
       height="25"
       x="370.28952"
       y="958.74811"
       ry="0" />
    <rect
       style="display:inline;opacity:1;fill:#0e232e;fill-opacity:1;fill-rule:nonzero;stroke:none;stroke-width:3.18897629;stroke-linecap:butt;stroke-linejoin:bevel;stroke-miterlimit:4;stroke-dasharray:none;stroke-opacity:1"
       id="rect3451-4-3-0-0-8-1-6-0-2-7-0"
       width="25"
       height="25"
       x="400.28952"
       y="958.74811"
       ry="0" />
    <text
       xml:space="preserve"
       style="font-style:normal;font-variant:normal;font-weight:100;font-stretch:normal;font-size:23.16973305px;line-height:125%;font-family:BolsterBold;-inkscape-font-specification:'BolsterBold, Thin';text-align:start;letter-spacing:0px;word-spacing:0px;writing-mode:lr-tb;text-anchor:start;display:inline;fill:#ffffff;fill-opacity:1;stroke:none;stroke-width:1px;stroke-linecap:butt;stroke-linejoin:miter;stroke-opacity:1"
       x="287.54352"
       y="191.04735"
       id="text4787"
       sodipodi:linespacing="125%"
       inkscape:export-filename="C:\Users\Piotrek\Desktop\path823.png"
       inkscape:export-xdpi="200"
       inkscape:export-ydpi="200"><tspan
         sodipodi:role="line"
         id="tspan4789"
         x="287.54352"
         y="191.04735">SKRYBA BRACTWA STALI</tspan></text>
  </g>
</svg>
