<?xml version="1.0" encoding="UTF-8" standalone="no"?>
<!-- Created with Inkscape (http://www.inkscape.org/) -->

<svg
   xmlns:dc="http://purl.org/dc/elements/1.1/"
   xmlns:cc="http://creativecommons.org/ns#"
   xmlns:rdf="http://www.w3.org/1999/02/22-rdf-syntax-ns#"
   xmlns:svg="http://www.w3.org/2000/svg"
   xmlns="http://www.w3.org/2000/svg"
   xmlns:sodipodi="http://sodipodi.sourceforge.net/DTD/sodipodi-0.dtd"
   xmlns:inkscape="http://www.inkscape.org/namespaces/inkscape"
   width="210mm"
   height="297mm"
   viewBox="0 0 744.09448819 1052.3622047"
   id="svg5662"
   version="1.1"
   inkscape:version="0.92.2 (5c3e80d, 2017-08-06)"
   sodipodi:docname="logo.svg">
  <defs
     id="defs5664" />
  <sodipodi:namedview
     id="base"
     pagecolor="#ffffff"
     bordercolor="#666666"
     borderopacity="1.0"
     inkscape:pageopacity="0.0"
     inkscape:pageshadow="2"
     inkscape:zoom="0.7"
     inkscape:cx="281.9451"
     inkscape:cy="740.65279"
     inkscape:document-units="px"
     inkscape:current-layer="layer1"
     showgrid="false"
     inkscape:window-width="1600"
     inkscape:window-height="838"
     inkscape:window-x="-8"
     inkscape:window-y="-8"
     inkscape:window-maximized="1"
     showguides="true"
     inkscape:guide-bbox="true"
     inkscape:snap-text-baseline="false" />
  <metadata
     id="metadata5667">
    <rdf:RDF>
      <cc:Work
         rdf:about="">
        <dc:format>image/svg+xml</dc:format>
        <dc:type
           rdf:resource="http://purl.org/dc/dcmitype/StillImage" />
        <dc:title />
      </cc:Work>
    </rdf:RDF>
  </metadata>
  <g
     inkscape:label="Layer 1"
     inkscape:groupmode="layer"
     id="layer1"
     style="display:inline">
    <path
       style="fill:#0e232e;stroke:none;stroke-width:7.68093348;stroke-miterlimit:4;stroke-dasharray:none"
       d="M 688.92383 39.9375 A 100.71428 100.71428 0 0 0 680.97852 40.289062 L 113.89062 40.289062 A 100.71427 100.71427 0 0 1 207.91992 140.76367 A 100.71427 100.71427 0 0 1 110.61133 241.30859 L 687.78906 241.30859 A 100.71428 100.71428 0 0 0 688.92383 241.36523 A 100.71428 100.71428 0 0 0 690.52539 241.30859 L 695.77539 241.30859 L 695.77539 241.12305 A 100.71428 100.71428 0 0 0 789.63867 140.65234 A 100.71428 100.71428 0 0 0 688.92383 39.9375 z M 110.61133 241.30859 L 106.85742 241.30859 L 106.85742 216.41406 L 98.179688 216.3418 C 96.226978 216.32537 94.667164 214.73788 94.683594 212.78516 L 94.84375 193.79492 A 54.497136 54.497136 0 0 1 77.6875 186.50195 L 63.003906 200.94141 C 61.580917 202.34064 59.307464 202.32146 57.908203 200.89844 L 46.251953 189.04297 C 44.852687 187.61997 44.871922 185.34848 46.294922 183.94922 L 60.945312 169.54102 A 54.497136 54.497136 0 0 1 54 152.23242 L 33.398438 152.05859 C 31.402779 152.04185 29.809393 150.4214 29.826172 148.42578 L 29.966797 131.80078 C 29.983586 129.80513 31.603983 128.21177 33.599609 128.22852 L 54.175781 128.40234 A 54.497136 54.497136 0 0 1 61.46875 111.24609 L 47.029297 96.560547 C 45.630024 95.137557 45.649277 92.866047 47.072266 91.466797 L 58.927734 79.810547 C 60.350727 78.411284 62.622228 78.428558 64.021484 79.851562 L 78.427734 94.503906 A 54.497136 54.497136 0 0 1 95.738281 87.556641 L 95.896484 68.541016 C 95.912911 66.588319 97.500403 65.030459 99.453125 65.046875 L 106.85742 65.109375 L 106.85742 40.289062 L 113.89062 40.289062 A 100.71427 100.71427 0 0 0 107.20703 40.050781 A 100.71427 100.71427 0 0 0 6.4921875 140.76367 A 100.71427 100.71427 0 0 0 107.20703 241.47852 A 100.71427 100.71427 0 0 0 110.61133 241.30859 z M 106.85742 65.109375 L 106.85742 108.92383 A 31.866974 31.866974 0 0 1 107.47461 108.89844 A 31.866974 31.866974 0 0 1 139.07227 141.03125 A 31.866974 31.866974 0 0 1 106.9375 172.63086 A 31.866974 31.866974 0 0 1 106.85742 172.62695 L 106.85742 216.41406 L 114.95898 216.48242 C 116.9117 216.49884 118.4992 214.93902 118.51562 212.98633 L 118.67383 193.9707 A 54.497136 54.497136 0 0 0 135.98438 187.02539 L 150.39062 201.67578 C 151.78987 203.0988 154.06136 203.11798 155.48438 201.71875 L 167.33984 190.0625 C 168.76286 188.66326 168.78204 186.38979 167.38281 184.9668 L 152.94336 170.2832 A 54.497136 54.497136 0 0 0 160.23633 153.12695 L 180.8125 153.29883 C 182.80814 153.31559 184.42846 151.72216 184.44531 149.72656 L 184.58594 133.10156 C 184.60268 131.10593 183.00933 129.4855 181.01367 129.46875 L 160.41211 129.29492 A 54.497136 54.497136 0 0 0 153.4668 111.98633 L 168.11719 97.580078 C 169.54021 96.180829 169.55938 93.909328 168.16016 92.486328 L 156.50195 80.630859 C 155.10269 79.207871 152.83119 79.188633 151.4082 80.587891 L 136.72461 95.027344 A 54.497136 54.497136 0 0 0 119.56836 87.734375 L 119.72852 68.742188 C 119.74494 66.789491 118.18513 65.20588 116.23242 65.189453 L 106.85742 65.109375 z M 106.85742 172.62695 L 106.85742 108.92383 A 31.866974 31.866974 0 0 0 75.339844 140.49609 A 31.866974 31.866974 0 0 0 106.85742 172.62695 z M 341.78516 97.287109 L 350.58789 97.287109 L 340.85938 110.38281 L 332.05859 110.38281 L 341.78516 97.287109 z M 261.55859 118.24023 L 270.68359 118.24023 L 274.34375 140.89453 L 278.0957 118.30469 L 287.2207 118.30469 L 280.31836 161.12695 L 271.14844 161.12695 L 266.14453 130.94141 L 261.0957 161.12695 L 251.92383 161.12695 L 245.02148 118.30469 L 254.19336 118.30469 L 258.17773 140.89453 L 261.55859 118.24023 z M 461.95312 118.24023 L 471.07812 118.24023 L 474.73828 140.89453 L 478.49023 118.30469 L 487.61523 118.30469 L 480.71289 161.12695 L 471.54102 161.12695 L 466.53906 130.94141 L 461.49023 161.12695 L 452.31836 161.12695 L 445.41602 118.30469 L 454.58789 118.30469 L 458.57227 140.89453 L 461.95312 118.24023 z M 614.27344 118.24023 C 615.91012 118.24023 617.43886 119.11328 618.85938 120.85938 C 619.69316 121.95068 620.26346 123.14941 620.57227 124.45898 C 620.88107 125.7249 621.03516 127.31953 621.03516 129.24023 L 621.03516 137.22852 C 621.03516 139.45479 620.51089 141.52852 619.46094 143.44922 C 618.62715 144.9334 617.70071 145.95791 616.68164 146.52539 C 615.69345 147.04922 614.44285 147.3125 612.92969 147.3125 L 600.60742 147.3125 L 600.60742 161.12695 L 591.4375 161.12695 L 591.4375 118.30469 L 613.48633 118.30469 C 613.8569 118.26104 614.11903 118.24023 614.27344 118.24023 z M 290.0332 118.30469 L 313.4707 118.30469 C 314.21184 118.30469 314.84612 118.41455 315.37109 118.63281 C 315.89607 118.85107 316.45233 119.24307 317.03906 119.81055 C 318.64487 121.38203 319.44727 123.58643 319.44727 126.42383 L 319.44727 133.10352 C 319.32374 134.36943 318.9676 135.61367 318.38086 136.83594 C 318.07205 137.44707 317.50175 138.1459 316.66797 138.93164 C 316.42092 139.1499 316.03474 139.47559 315.50977 139.91211 C 315.91122 140.21768 316.20339 140.4582 316.38867 140.63281 C 316.97541 141.20029 317.43961 141.7457 317.7793 142.26953 C 318.89101 144.05928 319.44727 145.89248 319.44727 147.76953 L 319.44727 161.12695 L 310.27539 161.12695 L 310.27539 144.23438 L 299.1582 144.23438 L 299.1582 161.12695 L 290.0332 161.12695 L 290.0332 118.30469 z M 330.5293 118.30469 L 343.5 118.30469 C 344.64259 118.39199 345.539 118.50186 346.1875 118.63281 C 348.10211 119.06934 349.4908 119.87607 350.35547 121.05469 C 351.25101 122.18965 351.86929 123.39033 352.20898 124.65625 C 352.57955 125.92217 352.76367 127.47129 352.76367 129.30469 L 352.76367 150.58594 C 352.76367 152.98682 352.16138 155.16846 350.95703 157.13281 C 349.44387 159.79561 347.52895 161.12695 345.21289 161.12695 L 328.63086 161.12695 C 327.79708 161.12695 327.08674 160.93193 326.5 160.53906 C 325.94414 160.14619 325.31182 159.53447 324.60156 158.70508 C 323.8913 157.83203 323.31905 156.50068 322.88672 154.71094 C 322.48527 152.92119 322.28516 151.02168 322.28516 149.01367 L 322.28516 130.28711 C 322.28516 129.06484 322.39321 127.84336 322.60938 126.62109 C 322.82554 125.35518 323.21172 124.15449 323.76758 123.01953 C 324.60136 121.36074 325.55784 120.16006 326.63867 119.41797 C 327.7195 118.67588 329.01613 118.30469 330.5293 118.30469 z M 355.84961 118.30469 L 378.5 118.30469 C 379.48819 118.30469 380.35261 118.50166 381.09375 118.89453 C 381.83489 119.24375 382.57722 119.87627 383.31836 120.79297 C 384.0595 121.70967 384.61576 122.60547 384.98633 123.47852 C 385.38778 124.30791 385.58789 125.35518 385.58789 126.62109 L 385.58789 132.38281 C 385.49525 133.08125 385.35716 133.71377 385.17188 134.28125 C 384.98659 134.84873 384.7225 135.52676 384.38281 136.3125 C 384.04312 137.05459 383.47282 137.90488 382.66992 138.86523 C 382.5464 139.03984 382.34629 139.25762 382.06836 139.51953 C 382.43893 139.8251 382.71511 140.06562 382.90039 140.24023 C 383.45625 140.80771 383.90445 141.37588 384.24414 141.94336 C 384.70735 142.7291 385.0635 143.51504 385.31055 144.30078 C 385.46495 144.78096 385.60304 145.43428 385.72656 146.26367 L 385.72656 152.02734 C 385.72656 153.33691 385.49446 154.51484 385.03125 155.5625 C 384.69156 156.34824 384.07523 157.3084 383.17969 158.44336 C 382.43855 159.44736 381.45008 160.16699 380.21484 160.60352 C 378.97961 161.04004 377.85305 161.25977 376.83398 161.25977 C 376.43253 161.25977 376.07639 161.21426 375.76758 161.12695 L 355.84961 161.12695 L 355.84961 118.30469 z M 388.32812 118.30469 L 398.14844 118.30469 L 398.14844 149.80078 L 413.52734 149.80078 L 413.52734 161.12695 L 388.32812 161.12695 L 388.32812 118.30469 z M 416.375 118.30469 L 442.54688 118.30469 L 442.54688 129.63281 L 425.54688 129.63281 L 425.54688 135.19922 L 442.54688 135.19922 L 442.54688 144.23438 L 425.54688 144.23438 L 425.54688 149.80078 L 442.54688 149.80078 L 442.54688 161.12695 L 416.375 161.12695 L 416.375 118.30469 z M 497.4668 118.30469 L 518.63672 118.30469 L 518.63672 129.76367 L 499.55273 129.76367 L 499.55273 135.46094 L 513.44922 135.46094 C 513.88155 135.46094 514.5759 135.50449 515.5332 135.5918 C 516.52139 135.63545 517.40181 136.071 518.17383 136.90039 C 519.59435 138.47188 520.30469 140.5248 520.30469 143.05664 L 520.30469 153.00781 C 520.30469 154.40469 520.16465 155.60537 519.88672 156.60938 C 519.63967 157.56973 519.19147 158.50908 518.54297 159.42578 C 518.01799 160.12422 517.4477 160.60332 516.83008 160.86523 C 516.21246 161.0835 515.50212 161.19336 514.69922 161.19336 C 514.29777 161.19336 513.94162 161.17061 513.63281 161.12695 L 512.80078 161.12695 L 490.38086 161.12695 L 490.38086 150.51953 L 511.13281 150.51953 L 511.13281 144.88867 L 496.77344 144.88867 C 495.13675 144.88867 493.70008 144.08193 492.46484 142.4668 C 491.07521 140.67705 490.38086 138.53701 490.38086 136.04883 L 490.38086 125.44141 C 490.53526 123.47705 491.13755 121.81807 492.1875 120.46484 C 492.86688 119.54814 493.59126 118.95918 494.36328 118.69727 C 495.16618 118.43535 496.20068 118.30469 497.4668 118.30469 z M 523.13086 118.30469 L 532.30273 118.30469 L 532.30273 137.55469 L 542.95703 118.30469 L 553.33203 118.30469 L 543.92969 135.65625 C 544.17673 135.6126 544.36085 135.5918 544.48438 135.5918 C 545.4108 135.5918 546.4453 135.83232 547.58789 136.3125 C 548.73048 136.79268 549.71895 137.53311 550.55273 138.53711 C 551.60268 139.89033 552.29703 141.52852 552.63672 143.44922 C 552.85288 144.71514 552.96094 146.74531 552.96094 149.53906 L 552.96094 161.12695 L 543.79102 161.12695 L 543.79102 144.23438 L 532.30273 144.23438 L 532.30273 161.12695 L 523.17773 161.12695 L 523.13086 118.30469 z M 555.88086 118.30469 L 565.05273 118.30469 L 565.05273 161.12695 L 555.88086 161.12695 L 555.88086 118.30469 z M 623.82617 118.30469 L 632.99805 118.30469 L 632.99805 161.12695 L 623.82617 161.12695 L 623.82617 118.30469 z M 644.19336 118.30469 L 657.16406 118.30469 C 658.30665 118.39199 659.20111 118.50186 659.84961 118.63281 C 661.76422 119.06934 663.15487 119.87607 664.01953 121.05469 C 664.91508 122.18965 665.53336 123.39033 665.87305 124.65625 C 666.24362 125.92217 666.42773 127.47129 666.42773 129.30469 L 666.42773 150.58594 C 666.42773 152.98682 665.82545 155.16846 664.62109 157.13281 C 663.10793 159.79561 661.19302 161.12695 658.87695 161.12695 L 642.29492 161.12695 C 641.46114 161.12695 640.7508 160.93193 640.16406 160.53906 C 639.60821 160.14619 638.97588 159.53447 638.26562 158.70508 C 637.55537 157.83203 636.98311 156.50068 636.55078 154.71094 C 636.14933 152.92119 635.94922 151.02168 635.94922 149.01367 L 635.94922 130.28711 C 635.94922 129.06484 636.05727 127.84336 636.27344 126.62109 C 636.4896 125.35518 636.87579 124.15449 637.43164 123.01953 C 638.26542 121.36074 639.2219 120.16006 640.30273 119.41797 C 641.38356 118.67588 642.6802 118.30469 644.19336 118.30469 z M 669.51367 118.30469 L 697.76953 118.30469 L 697.76953 128.91211 L 688.45898 128.91211 L 688.45898 161.12695 L 678.82422 161.12695 L 678.82422 128.91211 L 669.51367 128.91211 L 669.51367 118.30469 z M 700.41016 118.30469 L 723.84961 118.30469 C 724.59075 118.30469 725.22307 118.41455 725.74805 118.63281 C 726.27302 118.85107 726.82928 119.24307 727.41602 119.81055 C 729.02182 121.38203 729.82422 123.58643 729.82422 126.42383 L 729.82422 133.10352 C 729.7007 134.36943 729.3465 135.61367 728.75977 136.83594 C 728.45096 137.44707 727.87871 138.1459 727.04492 138.93164 C 726.79788 139.1499 726.41169 139.47559 725.88672 139.91211 C 726.28817 140.21768 726.58229 140.4582 726.76758 140.63281 C 727.35431 141.20029 727.81656 141.7457 728.15625 142.26953 C 729.26796 144.05928 729.82422 145.89248 729.82422 147.76953 L 729.82422 161.12695 L 720.65234 161.12695 L 720.65234 144.23438 L 709.53516 144.23438 L 709.53516 161.12695 L 700.41016 161.12695 L 700.41016 118.30469 z M 299.1582 129.63281 L 299.1582 135.33008 L 310.27539 135.33008 L 310.27539 129.63281 L 299.1582 129.63281 z M 331.45703 129.63281 L 331.45703 149.80078 L 343.5918 149.80078 L 343.5918 129.63281 L 331.45703 129.63281 z M 365.02148 129.63281 L 365.02148 135.52539 L 376.23047 135.52539 L 376.23047 129.63281 L 365.02148 129.63281 z M 600.60742 129.63281 L 600.60742 138.3418 L 611.49414 138.3418 L 611.49414 129.63281 L 600.60742 129.63281 z M 645.12109 129.63281 L 645.12109 149.80078 L 657.25586 149.80078 L 657.25586 129.63281 L 645.12109 129.63281 z M 709.53516 129.63281 L 709.53516 135.33008 L 720.65234 135.33008 L 720.65234 129.63281 L 709.53516 129.63281 z M 365.02148 143.90625 L 365.02148 149.80078 L 376.23047 149.80078 L 376.23047 143.90625 L 365.02148 143.90625 z "
       transform="scale(0.9375)"
       id="path823"
       inkscape:export-xdpi="200"
       inkscape:export-ydpi="200" />
    <path
       style="opacity:1;fill:#0e232e;stroke:none;stroke-width:2.59943151;stroke-miterlimit:4;stroke-dasharray:none"
       d="M 230.04743,365.74193 A 163.39287,163.39287 0 0 0 66.6551,529.13426 a 163.39287,163.39287 0 0 0 163.39233,163.39417 163.39287,163.39287 0 0 0 15.71229,-0.9137 163.39288,163.39288 0 0 1 -14.11561,0.84411 v -34.04479 l -16.25793,-0.13733 c -3.33676,-0.0281 -6.001,-2.7368 -5.97291,-6.07361 l 0.27283,-32.44995 a 93.123437,93.123437 0 0 1 -29.31701,-12.46399 l -25.09095,24.67346 c -2.43157,2.39093 -6.31563,2.3583 -8.70666,-0.0732 l -19.92004,-20.25696 c -2.39106,-2.4316 -2.35835,-6.31565 0.0732,-8.70666 l 25.03601,-24.6167 a 93.123437,93.123437 0 0 1 -11.8689,-29.57703 l -35.20202,-0.29663 c -3.41014,-0.0287 -6.13161,-2.79718 -6.10291,-6.20728 l 0.23804,-28.41064 c 0.0287,-3.41012 2.79718,-6.13161 6.20727,-6.1029 l 35.16175,0.29479 a 93.123437,93.123437 0 0 1 12.46216,-29.31518 l -24.67529,-25.09277 c -2.39105,-2.43156 -2.35835,-6.31381 0.0732,-8.70484 l 20.25696,-19.92004 c 2.43158,-2.39107 6.31565,-2.35836 8.70667,0.0732 l 24.61853,25.03418 a 93.123437,93.123437 0 0 1 29.57703,-11.86889 l 0.27282,-32.49207 c 0.0281,-3.33673 2.7387,-6.001 6.07544,-5.9729 l 14.08264,0.11902 V 365.8225 a 163.39287,163.39287 0 0 0 -1.59668,-0.0806 z m 1.59668,0.0806 a 163.39287,163.39287 0 0 1 11.44043,0.57128 163.39288,163.39288 0 0 0 -11.44043,-0.58227 z m 11.44043,0.57128 a 163.39288,163.39288 0 0 1 10.96436,1.32752 163.39287,163.39287 0 0 0 -10.96436,-1.32752 z m 10.96436,1.32752 a 163.39287,163.39287 0 0 1 5.23132,0.79102 163.39288,163.39288 0 0 0 -5.23132,-0.79102 z m 5.23132,0.79102 a 163.39288,163.39288 0 0 1 10.76843,2.41149 163.39287,163.39287 0 0 0 -10.76843,-2.41149 z m 10.76843,2.41149 a 163.39287,163.39287 0 0 1 5.11964,1.30737 163.39288,163.39288 0 0 0 -5.11964,-1.30737 z m 5.11964,1.30737 a 163.39288,163.39288 0 0 1 10.40954,3.45154 163.39287,163.39287 0 0 0 -10.40954,-3.45154 z m 10.40954,3.45154 a 163.39287,163.39287 0 0 1 5.07934,1.85486 163.39288,163.39288 0 0 0 -5.07934,-1.85486 z m 5.07934,1.85486 a 163.39288,163.39288 0 0 1 9.86756,4.41102 163.39287,163.39287 0 0 0 -9.86756,-4.41102 z m 9.86756,4.41102 a 163.39287,163.39287 0 0 1 5.00793,2.41882 163.39288,163.39288 0 0 0 -5.00793,-2.41882 z m 5.00793,2.41882 a 163.39288,163.39288 0 0 1 9.24683,5.29907 163.39287,163.39287 0 0 0 -9.24683,-5.29907 z m 9.24683,5.29907 a 163.39287,163.39287 0 0 1 4.86695,2.98279 163.39288,163.39288 0 0 0 -4.86695,-2.98279 z m 4.86695,2.98279 a 163.39288,163.39288 0 0 1 8.56933,6.12305 163.39287,163.39287 0 0 0 -8.56933,-6.12305 z m 8.56933,6.12305 a 163.39287,163.39287 0 0 1 4.64172,3.52844 163.39288,163.39288 0 0 0 -4.64172,-3.52844 z m 4.64172,3.52844 a 163.39288,163.39288 0 0 1 7.79114,6.83898 163.39287,163.39287 0 0 0 -7.79114,-6.83898 z m 7.79114,6.83898 a 163.39287,163.39287 0 0 1 4.40369,4.1034 163.39288,163.39288 0 0 0 -4.40369,-4.1034 z m 4.40369,4.1034 a 163.39288,163.39288 0 0 1 6.92871,7.43042 163.39287,163.39287 0 0 0 -6.92871,-7.43042 z m 6.92871,7.43042 a 163.39287,163.39287 0 0 1 4.10705,4.67469 163.39288,163.39288 0 0 0 -4.10705,-4.67469 z m 4.10705,4.67469 a 163.39288,163.39288 0 0 1 6.01318,7.90099 163.39287,163.39287 0 0 0 -6.01318,-7.90099 z m 6.01318,7.90099 a 163.39287,163.39287 0 0 1 3.77015,5.27344 163.39288,163.39288 0 0 0 -3.77015,-5.27344 z m 3.77015,5.27344 a 163.39288,163.39288 0 0 1 5.0354,8.20313 163.39287,163.39287 0 0 0 -5.0354,-8.20313 z m 5.0354,8.20313 a 163.39287,163.39287 0 0 1 3.37646,5.88684 163.39288,163.39288 0 0 0 -3.37646,-5.88684 z m 3.37646,5.88684 a 163.39288,163.39288 0 0 1 4.07593,8.43018 163.39287,163.39287 0 0 0 -4.07593,-8.43018 z m 4.07593,8.43018 a 163.39287,163.39287 0 0 1 2.8711,6.41418 163.39288,163.39288 0 0 0 -2.8711,-6.41418 z m 2.8711,6.41418 a 163.39288,163.39288 0 0 1 3.1311,8.56384 163.39287,163.39287 0 0 0 -3.1311,-8.56384 z m 3.1311,8.56384 a 163.39287,163.39287 0 0 1 2.29614,6.91223 163.39288,163.39288 0 0 0 -2.29614,-6.91223 z m 2.29614,6.91223 a 163.39288,163.39288 0 0 1 2.19726,8.58765 163.39287,163.39287 0 0 0 -2.19726,-8.58765 z m 2.19726,8.58765 a 163.39287,163.39287 0 0 1 1.64979,7.35534 163.39288,163.39288 0 0 0 -1.64979,-7.35534 z m 1.64979,7.35534 a 163.39288,163.39288 0 0 1 1.2854,8.47779 163.39287,163.39287 0 0 0 -1.2854,-8.47779 z m 1.2854,8.47779 a 163.39287,163.39287 0 0 1 0.94482,7.78198 163.39288,163.39288 0 0 0 -0.94482,-7.78198 z m 0.94482,7.78198 a 163.39288,163.39288 0 0 1 0.70496,13.96179 163.39287,163.39287 0 0 0 -0.70496,-13.96179 z M 231.64411,399.86913 v 74.83703 a 54.453543,54.453543 0 0 1 53.61694,54.88587 54.453543,54.453543 0 0 1 -53.61694,53.95935 v 74.86267 l 12.41455,0.10437 c 3.33676,0.028 6.04738,-2.6362 6.07544,-5.9729 l 0.27283,-32.49207 a 93.123437,93.123437 0 0 0 29.57702,-11.87073 l 24.61854,25.03601 c 2.39099,2.43158 6.27324,2.46432 8.70483,0.0732 l 20.25696,-19.92005 c 2.43157,-2.391 2.46427,-6.27325 0.0732,-8.70483 l -24.67347,-25.09277 a 93.123437,93.123437 0 0 0 12.464,-29.31702 l 35.15808,0.29663 c 3.41009,0.0287 6.18038,-2.69468 6.20911,-6.10474 l 0.23803,-28.40881 c 0.0287,-3.4101 -2.69278,-6.17858 -6.1029,-6.20728 l -35.20203,-0.29662 a 93.123437,93.123437 0 0 0 -11.8689,-29.57703 l 25.03419,-24.61853 c 2.43157,-2.39101 2.46425,-6.27141 0.0732,-8.703 l -19.92003,-20.25879 c -2.39102,-2.43159 -6.27327,-2.46429 -8.70484,-0.0732 l -25.09278,24.67347 A 93.123437,93.123437 0 0 0 251.93396,438.5172 l 0.27283,-32.45178 c 0.0281,-3.33674 -2.63614,-6.04554 -5.97291,-6.07361 z m 0,183.68225 V 474.70616 a 54.453543,54.453543 0 0 0 -0.37537,-0.022 54.453543,54.453543 0 0 0 -54.91149,53.99231 54.453543,54.453543 0 0 0 53.99414,54.90967 54.453543,54.453543 0 0 0 1.29272,-0.0348 z m 14.11561,108.06335 a 163.39288,163.39288 0 0 0 5.57555,-0.67749 163.39287,163.39287 0 0 1 -5.57555,0.67749 z m 5.57555,-0.67749 a 163.39287,163.39287 0 0 0 10.55604,-1.70105 163.39288,163.39288 0 0 1 -10.55604,1.70105 z m 10.55604,-1.70105 a 163.39288,163.39288 0 0 0 5.51513,-1.23779 163.39287,163.39287 0 0 1 -5.51513,1.23779 z m 5.51513,-1.23779 a 163.39287,163.39287 0 0 0 10.29602,-2.7356 163.39288,163.39288 0 0 1 -10.29602,2.7356 z m 10.29602,-2.7356 a 163.39288,163.39288 0 0 0 5.42542,-1.80358 163.39287,163.39287 0 0 1 -5.42542,1.80358 z m 5.42542,-1.80358 a 163.39287,163.39287 0 0 0 9.88586,-3.71888 163.39288,163.39288 0 0 1 -9.88586,3.71888 z m 9.88586,-3.71888 a 163.39288,163.39288 0 0 0 5.31006,-2.37487 163.39287,163.39287 0 0 1 -5.31006,2.37487 z m 5.31006,-2.37487 a 163.39287,163.39287 0 0 0 9.38782,-4.64905 163.39288,163.39288 0 0 1 -9.38782,4.64905 z m 9.38782,-4.64905 a 163.39288,163.39288 0 0 0 5.13428,-2.94617 163.39287,163.39287 0 0 1 -5.13428,2.94617 z m 5.13428,-2.94617 a 163.39287,163.39287 0 0 0 8.76708,-5.49316 163.39288,163.39288 0 0 1 -8.76708,5.49316 z m 8.76708,-5.49316 a 163.39288,163.39288 0 0 0 4.93469,-3.53028 163.39287,163.39287 0 0 1 -4.93469,3.53028 z m 4.93469,-3.53028 a 163.39287,163.39287 0 0 0 8.05115,-6.24389 163.39288,163.39288 0 0 1 -8.05115,6.24389 z m 8.05115,-6.24389 a 163.39288,163.39288 0 0 0 4.69666,-4.12537 163.39287,163.39287 0 0 1 -4.69666,4.12537 z m 4.69666,-4.12537 a 163.39287,163.39287 0 0 0 7.25097,-6.88843 163.39288,163.39288 0 0 1 -7.25097,6.88843 z m 7.25097,-6.88843 a 163.39288,163.39288 0 0 0 4.38355,-4.70764 163.39287,163.39287 0 0 1 -4.38355,4.70764 z m 4.38355,-4.70764 a 163.39287,163.39287 0 0 0 6.39587,-7.42309 163.39288,163.39288 0 0 1 -6.39587,7.42309 z m 6.39587,-7.42309 a 163.39288,163.39288 0 0 0 4.04114,-5.31555 163.39287,163.39287 0 0 1 -4.04114,5.31555 z m 4.04114,-5.31555 a 163.39287,163.39287 0 0 0 5.48767,-7.83509 163.39288,163.39288 0 0 1 -5.48767,7.83509 z m 5.48767,-7.83509 a 163.39288,163.39288 0 0 0 3.58887,-5.85388 163.39287,163.39287 0 0 1 -3.58887,5.85388 z m 3.58887,-5.85388 a 163.39287,163.39287 0 0 0 4.59045,-8.18665 163.39288,163.39288 0 0 1 -4.59045,8.18665 z m 4.59045,-8.18665 a 163.39288,163.39288 0 0 0 3.07435,-6.36474 163.39287,163.39287 0 0 1 -3.07435,6.36474 z m 3.07435,-6.36474 a 163.39287,163.39287 0 0 0 3.65844,-8.39539 163.39288,163.39288 0 0 1 -3.65844,8.39539 z m 3.65844,-8.39539 a 163.39288,163.39288 0 0 0 2.50671,-6.86279 163.39287,163.39287 0 0 1 -2.50671,6.86279 z m 2.50671,-6.86279 a 163.39287,163.39287 0 0 0 2.73195,-8.50159 163.39288,163.39288 0 0 1 -2.73195,8.50159 z m 2.73195,-8.50159 a 163.39288,163.39288 0 0 0 1.86766,-7.31323 163.39287,163.39287 0 0 1 -1.86766,7.31323 z m 1.86766,-7.31323 a 163.39287,163.39287 0 0 0 1.81641,-8.47413 163.39288,163.39288 0 0 1 -1.81641,8.47413 z m 1.81641,-8.47413 a 163.39288,163.39288 0 0 0 1.16822,-7.73071 163.39287,163.39287 0 0 1 -1.16822,7.73071 z m 1.16822,-7.73071 a 163.39287,163.39287 0 0 0 0.93201,-8.36059 163.39288,163.39288 0 0 1 -0.93201,8.36059 z m 0.93201,-8.36059 a 163.39288,163.39288 0 0 0 0.65185,-13.01331 163.39287,163.39287 0 0 1 -0.65185,13.01331 z"
       id="path1201"
       inkscape:connector-curvature="0"
       inkscape:export-xdpi="141.00948"
       inkscape:export-ydpi="141.00948" />
  </g>
</svg>
